<svg width="31" height="29" viewBox="0 0 31 29" fill="none" xmlns="http://www.w3.org/2000/svg">
<g clip-path="url(#clip0_542_90)">
<path d="M0 10.6802C0.056621 10.5122 0.10758 10.3425 0.169863 10.1769C0.687541 8.79834 2.27536 8.13745 3.62294 8.75353C3.8292 8.84794 3.95781 8.82314 4.13091 8.69352C5.61276 7.58857 7.09947 6.49002 8.59264 5.40027C8.76332 5.27625 8.78192 5.17624 8.72692 4.98181C8.4341 3.94167 8.69213 3.03354 9.51152 2.32784C10.3018 1.64695 11.2296 1.50053 12.1962 1.90699C13.1854 2.32304 13.7395 3.10155 13.7541 4.1641C13.7597 4.55855 13.9126 4.68257 14.2143 4.82579C15.3216 5.34986 16.4177 5.89794 17.5388 6.44761C17.9828 5.71311 18.6162 5.25065 19.4687 5.13543C20.3237 5.02022 21.0533 5.30986 21.6802 5.90034C23.1159 5.05622 24.5428 4.21691 25.9721 3.37679C25.6825 2.36305 25.8677 1.47573 26.6111 0.738025C27.5429 -0.185302 29.0272 -0.24451 30.0569 0.582004C31.0631 1.39012 31.2936 2.83992 30.5899 3.93127C29.887 5.02102 28.4674 5.42107 27.2954 4.84099C27.1021 4.74498 26.9734 4.76418 26.802 4.86579C25.4018 5.69711 23.9976 6.52122 22.5918 7.34294C22.4478 7.42695 22.3871 7.51336 22.3855 7.69178C22.3693 8.95116 21.4416 10.0057 20.2064 10.1913C18.9543 10.3794 17.7782 9.66006 17.3535 8.46709C17.3042 8.32867 17.1748 8.17985 17.0421 8.11344C15.7568 7.46935 14.4626 6.84367 13.1741 6.20518C13.0277 6.13237 12.9371 6.13877 12.802 6.24278C11.9931 6.87087 11.1066 6.96528 10.1546 6.59323C10.0575 6.55563 9.89412 6.56683 9.81404 6.62524C8.26343 7.75579 6.7193 8.89515 5.18163 10.0425C5.10398 10.1001 5.04008 10.2609 5.06192 10.3513C5.42025 11.8332 4.61785 13.2197 3.19585 13.5518C1.75282 13.8886 0.402009 13.0325 0.0517678 11.5611C0.0428702 11.5251 0.0177952 11.4923 0.000808872 11.4579C0.000808872 11.1987 0.000808872 10.9386 0.000808872 10.6794L0 10.6802Z" fill="#F0F0F0"/>
<path d="M0 19.3635C0.225675 18.8738 0.617978 18.7186 1.14617 18.7314C2.1338 18.7562 3.12305 18.7362 4.11149 18.7394C4.85566 18.7418 5.15979 19.041 5.1606 19.7731C5.16141 22.4871 5.16141 25.2011 5.1606 27.9158C5.1606 28.6551 4.86051 28.9528 4.12039 28.9536C3.13195 28.9544 2.1427 28.9312 1.15507 28.9632C0.62364 28.98 0.238617 28.8232 0 28.3471V19.3635Z" fill="#0E103D"/>
<path d="M25.8384 19.5803C25.8384 16.8167 25.8384 14.0524 25.8384 11.2888C25.8384 10.5175 26.1401 10.2166 26.9134 10.2158C27.922 10.215 28.9307 10.2142 29.9394 10.2158C30.6884 10.2174 30.9998 10.5295 30.9998 11.2768C30.9998 16.8143 30.9998 22.3519 30.9998 27.8895C30.9998 28.6584 30.7005 28.9528 29.9208 28.9528C28.8919 28.9528 27.863 28.9544 26.8341 28.9528C26.1563 28.952 25.8392 28.6384 25.8392 27.9607C25.8376 25.1667 25.8392 22.3735 25.8384 19.5795V19.5803Z" fill="#0E103D"/>
<path d="M13.7808 20.4412C13.7808 22.2262 13.7808 24.0121 13.7808 25.7971C13.7808 26.7805 14.2507 28.7391 12.9048 28.9512C12.2253 29.0584 11.4173 28.9576 10.7281 28.956C10.1587 28.9552 9.24302 29.1456 8.81837 28.6615C8.44143 28.2319 8.60644 27.4286 8.60644 26.9029C8.60644 26.0196 8.60644 25.1362 8.60644 24.2521C8.60644 20.9389 8.60644 17.6264 8.60644 14.3132C8.60644 13.7059 8.37591 12.6145 8.88793 12.1505C9.3231 11.756 10.1781 11.9296 10.7265 11.9288C11.8767 11.9264 13.7792 11.4632 13.7792 13.077C13.7792 15.5317 13.7792 17.9865 13.7792 20.4412H13.7808Z" fill="#0E103D"/>
<path d="M17.2192 22.1318C17.2192 20.6348 17.2192 19.1378 17.2192 17.6408C17.2192 17.1176 17.0923 16.4087 17.2799 15.899C17.5104 15.2725 18.1333 15.3413 18.6995 15.3381C19.3264 15.3341 19.9532 15.3341 20.5801 15.3357C21.0857 15.3373 21.8088 15.1989 22.1849 15.6334C22.5068 16.0046 22.3928 16.6087 22.3928 17.0559C22.3928 17.8217 22.3928 18.5882 22.3928 19.3539C22.3928 22.1775 22.5821 25.0731 22.392 27.8886C22.3006 29.2424 21.0379 28.9536 19.9718 28.9544C18.8702 28.9552 17.2201 29.3424 17.2192 27.815C17.2192 25.9204 17.2192 24.0249 17.2192 22.1302V22.1318Z" fill="#0E103D"/>
</g>
<defs>
<clipPath id="clip0_542_90">
<rect width="31" height="29" fill="white"/>
</clipPath>
</defs>
</svg>
