<svg width="39" height="39" viewBox="0 0 39 39" fill="none" xmlns="http://www.w3.org/2000/svg">
<g clip-path="url(#clip0_145_1174)">
<path d="M39 9.83288V29.1755C38.6148 31.6872 37.7634 34.0672 35.9308 35.898C34.0658 37.7632 31.7145 38.5537 29.1783 38.999H9.84087C9.71692 38.977 9.59392 38.9475 9.46901 38.9341C8.41447 38.8254 7.38376 38.5908 6.42933 38.1408C2.29983 36.1927 0.0934889 32.9211 0.0381873 28.3507C-0.0333233 22.4502 0.0181643 16.5477 0.0219782 10.6462C0.0229317 8.79733 0.424345 7.03517 1.36542 5.43989C3.47165 1.86791 6.62766 0.0390118 10.7734 0.0170803C16.5972 -0.0134332 22.421 0.00277709 28.2448 0.0170803C28.9771 0.0189874 29.7265 0.0580827 30.4369 0.217325C34.7352 1.1785 37.4897 3.8017 38.6787 8.04498C38.8418 8.62473 38.8961 9.23596 39 9.83192V9.83288ZM2.30555 19.4856C2.30555 22.4044 2.29506 25.3232 2.31413 28.2411C2.31795 28.8847 2.35704 29.5427 2.49911 30.1672C3.38965 34.0987 6.66484 36.7076 10.6999 36.7133C16.5734 36.7219 22.4477 36.7219 28.3211 36.7066C28.9628 36.7047 29.6207 36.6485 30.2424 36.4978C34.2031 35.5376 36.7136 32.3194 36.7165 28.242C36.7193 22.4178 36.7232 16.5926 36.7088 10.7683C36.7069 10.1256 36.664 9.46671 36.5229 8.84214C35.64 4.94024 32.3848 2.31322 28.3984 2.29987C22.4735 2.2808 16.5495 2.29415 10.6246 2.29605C9.43087 2.29605 8.27145 2.50679 7.19593 3.03124C3.99702 4.59314 2.35799 7.17534 2.31318 10.7292C2.27599 13.6471 2.30555 16.5668 2.30555 19.4847V19.4856Z" fill="#F0F0F0"/>
<path d="M19.5244 30.1644C13.6767 30.1815 8.86928 25.3861 8.85307 19.518C8.83591 13.669 13.63 8.86025 19.4958 8.84404C25.3434 8.82782 30.1509 13.6222 30.1671 19.4904C30.1842 25.3394 25.3902 30.1481 19.5244 30.1644ZM27.8825 19.518C27.8959 14.9172 24.1211 11.1345 19.5148 11.1297C14.9258 11.1259 11.1691 14.8666 11.1386 19.4713C11.108 24.0645 14.8733 27.8558 19.4881 27.8778C24.0839 27.8997 27.8701 24.1284 27.8835 19.5171L27.8825 19.518Z" fill="#F0F0F0"/>
<path d="M30.4244 11.3548C27.6746 11.3586 26.2777 7.92204 28.2085 5.98921C30.1384 4.05637 33.5718 5.46094 33.5737 8.2062C33.5747 9.91686 32.1387 11.3529 30.4244 11.3548ZM31.2816 8.20048C31.2768 7.74945 30.8773 7.35087 30.4263 7.34896C29.6626 7.34515 29.3107 8.28248 29.8323 8.80121C30.3529 9.31899 31.2892 8.96427 31.2816 8.20048Z" fill="#F0F0F0"/>
</g>
<defs>
<clipPath id="clip0_145_1174">
<rect width="39" height="39" fill="white"/>
</clipPath>
</defs>
</svg>
