<svg width="32" height="32" viewBox="0 0 32 32" fill="none" xmlns="http://www.w3.org/2000/svg">
<path d="M28.1905 0H3.80952C1.70667 0 0 1.70667 0 3.80952V28.1905C0 30.2933 1.70667 32 3.80952 32H28.1905C30.2933 32 32 30.2933 32 28.1905V3.80952C32 1.70667 30.2933 0 28.1905 0ZM9.90476 12.1905V26.6667H5.33333V12.1905H9.90476ZM5.33333 7.97714C5.33333 6.91048 6.24762 6.09524 7.61905 6.09524C8.99048 6.09524 9.85143 6.91048 9.90476 7.97714C9.90476 9.04381 9.05143 9.90476 7.61905 9.90476C6.18667 9.90476 5.33333 9.04381 5.33333 7.97714ZM26.6667 26.6667H22.0952V19.0476C22.0952 17.5238 21.3333 16 19.4286 15.9695H19.3676C17.5238 15.9695 16.7619 17.539 16.7619 19.0476V26.6667H12.1905V12.1905H16.7619V14.141C16.7619 14.141 18.2324 12.1905 21.1886 12.1905C24.1448 12.1905 26.6667 14.2705 26.6667 18.4838V26.6667Z" fill="#0E103D"/>
</svg>
