<svg width="38" height="39" viewBox="0 0 38 39" fill="none" xmlns="http://www.w3.org/2000/svg">
<path d="M0.0188119 39.0002C4.92334 33.2135 10.0576 27.5923 14.8332 21.7006C9.89639 14.5066 4.96365 7.31661 0 0.0835762C2.27489 -0.0886389 4.61294 0.0607039 6.8959 0.058013C8.12673 0.058013 9.35891 0.0324499 10.5897 0.0526313C11.7238 0.0714673 12.1202 1.22719 12.7141 2.0923C15.5171 6.18376 18.2556 10.3344 21.1459 14.3653C23.6882 11.4134 26.2264 8.45888 28.7634 5.50297C30.0332 4.023 31.303 2.54168 32.5714 1.05901C33.1358 0.399752 33.3938 0.0593585 34.2954 0.0566676C35.1298 0.0539767 35.9629 0.0566676 36.7974 0.0566676C32.042 5.59177 27.3431 11.0609 22.6374 16.5395C25.1206 20.3283 27.761 24.0215 30.3234 27.7577C31.6268 29.6588 32.9315 31.5586 34.2349 33.4597C35.49 35.2895 36.8807 37.0829 38 38.9988H26.682C25.1595 36.39 23.2407 33.9494 21.5315 31.459C19.8183 28.9619 18.2395 26.2414 16.3153 23.9044C11.9308 28.8744 7.66719 33.9588 3.36195 38.9988H0.0188119V39.0002ZM33.4126 36.5582C33.293 36.3806 33.2178 36.2649 33.1385 36.1519C31.088 33.2148 29.0375 30.2764 26.9856 27.3393C21.3179 19.2223 15.6488 11.1067 9.9918 2.98432C9.7768 2.67622 9.55912 2.56724 9.19095 2.57397C7.78678 2.59549 6.38126 2.58204 4.97709 2.58339C4.8575 2.58339 4.73925 2.5955 4.57935 2.60491C4.66669 2.7408 4.72313 2.83633 4.78628 2.92782C12.5542 14.0559 20.3236 25.1812 28.0875 36.312C28.2272 36.5111 28.371 36.5878 28.6142 36.5865C30.0815 36.5743 31.5502 36.5811 33.0189 36.5797C33.1277 36.5797 33.2366 36.569 33.4139 36.5582H33.4126Z" fill="#F0F0F0"/>
</svg>
