<svg width="32" height="32" viewBox="0 0 32 32" fill="none" xmlns="http://www.w3.org/2000/svg">
<path d="M16 0C7.16 0 0 7.27211 0 16.2505C0 23.8612 5.16 30.2395 12.12 32C12.04 31.7833 12 31.526 12 31.2146V28.4384H9.98667C8.89333 28.4384 7.92 27.9645 7.45333 27.0707C6.93333 26.0821 6.84 24.5789 5.54667 23.6445C5.16 23.3331 5.45333 22.981 5.89333 23.0351C6.72 23.2653 7.4 23.8477 8.04 24.6873C8.68 25.5404 8.97333 25.73 10.1733 25.73C10.7467 25.73 11.6133 25.7029 12.4267 25.5675C12.8667 24.4435 13.6133 23.4008 14.5467 22.9132C9.21333 22.358 6.68 19.6631 6.68 16.0068C6.68 14.4359 7.33333 12.9056 8.46667 11.6327C8.09333 10.3597 7.64 7.75963 8.61333 6.77105C11.0133 6.77105 12.4667 8.35548 12.8133 8.77529C14.0133 8.35548 15.32 8.12527 16.6933 8.12527C18.0667 8.12527 19.3867 8.35548 20.5867 8.77529C20.9333 8.35548 22.3867 6.77105 24.7867 6.77105C25.76 7.75963 25.2933 10.3733 24.92 11.6327C26.04 12.9056 26.6933 14.4359 26.6933 16.0068C26.6933 19.6631 24.16 22.3445 18.84 22.9132C20.3067 23.6851 21.3733 25.8654 21.3733 27.5176V31.2146C21.3733 31.35 21.3467 31.4583 21.3333 31.5802C27.5733 29.3593 32.04 23.3466 32.04 16.2641C32 7.27211 24.84 0 16 0Z" fill="#0E103D"/>
</svg>
