<svg width="38" height="38" viewBox="0 0 38 38" fill="none" xmlns="http://www.w3.org/2000/svg">
<g clip-path="url(#clip0_218_50)">
<path d="M21.9982 37.7618C32.3599 36.104 39.4157 26.3603 37.7579 15.9987C36.1001 5.63702 26.3564 -1.41882 15.9948 0.238994C5.63316 1.8968 -1.42268 11.6405 0.235127 22.0021C1.89294 32.3637 11.6366 39.4196 21.9982 37.7618Z" fill="#FAA916"/>
<path d="M30.0124 16.5515C30.2104 16.6715 30.4685 16.5335 30.4685 16.3054C30.4685 14.9131 29.3462 13.7909 27.9599 13.7909C26.5737 13.7909 25.4514 14.9131 25.4514 16.2994C25.4514 16.5395 25.7095 16.6775 25.9075 16.5515C26.5016 16.1854 27.2098 15.9694 27.9599 15.9694C28.7101 15.9694 29.4183 16.1854 30.0124 16.5515Z" fill="#562912"/>
<path d="M12.0986 16.5515C12.2966 16.6715 12.5547 16.5335 12.5547 16.3054C12.5547 14.9131 11.4324 13.7909 10.0461 13.7909C8.65983 13.7909 7.5376 14.9131 7.5376 16.2994C7.5376 16.5395 7.79565 16.6775 7.99369 16.5515C8.58782 16.1854 9.29597 15.9694 10.0461 15.9694C10.7963 15.9694 11.5044 16.1854 12.0986 16.5515Z" fill="#562912"/>
<path d="M19.102 27.6538C15.9213 27.6538 12.7767 26.4235 10.4722 24.2811C10.0941 23.933 10.0761 23.3449 10.4242 22.9668C10.7722 22.5887 11.3604 22.5707 11.7384 22.9188C13.7068 24.7432 16.3894 25.7934 19.108 25.7934C21.8266 25.7934 24.3411 24.8092 26.2855 23.0928C26.6696 22.7508 27.2577 22.7868 27.5998 23.1708C27.9418 23.5549 27.9058 24.143 27.5218 24.4851C25.2113 26.5315 22.2226 27.6538 19.114 27.6538H19.102Z" fill="#562912"/>
</g>
<defs>
<clipPath id="clip0_218_50">
<rect width="38" height="38" fill="white"/>
</clipPath>
</defs>
</svg>
