<svg width="38" height="38" viewBox="0 0 38 38" fill="none" xmlns="http://www.w3.org/2000/svg">
<g clip-path="url(#clip0_218_56)">
<path d="M38 19C38 29.4962 29.4962 38 19 38C8.50379 38 0 29.4962 0 19C0 8.50379 8.50379 0 19 0C29.4962 0 38 8.50379 38 19Z" fill="#FAA916"/>
<path d="M31.5607 16.5515C31.7588 16.6715 32.0168 16.5335 32.0168 16.3054C32.0168 14.9131 30.8946 13.7909 29.5083 13.7909C28.122 13.7909 26.9998 14.9131 26.9998 16.2994C26.9998 16.5395 27.2578 16.6775 27.4559 16.5515C28.05 16.1854 28.7581 15.9694 29.5083 15.9694C30.2584 15.9694 30.9666 16.1794 31.5607 16.5515Z" fill="#562912"/>
<path d="M10.5442 16.5515C10.7423 16.6715 11.0003 16.5335 11.0003 16.3054C11.0003 14.9131 9.8781 13.7909 8.4918 13.7909C7.10551 13.7909 5.98328 14.9131 5.98328 16.2994C5.98328 16.5395 6.24133 16.6775 6.43937 16.5515C7.0335 16.1854 7.73564 15.9694 8.4918 15.9694C9.24796 15.9694 9.95011 16.1794 10.5442 16.5515Z" fill="#562912"/>
<path d="M9.284 21.8806C8.67787 22.0846 8.3298 22.7447 8.56985 23.3449C9.98615 26.9276 14.133 29.9403 19 29.9403C23.8671 29.9403 28.0139 26.9216 29.4302 23.3449C29.6643 22.7507 29.3222 22.0846 28.7161 21.8806C22.8469 19.8941 15.1532 19.8941 9.284 21.8806Z" fill="#562912"/>
<path d="M13.7729 28.7161C15.3273 29.4842 17.1097 29.9403 19 29.9403C20.8904 29.9403 22.6668 29.4782 24.2271 28.7161C22.7868 27.6298 20.9745 26.9817 19 26.9817C17.0256 26.9817 15.2133 27.6358 13.7729 28.7161Z" fill="#CC342F"/>
</g>
<defs>
<clipPath id="clip0_218_56">
<rect width="38" height="38" fill="white"/>
</clipPath>
</defs>
</svg>
