<svg width="38" height="38" viewBox="0 0 38 38" fill="none" xmlns="http://www.w3.org/2000/svg">
<g clip-path="url(#clip0_218_17)">
<path d="M37.7911 21.8149C39.3457 11.4373 32.1933 1.76429 21.8157 0.20964C11.4381 -1.34501 1.76509 5.80742 0.210446 16.185C-1.3442 26.5626 5.80822 36.2356 16.1858 37.7903C26.5634 39.3449 36.2364 32.1925 37.7911 21.8149Z" fill="#FAA916"/>
<path d="M25.6494 29.9404C26.2255 30.0304 26.6216 29.3582 26.2435 28.9141C24.5571 26.9637 21.9406 25.7095 19 25.7095C16.0594 25.7095 13.4428 26.9637 11.7625 28.9141C11.3784 29.3582 11.7745 30.0364 12.3506 29.9404C14.349 29.6163 16.6055 29.4363 19 29.4363C21.3945 29.4363 23.657 29.6163 25.6494 29.9404Z" fill="#8D4D21"/>
<path d="M25.9974 20.0442C25.8654 19.9722 25.7093 20.0922 25.7393 20.2422C25.9674 21.3825 27.0896 22.2466 28.4519 22.2466C29.8142 22.2466 30.9364 21.3825 31.1645 20.2422C31.1945 20.0922 31.0325 19.9722 30.9064 20.0442C30.2043 20.4403 29.3641 20.6683 28.4519 20.6683C27.5397 20.6683 26.6995 20.4403 25.9974 20.0442Z" fill="#562912"/>
<path d="M7.09945 20.0442C6.96742 19.9722 6.81139 20.0922 6.84139 20.2422C7.06944 21.3825 8.19168 22.2466 9.55397 22.2466C10.9163 22.2466 12.0385 21.3825 12.2665 20.2422C12.2965 20.0922 12.1405 19.9722 12.0085 20.0442C11.3063 20.4403 10.4662 20.6683 9.55397 20.6683C8.64177 20.6683 7.8016 20.4403 7.09945 20.0442Z" fill="#562912"/>
<path d="M5.95321 16.9835C5.84518 16.9835 5.73716 16.9535 5.63514 16.8995C5.34108 16.7254 5.24506 16.3474 5.41909 16.0533C6.45731 14.3009 8.35371 13.1187 10.1721 13.1667C10.5142 13.1667 10.7902 13.4548 10.7842 13.7968C10.7842 14.1329 10.5022 14.409 10.1661 14.409C10.1481 14.409 10.1241 14.409 10.1061 14.409C8.74379 14.409 7.29749 15.3211 6.48732 16.6894C6.3733 16.8875 6.16325 16.9955 5.95321 16.9955V16.9835Z" fill="#562912"/>
<path d="M32.0527 16.9835C31.8427 16.9835 31.6326 16.8755 31.5186 16.6775C30.7084 15.3092 29.2561 14.397 27.8938 14.397C27.8758 14.397 27.8578 14.397 27.8338 14.397C27.4978 14.397 27.2217 14.1269 27.2157 13.7849C27.2157 13.4428 27.4858 13.1607 27.8278 13.1547C29.6102 13.1187 31.5426 14.283 32.5808 16.0414C32.7549 16.3354 32.6588 16.7135 32.3648 16.8875C32.2688 16.9475 32.1547 16.9715 32.0467 16.9715L32.0527 16.9835Z" fill="#562912"/>
<path d="M33.5591 26.1355C34.9874 26.9577 36.1156 28.0919 36.6678 29.6883C37.1959 31.2186 36.8838 33.121 35.5995 34.1052C34.4533 34.9814 32.7849 34.9334 31.5007 34.2732C29.4122 33.193 28.0259 30.6365 27.1858 28.53C26.5016 26.8076 25.5414 25.6074 24.1551 24.5812C23.8371 24.3471 24.0171 23.849 24.4072 23.885C27.3118 24.1671 30.9426 24.6232 33.5591 26.1295V26.1355Z" fill="#61C0EB"/>
</g>
<defs>
<clipPath id="clip0_218_17">
<rect width="38" height="38" fill="white"/>
</clipPath>
</defs>
</svg>
