<svg width="491" height="574" viewBox="0 0 491 574" fill="none" xmlns="http://www.w3.org/2000/svg">
<g clip-path="url(#clip0_106_5)">
<path d="M490.189 333.901C490.657 333.527 490.969 332.966 490.969 332.186C491.717 273.362 479.712 218.434 450.618 166.935C422.242 116.714 380.583 73.3204 330.316 44.7654C283.73 18.299 227.913 2.83688 174.466 13.7477C150.081 18.7354 126.133 30.1762 109.7 49.3168C89.7432 72.5411 76.9895 106.707 70.0982 136.166C62.1466 170.177 63.8305 203.19 73.8089 236.514C83.3819 268.561 98.8173 310.365 70.1605 337.205C50.8274 355.286 27.3781 364.95 12.8783 388.392C-0.935596 410.681 -3.46138 438.114 4.4278 462.96C22.8567 521.005 83.9432 552.272 140.508 561.032C173.531 566.144 207.145 565.677 240.479 565.116C274.687 564.523 309.206 562.965 342.696 555.421C374.003 548.406 405.653 535.469 429.196 513.056C448.498 494.663 459.817 470.472 468.548 445.689C480.959 410.494 491.187 374.426 490.314 336.769C490.314 335.802 490.22 334.836 490.189 333.87V333.901Z" fill="#8B5CF6"/>
<path d="M211.854 287.109L179.549 289.042L141.506 574H359.067V272.333L329.475 261.64L325.234 262.825L211.854 287.109Z" fill="#F8FA90"/>
<path d="M363.463 189.847C363.463 189.847 340.139 207.71 332.218 228.565C324.267 249.42 295.298 262.981 272.067 261.64C248.836 260.3 233.027 265.163 211.854 276.354C190.681 287.546 179.331 257.245 154.509 258.305C129.688 259.333 115.937 264.29 115.937 264.29C115.937 264.29 158.532 213.009 149.084 182.085C139.635 151.161 149.084 136.852 149.084 136.852C149.084 136.852 233.931 79.6799 260.748 102.499C287.565 125.318 340.856 193.994 363.495 189.847H363.463Z" fill="#36302F"/>
<path d="M206.646 287.109C206.646 287.109 164.207 273.393 149.052 308.993C134.459 343.222 125.603 404.478 125.603 404.478L184.476 408.936L206.678 287.109H206.646Z" fill="#F8FA90"/>
<path d="M272.067 201.787C278.959 212.355 280.05 259.084 325.234 262.825C325.234 262.825 269.386 358.559 254.325 359.494C239.263 360.43 211.854 287.109 211.854 287.109C211.854 287.109 244.284 287.982 226.26 237.948C212.852 200.727 272.067 201.787 272.067 201.787Z" fill="#FEB8B0"/>
<path d="M267.889 227.848L226.978 240.068C229.16 246.49 230.501 252.039 231.156 256.808C253.701 252.351 267.889 227.848 267.889 227.848Z" fill="#3A2D2E"/>
<path d="M291.245 151.691C298.51 200.415 265.675 245.555 224.639 251.665C183.634 257.775 149.957 222.549 142.691 173.824C135.426 125.1 162.773 80.6774 203.809 74.5362C244.814 68.4262 283.979 102.935 291.245 151.66V151.691Z" fill="#FEB8B0"/>
<path d="M329.475 261.64C329.475 261.64 355.2 237.2 377.309 248.049C401.724 260.019 401.693 276.635 401.725 323.395C401.725 388.081 382.672 519.82 371.976 531.853C361.281 543.886 183.166 518.48 184.507 513.118C185.848 507.756 193.893 482.318 193.893 482.318C193.893 482.318 321.274 482.318 325.889 468.945C330.472 455.571 319.777 267.719 329.537 261.64H329.475Z" fill="#FEB8B0"/>
<path d="M401.506 335.491L335.493 350.672L326.325 394.471L398.107 386.148C399.822 367.942 401.039 350.485 401.475 335.491H401.506Z" fill="#EA9898"/>
<path d="M407.743 325.297C407.743 287.733 401.725 260.051 377.309 248.08C355.2 237.231 329.475 261.672 329.475 261.672C323.55 265.381 325.172 336.457 326.357 394.502L407.743 372.806C409.146 355.192 407.743 338.795 407.743 325.328V325.297Z" fill="#F8FA90"/>
<path d="M292.118 170.645C292.118 170.645 241.103 153.748 229.348 113.877C217.592 74.0063 267.203 55.115 292.118 85.9769C317.033 116.839 323.987 167.652 350.897 177.596C377.808 187.541 391.466 177.596 391.466 177.596C391.466 177.596 361.873 239.351 292.149 170.613L292.118 170.645Z" fill="#36302F"/>
<path d="M308.894 176.505C310.079 189.629 303.437 200.977 294.082 201.818C284.728 202.66 276.184 192.684 274.999 179.56C273.814 166.436 280.456 155.089 289.81 154.247C299.165 153.406 307.709 163.381 308.894 176.505Z" fill="#FEB8B0"/>
<path d="M189.777 481.726C182.916 481.072 176.555 482.911 169.664 480.479C163.583 478.328 159.218 473.341 154.416 469.319C150.424 465.952 146.558 462.742 142.878 459.032C141.007 457.161 138.762 454.761 135.8 455.26C122.952 457.473 135.051 484.688 137.827 489.582C142.099 497.126 150.144 500.555 157.721 504.047C165.766 507.756 185.723 514.614 186.409 514.022C192.988 508.504 197.354 500.836 197.448 492.076C197.51 486.527 195.608 482.287 189.777 481.726Z" fill="#FEB8B0"/>
<path d="M135.8 455.26C135.8 455.26 135.925 458.658 138.263 463.084C140.571 467.511 146.87 481.009 156.131 486.278C161.214 489.177 170.132 489.987 171.535 489.52C172.938 489.083 168.978 480.697 168.978 480.697L135.831 455.26H135.8Z" fill="#36302F"/>
<path d="M206.272 272.239L171.816 267.938C171.816 267.938 122.391 430.757 137.297 457.785C152.171 484.844 165.735 489.925 175.121 486.122C184.507 482.319 197.011 462.897 199.724 449.368C202.437 435.839 206.272 272.208 206.272 272.208V272.239Z" fill="#FEB8B0"/>
<path d="M219.244 305.47C228.443 327.136 244.159 360.149 254.293 359.525C263.274 358.964 286.785 324.673 304.279 297.085C257.1 315.758 230.844 310.458 219.244 305.47Z" fill="#FEFEFE"/>
<path d="M327.759 339.138C327.697 322.647 327.853 306.063 326.2 289.665C326.107 288.824 324.984 288.824 324.891 289.665C323.238 306.094 323.394 322.647 323.332 339.138C323.269 353.478 321.585 368.909 324.173 383.03C324.423 384.371 326.637 384.371 326.886 383.03C329.474 368.878 327.791 353.478 327.728 339.138H327.759Z" fill="#F9F9E5"/>
<path d="M322.147 384.901C312.698 377.419 305.807 368.348 298.666 358.777C298.011 357.904 296.702 358.621 297.17 359.65C302.377 370.748 309.549 380.942 319.777 387.987C321.585 389.234 323.893 386.304 322.147 384.932V384.901Z" fill="#F9F9E5"/>
<path d="M253.545 78.4015C253.545 78.4015 233.557 104.276 194.891 115.186C156.224 126.097 141.163 159.578 144.313 184.392C144.313 184.392 62.4898 111.882 170.506 63.5005C251.425 27.2456 253.514 78.4015 253.514 78.4015H253.545Z" fill="#36302F"/>
<path d="M170.537 63.5008C104.149 93.2404 109.45 132.052 123.42 157.583C126.382 144.334 130.748 131.366 136.548 119.083C141.256 109.077 146.963 99.3816 154.883 91.6506C163.521 83.2025 174.435 77.4978 185.317 72.2606C196.948 66.6805 208.922 61.4433 221.645 59.23C229.16 57.9207 236.987 57.7649 244.471 59.1365C234.554 49.7221 213.849 44.0796 170.537 63.4696V63.5008Z" fill="#514A47"/>
<path d="M160.34 456.818C160.34 456.818 155.975 457.286 155.039 460.995C152.826 469.88 167.793 476.894 168.947 480.697C170.101 484.5 168.947 494.289 174.466 493.385C178.52 492.699 173.749 469.288 173.749 469.288L160.684 457.535" fill="#36302F"/>
<path d="M198.227 489.426C198.789 483.035 194.423 478.297 189.777 474.369C184.382 469.818 178.302 465.485 172.439 461.619C169.103 459.406 161.837 454.605 157.752 457.972C154.728 460.466 156.38 464.799 158.376 467.324C161.058 470.722 165.267 472.405 168.23 475.491C173.063 480.573 171.099 484.438 172.19 490.018C172.907 493.666 175.901 494.289 179.206 494.632C183.353 495.068 196.886 495.723 198.04 489.707C198.134 489.644 198.196 489.551 198.196 489.395L198.227 489.426Z" fill="#FEB8B0"/>
<path d="M197.916 485.498C196.855 481.04 193.394 477.455 189.777 474.4C184.382 469.849 178.302 465.516 172.439 461.65C169.103 459.437 161.837 454.636 157.752 458.003C156.786 458.782 156.349 459.78 156.193 460.809C158.002 459.624 160.684 458.471 163.708 459.344C168.604 460.715 188.561 474.338 197.884 485.498H197.916Z" fill="#FFD1CA"/>
<path d="M179.549 201.787C182.339 201.787 184.6 199.526 184.6 196.737C184.6 193.948 182.339 191.687 179.549 191.687C176.759 191.687 174.497 193.948 174.497 196.737C174.497 199.526 176.759 201.787 179.549 201.787Z" fill="#36302F"/>
<path d="M229.659 183.083C232.449 183.083 234.711 180.822 234.711 178.033C234.711 175.243 232.449 172.982 229.659 172.982C226.87 172.982 224.608 175.243 224.608 178.033C224.608 180.822 226.87 183.083 229.659 183.083Z" fill="#36302F"/>
<path d="M234.368 148.137C230.564 149.29 227.29 151.816 223.205 152.19C219.307 152.533 215.69 151.691 212.26 149.883C210.295 148.854 208.268 151.348 209.859 152.969C217.124 160.419 228.319 155.712 236.052 152.19C238.359 151.161 236.707 147.42 234.337 148.137H234.368Z" fill="#36302F"/>
<path d="M172.627 168.306C172.159 166.685 169.945 166.779 169.446 168.306C168.199 172.11 167.856 175.757 165.205 178.937C162.43 182.272 159 183.207 155.008 184.174C153.356 184.579 153.231 187.322 155.008 187.665C164.924 189.411 175.402 178.126 172.658 168.306H172.627Z" fill="#36302F"/>
<path d="M204.776 200.509C199.943 200.509 198.976 197.703 198.758 193.463C198.633 191.312 198.196 189.536 197.292 187.54C194.922 182.334 191.056 178.407 186.939 174.541C186.503 174.136 185.91 174.759 186.285 175.196C189.278 178.687 192.958 182.522 194.267 187.073C195.39 191.032 193.893 194.648 194.454 198.545C195.203 203.907 200.067 205.029 204.776 205.029C207.707 205.029 207.738 200.446 204.776 200.446V200.509Z" fill="#36302F"/>
<path d="M238.234 210.173C234.274 200.353 221.864 209.798 216.531 212.292C211.979 214.412 202.718 215.721 205.649 222.33C205.929 223.64 206.647 224.824 207.894 225.728C211.511 228.316 214.692 226.196 217.467 223.702C222.581 219.119 228.693 220.927 234.524 218.153C237.611 216.657 239.638 213.602 238.234 210.173Z" fill="white"/>
<path d="M242.694 172.889C242.288 172.047 240.885 172.64 241.166 173.512C241.914 175.819 242.257 178.251 242.257 180.651C242.257 181.805 242.008 187.572 239.887 187.603C239.638 187.603 239.388 187.603 239.139 187.79C238.391 188.32 238.172 189.598 239.139 190.066C242.226 191.562 244.253 186.2 244.565 184.049C245.126 180.277 244.222 176.287 242.631 172.858L242.694 172.889Z" fill="#EA9898"/>
<path d="M249.46 178.438C249.086 177.471 247.558 177.846 247.87 178.874C248.275 180.246 248.525 181.649 248.525 183.114C248.525 184.61 248.057 185.795 247.683 187.198C247.433 188.133 248.712 188.975 249.398 188.195C251.612 185.67 250.583 181.212 249.46 178.438Z" fill="#EA9898"/>
<path d="M181.607 210.734C178.863 210.547 176.275 210.391 173.812 209.05C171.566 207.803 169.695 205.933 168.043 203.969C167.7 203.564 167.014 204.094 167.294 204.53C170.506 209.799 175.246 213.009 181.607 212.822C182.948 212.791 182.948 210.827 181.607 210.734Z" fill="#EA9898"/>
<path d="M177.335 216.688C176.556 216.501 175.932 216.781 175.152 216.813C174.154 216.813 173.094 216.501 172.19 216.127C170.319 215.379 168.386 214.256 166.92 212.885C166.234 212.23 165.392 213.196 165.922 213.882C167.481 215.908 169.633 217.436 172.003 218.402C173.687 219.088 176.743 220.023 177.959 218.153C178.302 217.623 177.959 216.844 177.366 216.719L177.335 216.688Z" fill="#EA9898"/>
<path d="M228.786 236.826C228.443 236.452 227.882 236.358 227.508 236.047C226.978 235.61 226.603 234.987 226.26 234.426C225.013 232.212 224.202 229.594 223.828 227.069C223.703 226.102 222.207 226.383 222.175 227.287C222.082 231.402 222.955 237.605 227.352 239.289C227.788 239.476 228.474 239.289 228.786 238.915C229.316 238.291 229.41 237.481 228.786 236.826Z" fill="#EA9898"/>
<path d="M236.644 232.244C236.301 232.025 235.927 231.994 235.553 231.87C234.96 231.62 234.399 231.153 233.9 230.747C232.965 229.968 231.998 229.095 231.406 227.973C231.031 227.225 229.846 227.755 230.065 228.534C230.564 230.217 234.586 236.421 236.862 233.896C237.33 233.366 237.237 232.618 236.644 232.244Z" fill="#EA9898"/>
<path d="M212.976 252.631V248.61C212.976 248.61 218.028 236.327 212.976 231.028C207.925 225.728 199.848 227.599 199.848 227.599C199.848 227.599 196.605 218.933 188.217 223.203C188.217 223.203 180.453 214.818 173.094 222.019C173.094 222.019 165.922 216.096 161.338 221.925L174.933 245.274L212.976 252.631Z" fill="#EA9898"/>
<path d="M212.976 252.631C212.446 251.291 211.729 250.137 210.856 249.077C213.694 243.747 215.627 235.486 210.513 231.215C207.239 228.503 203.123 228.409 198.82 229.5C198.04 225.354 193.893 224.139 189.434 224.762C188.342 224.918 187.282 225.136 186.253 225.417C183.509 220.865 177.491 221.458 171.597 224.139C164.207 217.28 147.493 225.479 145.84 234.613C144.406 242.5 146.339 253.286 151.703 259.396C156.63 265.007 163.864 268.249 170.662 271.46C170.662 271.99 170.911 272.52 171.566 272.707C179.673 275.419 190.213 275.326 198.695 275.575C204.339 275.731 208.455 274.141 211.293 269.06C213.881 264.446 214.91 257.65 212.945 252.6L212.976 252.631Z" fill="#FEB8B0"/>
<path d="M170.443 224.263C166.857 224.606 162.679 227.755 160.153 230.217C157.128 233.179 155.538 236.889 155.881 241.159C156.006 242.718 158.438 242.718 158.313 241.159C158.001 237.044 159.716 233.834 162.803 231.184C165.267 229.064 168.853 227.942 171.004 225.604C171.41 225.136 171.16 224.201 170.443 224.263Z" fill="#36302F"/>
<path d="M186.066 225.011C177.366 225.947 172.72 235.361 172.501 243.186C172.47 244.744 174.871 244.744 174.902 243.186C174.965 239.538 175.807 236.016 177.896 232.992C180.11 229.75 183.197 228.347 186.44 226.508C187.095 226.134 186.845 224.949 186.034 225.043L186.066 225.011Z" fill="#36302F"/>
<path d="M197.198 229.781C193.861 231.464 191.46 234.052 190.026 237.481C188.872 240.193 187.718 244.027 188.467 246.958C188.685 247.893 190.057 247.83 190.306 246.958C191.023 244.37 190.868 241.689 191.803 239.102C192.988 235.829 195.14 233.116 198.195 231.402C199.256 230.778 198.32 229.22 197.229 229.75L197.198 229.781Z" fill="#36302F"/>
<path d="M211.23 246.459C211.167 245.555 209.889 245.087 209.421 245.96C208.953 246.833 208.829 247.737 208.236 248.454C207.581 247.051 206.646 245.773 205.43 244.931C204.588 244.37 203.652 245.617 204.37 246.303C206.272 248.142 206.739 251.665 206.584 254.346C206.584 254.346 206.552 254.408 206.521 254.439C205.866 255.53 206.958 256.684 208.08 256.465C208.174 256.465 208.236 256.434 208.33 256.403C208.985 256.278 209.296 255.655 209.359 255.031C209.515 253.504 209.359 251.758 208.86 250.137C210.201 249.389 211.323 248.049 211.23 246.459Z" fill="#36302F"/>
<path d="M112.163 180.589C112.163 180.589 73.2475 186.574 79.1099 205.497C84.941 224.388 93.7968 191.219 112.163 180.589Z" fill="#FEFEFE"/>
<path d="M92.1754 151.909C92.1754 151.909 45.7758 132.862 40.4436 159.671C35.1426 186.418 65.3896 152.377 92.1754 151.909Z" fill="#FEFEFE"/>
<path d="M104.711 109.513C104.711 109.513 88.8075 77.3418 72.0625 93.0221C55.3798 108.671 89.6494 98.6022 104.711 109.513Z" fill="#FEFEFE"/>
<path d="M328.477 115.155C328.477 115.155 361.156 93.2092 369.669 111.103C378.15 128.934 349.213 110.542 328.477 115.155Z" fill="#FEFEFE"/>
<path d="M300.288 64.5294C300.288 64.5294 312.917 15.9921 337.551 27.838C362.123 39.6528 316.721 43.3937 300.288 64.5294Z" fill="#FEFEFE"/>
<path d="M240.636 37.6889C240.636 37.6889 220.398 8.04281 242.319 1.15344C264.178 -5.70476 238.546 19.203 240.636 37.6889Z" fill="#FEFEFE"/>
</g>
<defs>
<clipPath id="clip0_106_5">
<rect width="491" height="574" fill="white"/>
</clipPath>
</defs>
</svg>
