<svg width="1176" height="1176" viewBox="0 0 1176 1176" fill="none" xmlns="http://www.w3.org/2000/svg">
<path d="M587.981 1176C263.786 1176 0 912.214 0 587.981C0 263.748 263.786 0 587.981 0C912.176 0 1175.96 263.786 1175.96 587.981C1175.96 912.176 912.176 1175.96 587.981 1175.96V1176ZM587.981 15.0929C272.087 15.0929 15.0929 272.087 15.0929 587.981C15.0929 903.875 272.087 1160.87 587.981 1160.87C903.875 1160.87 1160.87 903.875 1160.87 587.981C1160.87 272.087 903.913 15.0929 587.981 15.0929Z" fill="#DEDFF0"/>
<g clip-path="url(#clip0_464_4)">
<path d="M587.982 1135C285.265 1135 39 888.735 39 585.982C39 283.229 285.265 37 587.982 37C890.7 37 1136.96 283.265 1136.96 585.982C1136.96 888.7 890.7 1134.96 587.982 1134.96V1135ZM587.982 40.5572C287.257 40.5572 42.5572 285.257 42.5572 585.982C42.5572 886.708 287.257 1131.41 587.982 1131.41C888.708 1131.41 1133.41 886.708 1133.41 585.982C1133.41 285.257 888.743 40.5572 587.982 40.5572Z" fill="#DEDFF0"/>
</g>
<defs>
<clipPath id="clip0_464_4">
<rect width="1098" height="1098" fill="white" transform="translate(39 37)"/>
</clipPath>
</defs>
</svg>
