<svg width="1378" height="662" viewBox="0 0 1378 662" fill="none" xmlns="http://www.w3.org/2000/svg">
<g clip-path="url(#clip0_463_3)">
<path d="M1067.63 141.01C1103.05 133.967 1126.05 99.5459 1119.01 64.129C1111.97 28.712 1077.54 5.71058 1042.13 12.7538C1006.71 19.797 983.71 54.2177 990.753 89.6346C997.796 125.052 1032.22 148.053 1067.63 141.01Z" fill="#E7E3DA"/>
<path d="M1064.44 39.0422L1031.58 45.5774C1021.56 47.57 1015.05 57.308 1017.04 67.3277L1023.58 100.19C1025.57 110.21 1035.31 116.717 1045.33 114.725L1078.19 108.189C1088.21 106.197 1094.72 96.4589 1092.72 86.4391L1086.19 53.5768C1084.2 43.557 1074.46 37.0497 1064.44 39.0422Z" fill="#E36588"/>
<path d="M1035.6 86.1181C1035.52 83.6995 1033.49 81.8081 1031.07 81.8938C1028.65 81.9794 1026.76 84.0095 1026.85 86.4282C1026.93 88.8469 1028.96 90.7382 1031.38 90.6526C1033.8 90.567 1035.69 88.5368 1035.6 86.1181Z" fill="#EEB1C4"/>
<path d="M1083.98 78.9384C1085.32 76.9261 1084.78 74.2048 1082.77 72.8601C1080.76 71.5154 1078.04 72.0566 1076.69 74.0689C1075.35 76.0811 1075.89 78.8025 1077.9 80.1472C1079.91 81.4918 1082.63 80.9507 1083.98 78.9384Z" fill="#EEB1C4"/>
<path d="M1064.63 80.8318C1066.94 80.3734 1068.91 82.5028 1068.3 84.7703C1067.14 89.0486 1063.3 92.6321 1058.22 93.6435C1053.13 94.6549 1048.22 92.8107 1045.51 89.3017C1044.08 87.4421 1045.09 84.7191 1047.39 84.2606L1064.63 80.8318Z" fill="#333333"/>
<path d="M1036.46 76.8349C1036.03 76.6036 1035.62 76.353 1035.22 76.0775C1033.48 74.9011 1031.28 72.839 1031.55 70.5319C1031.76 68.7483 1033.63 67.8601 1035.23 67.651C1036.1 67.5377 1036.99 67.6212 1037.84 67.8414C1038.14 67.9201 1038.52 68.0088 1038.87 68.1476C1039.2 68.2771 1039.55 67.9999 1039.5 67.6465C1039.28 66.1858 1039.49 64.5747 1040.65 63.6116C1041.92 62.5626 1043.57 62.762 1044.84 63.6887C1046.88 65.1771 1047.21 67.7166 1046.96 70.0636C1046.78 71.7114 1046.45 73.3398 1046 74.9298C1045.75 75.7989 1045.57 76.7398 1045.11 77.5287C1044.31 78.9149 1042.73 78.9207 1041.34 78.5999C1039.67 78.2163 1037.99 77.6485 1036.46 76.8258L1036.46 76.8349Z" fill="#F47748"/>
<path d="M1071.88 69.7906C1072.19 69.4134 1072.48 69.0219 1072.75 68.6138C1073.9 66.8637 1075.15 64.1151 1074.01 62.0866C1073.14 60.5185 1071.07 60.4146 1069.51 60.8322C1068.66 61.0621 1067.87 61.4789 1067.17 62.0091C1066.92 62.1972 1066.6 62.4253 1066.33 62.6867C1066.08 62.9324 1065.65 62.8094 1065.56 62.4625C1065.21 61.03 1064.39 59.6229 1062.95 59.177C1061.38 58.6919 1059.93 59.5097 1059.11 60.8508C1057.8 63.0058 1058.47 65.4773 1059.6 67.5491C1060.4 69.0029 1061.32 70.3843 1062.34 71.6791C1062.91 72.3858 1063.43 73.1874 1064.16 73.7408C1065.43 74.7142 1066.89 74.1164 1068.06 73.2866C1069.45 72.2945 1070.78 71.1282 1071.88 69.7831L1071.88 69.7906Z" fill="#F47748"/>
</g>
<g clip-path="url(#clip1_463_3)">
<path d="M340.924 650.88C376.056 644.995 399.764 611.744 393.879 576.612C387.994 541.481 354.743 517.772 319.611 523.657C284.48 529.543 260.771 562.793 266.656 597.925C272.541 633.057 305.792 656.766 340.924 650.88Z" fill="#E7E3DA"/>
<path d="M340.824 550.245L308.226 555.706C298.287 557.371 291.579 566.778 293.244 576.717L298.705 609.314C300.37 619.253 309.777 625.961 319.716 624.296L352.314 618.835C362.253 617.17 368.961 607.763 367.296 597.824L361.835 565.226C360.17 555.287 350.763 548.58 340.824 550.245Z" fill="#51B688"/>
<path d="M314.673 587.692C316.249 587.428 317.165 585.061 316.72 582.405C316.275 579.748 314.637 577.809 313.061 578.073C311.486 578.337 310.569 580.704 311.014 583.36C311.459 586.017 313.097 587.956 314.673 587.692Z" fill="#333333"/>
<path d="M339.903 575.987C339.518 576.205 339.157 576.457 338.853 576.775C337.291 578.414 339.499 579.694 340.884 580.27C342.388 580.898 344.847 582.05 346.487 581.435C346.742 581.337 347.005 581.179 347.098 580.921C347.552 579.701 345.677 579.471 344.901 579.278C344.324 579.136 343.187 578.791 343.128 578.057C343.112 577.839 343.209 577.631 343.337 577.457C344.227 576.245 346.552 576.166 346.681 574.376C346.7 574.134 346.62 573.88 346.432 573.724C346.25 573.576 345.998 573.546 345.764 573.543C344.309 573.54 342.998 574.261 341.786 575C341.197 575.362 340.519 575.633 339.899 575.988L339.903 575.987Z" fill="#333333"/>
<path d="M326.524 601.513C331.017 601.083 335.601 599.465 339.042 596.478C339.996 595.651 340.856 594.72 341.594 593.695C341.929 593.231 342.251 592.743 342.524 592.243C342.732 591.859 343.203 590.484 343.838 591.104C344.418 591.67 343.586 593.332 343.337 593.926C341.796 597.615 338.479 600.403 334.81 601.846C332.831 602.624 330.743 603.097 328.63 603.302C327.63 603.398 326.624 603.434 325.616 603.454C324.764 603.47 323.848 603.559 323.058 603.16C322.668 602.962 322.602 602.514 322.856 602.178C323.158 601.775 323.778 601.667 324.248 601.63C325.004 601.576 325.761 601.581 326.515 601.51L326.524 601.513Z" fill="#333333"/>
</g>
<g clip-path="url(#clip2_463_3)">
<path d="M259.331 206.641C285.471 222.648 319.637 214.434 335.643 188.294C351.649 162.155 343.435 127.989 317.296 111.982C291.156 95.976 256.991 104.19 240.984 130.33C224.978 156.469 233.192 190.635 259.331 206.641Z" fill="#E7E3DA"/>
<path d="M316.066 141.223L291.812 126.371C284.417 121.843 274.752 124.167 270.223 131.562L255.371 155.816C250.843 163.211 253.167 172.877 260.562 177.405L284.816 192.257C292.211 196.786 301.877 194.462 306.405 187.067L321.257 162.813C325.785 155.418 323.461 145.752 316.066 141.223Z" fill="#51B688"/>
<path d="M278.209 150.963C279.431 151.711 281.445 150.647 282.707 148.585C283.969 146.524 284.002 144.247 282.78 143.499C281.558 142.751 279.545 143.815 278.282 145.876C277.02 147.937 276.987 150.215 278.209 150.963Z" fill="#333333"/>
<path d="M300.346 164.519C301.568 165.267 303.582 164.202 304.844 162.141C306.106 160.08 306.139 157.802 304.917 157.054C303.695 156.306 301.682 157.371 300.419 159.432C299.157 161.493 299.125 163.77 300.346 164.519Z" fill="#333333"/>
<path d="M293.978 167.125C295.981 168.352 295.992 171.256 294.001 172.504C290.246 174.858 284.998 174.889 280.577 172.181C276.155 169.474 273.798 164.785 274.187 160.371C274.393 158.03 276.982 156.718 278.988 157.946L293.981 167.127L293.978 167.125Z" fill="#333333"/>
</g>
<g clip-path="url(#clip3_463_3)">
<path d="M1079.12 583.172C1122.35 589.124 1162.22 558.906 1168.17 515.676C1174.13 472.447 1143.91 432.577 1100.68 426.624C1057.45 420.671 1017.58 450.89 1011.62 494.119C1005.67 537.349 1035.89 577.219 1079.12 583.172Z" fill="#E7E3DA"/>
<path d="M1115.77 465.462L1075.66 459.939C1063.43 458.255 1052.15 466.804 1050.46 479.034L1044.94 519.145C1043.25 531.375 1051.8 542.655 1064.03 544.339L1104.15 549.862C1116.38 551.547 1127.65 542.997 1129.34 530.767L1134.86 490.656C1136.55 478.426 1128 467.146 1115.77 465.462Z" fill="#F47748"/>
<path d="M1074.41 514.224C1076.96 514.575 1079.51 511.375 1080.11 507.075C1080.7 502.775 1079.11 499.005 1076.56 498.654C1074.01 498.302 1071.46 501.503 1070.86 505.802C1070.27 510.102 1071.86 513.872 1074.41 514.224Z" fill="white"/>
<path d="M1104.94 518.428C1107.49 518.779 1110.04 515.579 1110.64 511.279C1111.23 506.979 1109.64 503.209 1107.09 502.858C1104.54 502.506 1101.99 505.707 1101.39 510.007C1100.8 514.306 1102.39 518.077 1104.94 518.428Z" fill="white"/>
<path d="M1074.7 512.153C1076.57 512.411 1078.44 510.061 1078.87 506.905C1079.31 503.749 1078.14 500.982 1076.27 500.724C1074.4 500.467 1072.53 502.816 1072.1 505.972C1071.66 509.128 1072.83 511.895 1074.7 512.153Z" fill="#333333"/>
<path d="M1105.26 516.362C1107.14 516.62 1109 514.27 1109.44 511.114C1109.87 507.958 1108.71 505.191 1106.84 504.933C1104.97 504.676 1103.1 507.025 1102.66 510.181C1102.23 513.337 1103.39 516.104 1105.26 516.362Z" fill="#333333"/>
<path d="M1123.04 495.535C1122.52 499.306 1120.86 500.171 1118.79 499.886C1116.71 499.6 1115 498.27 1115.52 494.499C1116.04 490.729 1118.66 483.141 1120.73 483.427C1122.81 483.713 1123.56 491.765 1123.04 495.535Z" fill="white"/>
<path d="M1100.32 484.127C1099.92 487.063 1098.63 487.73 1097.01 487.508C1095.39 487.285 1094.06 486.251 1094.47 483.32C1094.87 480.389 1096.91 474.484 1098.53 474.707C1100.14 474.93 1100.73 481.191 1100.32 484.127Z" fill="white"/>
<path d="M1071.78 488.659C1071.38 491.584 1070.1 492.258 1068.48 492.036C1066.87 491.813 1065.54 490.785 1065.94 487.854C1066.35 484.923 1068.38 479.039 1069.99 479.261C1071.61 479.483 1072.19 485.728 1071.78 488.659Z" fill="white"/>
<path d="M1085.25 486.271C1084.97 488.286 1084.09 488.745 1082.98 488.593C1081.87 488.44 1080.95 487.733 1081.23 485.718C1081.51 483.703 1082.91 479.66 1084.01 479.812C1085.12 479.965 1085.52 484.261 1085.25 486.271Z" fill="white"/>
<path d="M1107.11 493.021C1106.84 495.036 1105.95 495.495 1104.85 495.342C1103.74 495.189 1102.82 494.483 1103.1 492.468C1103.38 490.453 1104.77 486.409 1105.88 486.562C1106.99 486.715 1107.39 491.011 1107.11 493.021Z" fill="white"/>
<path d="M1052.43 522.443C1052.24 522.417 1052.06 522.35 1051.89 522.234C1051.31 521.838 1051.17 521.051 1051.56 520.473L1055.83 514.242C1056.23 513.664 1057.02 513.519 1057.59 513.915C1058.17 514.31 1058.32 515.098 1057.92 515.676L1053.65 521.906C1053.37 522.313 1052.9 522.507 1052.43 522.443Z" fill="#B23425"/>
<path d="M1057.87 523.192C1057.68 523.166 1057.5 523.099 1057.33 522.983C1056.75 522.587 1056.61 521.8 1057 521.222L1061.27 514.991C1061.66 514.413 1062.45 514.267 1063.03 514.663C1063.61 515.059 1063.75 515.846 1063.36 516.424L1059.09 522.655C1058.81 523.063 1058.34 523.256 1057.87 523.192Z" fill="#B23425"/>
<path d="M1063.31 523.94C1063.12 523.915 1062.93 523.847 1062.77 523.731C1062.19 523.335 1062.04 522.548 1062.44 521.97L1066.71 515.74C1067.1 515.162 1067.89 515.016 1068.47 515.412C1069.05 515.808 1069.19 516.595 1068.8 517.173L1064.53 523.403C1064.25 523.811 1063.77 524.004 1063.31 523.94Z" fill="#B23425"/>
<path d="M1107.01 529.959C1106.82 529.933 1106.63 529.865 1106.47 529.749C1105.89 529.353 1105.75 528.566 1106.14 527.988L1110.41 521.758C1110.81 521.18 1111.59 521.034 1112.17 521.43C1112.75 521.826 1112.9 522.613 1112.5 523.191L1108.23 529.421C1107.95 529.829 1107.47 530.022 1107.01 529.959Z" fill="#B23425"/>
<path d="M1112.45 530.708C1112.26 530.682 1112.07 530.614 1111.91 530.498C1111.33 530.102 1111.18 529.315 1111.58 528.737L1115.85 522.507C1116.25 521.929 1117.03 521.783 1117.61 522.179C1118.19 522.575 1118.34 523.362 1117.94 523.94L1113.67 530.17C1113.39 530.578 1112.91 530.771 1112.45 530.708Z" fill="#B23425"/>
<path d="M1117.88 531.456C1117.7 531.43 1117.51 531.363 1117.34 531.247C1116.76 530.851 1116.62 530.063 1117.02 529.485L1121.28 523.255C1121.68 522.677 1122.47 522.531 1123.05 522.927C1123.62 523.323 1123.77 524.111 1123.37 524.689L1119.1 530.919C1118.83 531.326 1118.35 531.52 1117.88 531.456Z" fill="#B23425"/>
</g>
<g clip-path="url(#clip4_463_3)">
<path d="M92.9866 468.972C144.341 476.153 191.793 440.342 198.973 388.988C206.154 337.633 170.343 290.181 118.989 283.001C67.634 275.821 20.1822 311.631 13.0019 362.986C5.82171 414.34 41.6321 461.792 92.9866 468.972Z" fill="#E7E3DA"/>
<path d="M136.522 329.147L89.4765 322.569C74.7808 320.515 61.202 330.762 59.1473 345.458L52.5695 392.504C50.5148 407.199 60.7623 420.778 75.4579 422.833L122.504 429.411C137.199 431.465 150.778 421.218 152.833 406.522L159.411 359.476C161.465 344.781 151.218 331.202 136.522 329.147Z" fill="#107BC0"/>
<path d="M79.3624 356.912C79.512 357.297 79.8626 357.654 80.4745 357.906C85.513 359.997 96.0436 359.701 97.8068 353.217C98.0971 352.155 97.9095 349.442 96.1802 350.482C94.3639 351.571 92.9895 353.247 91.1222 354.304C89.2893 355.336 87.2569 355.767 85.1696 355.401C83.8163 355.162 82.3776 354.653 80.9894 354.884C79.7402 355.092 79.0431 356.067 79.3684 356.913L79.3624 356.912Z" fill="#333333"/>
<path d="M136.539 364.907C136.29 365.235 135.855 365.483 135.197 365.557C129.778 366.186 119.733 363.013 119.816 356.295C119.828 355.193 120.752 352.636 122.13 354.11C123.578 355.656 124.44 357.644 125.946 359.173C127.425 360.668 129.262 361.64 131.369 361.86C132.736 362.002 134.259 361.907 135.531 362.51C136.675 363.052 137.078 364.181 136.533 364.906L136.539 364.907Z" fill="#333333"/>
<path d="M93.4335 366.953C94.5471 367.275 95.4858 368.01 96.3891 368.735C97.5702 369.676 98.798 370.68 99.4055 372.065C99.6862 372.702 99.7785 373.541 99.268 374.018C98.9272 374.34 98.4154 374.386 97.9493 374.37C94.7517 374.231 91.966 371.543 88.7766 371.83C87.4037 371.952 79.9594 374.461 82.5575 370.689C84.3744 368.053 90.5239 366.121 93.4266 366.958L93.4335 366.953Z" fill="#333333"/>
<path d="M120.254 370.703C119.094 370.707 117.99 371.157 116.923 371.606C115.529 372.187 114.073 372.816 113.109 373.981C112.664 374.517 112.345 375.298 112.705 375.897C112.945 376.3 113.424 376.484 113.877 376.597C116.99 377.34 120.406 375.519 123.394 376.67C124.681 377.165 131.152 381.619 129.688 377.279C128.664 374.246 123.28 370.701 120.259 370.71L120.254 370.703Z" fill="#333333"/>
<path d="M87.0737 397.1C87.6413 390.881 93.7993 387.169 98.7659 384.53C101.01 383.333 103.402 381.696 106.066 381.686C109.069 381.675 111.175 384.151 112.716 386.443C114.303 388.803 115.718 391.288 116.916 393.871C118.176 396.58 119.146 399.958 117.43 402.405C116.105 404.302 113.524 404.952 111.226 404.68C108.929 404.408 106.797 403.389 104.648 402.54C103.007 401.892 101.212 401.413 99.4108 401.383C98.4941 401.372 97.5803 401.472 96.6971 401.706C95.7889 401.942 94.9581 402.375 94.0368 402.573C92.4479 402.917 90.6605 402.698 89.2449 401.847C87.8009 400.98 87.0151 399.459 87.0464 397.78C87.0474 397.553 87.0614 397.32 87.0798 397.101L87.0737 397.1Z" fill="#333333"/>
<path d="M131.315 388.341C131.347 389.787 131.761 391.503 132.815 392.556C133.766 393.509 135.305 393.527 136.344 392.705C137.924 391.453 137.716 389.063 137.3 387.323C136.8 385.213 135.632 382.991 133.729 381.831C132.804 381.265 131.722 381.027 130.644 381.197C129.698 381.348 130.092 382.278 130.348 382.875C130.804 383.931 131.114 385.065 131.237 386.21C131.311 386.917 131.298 387.63 131.315 388.341Z" fill="white"/>
<path d="M78.2489 380.921C77.8214 382.304 76.9533 383.84 75.6504 384.564C74.4741 385.219 72.99 384.814 72.2159 383.739C71.0397 382.101 71.8954 379.86 72.7729 378.301C73.8324 376.409 75.5654 374.593 77.7129 373.999C78.7582 373.708 79.8641 373.776 80.8538 374.235C81.7217 374.64 81.0879 375.427 80.6785 375.93C79.95 376.821 79.341 377.826 78.9083 378.894C78.6436 379.553 78.4609 380.242 78.2489 380.921Z" fill="white"/>
</g>
<g clip-path="url(#clip5_463_3)">
<path d="M1341.88 363.321C1388.78 337.097 1405.54 277.819 1379.32 230.921C1353.09 184.022 1293.82 167.262 1246.92 193.486C1200.02 219.71 1183.26 278.987 1209.48 325.886C1235.71 372.784 1294.98 389.545 1341.88 363.321Z" fill="#E7E3DA"/>
<path d="M1290.29 220.611L1247.32 244.634C1233.9 252.139 1229.11 269.101 1236.61 282.522L1260.63 325.486C1268.14 338.906 1285.1 343.702 1298.52 336.198L1341.49 312.174C1354.91 304.67 1359.7 287.707 1352.2 274.287L1328.17 231.323C1320.67 217.903 1303.71 213.107 1290.29 220.611Z" fill="#F47748"/>
<path d="M1277.41 292.44C1279.46 291.293 1279.69 287.805 1277.93 284.649C1276.16 281.494 1273.07 279.866 1271.02 281.013C1268.97 282.161 1268.73 285.649 1270.5 288.804C1272.26 291.959 1275.36 293.587 1277.41 292.44Z" fill="#333333"/>
<path d="M1314.57 271.664C1316.62 270.516 1316.85 267.028 1315.09 263.873C1313.32 260.718 1310.23 259.09 1308.18 260.237C1306.12 261.384 1305.89 264.872 1307.66 268.028C1309.42 271.183 1312.51 272.811 1314.57 271.664Z" fill="#333333"/>
<path d="M1319.71 293.525C1322.9 291.744 1323.4 287.505 1320.58 285.625C1314.86 281.795 1306.26 281.658 1298.68 285.896C1291.1 290.134 1286.71 297.534 1286.98 304.416C1287.11 307.8 1290.98 309.591 1294.16 307.81L1319.7 293.528L1319.71 293.525Z" fill="#333333"/>
<path d="M1252.31 287.513C1252.78 287.783 1253.48 287.849 1254.37 287.596C1261.83 285.479 1273.65 276.254 1270.48 268.093C1269.95 266.755 1267.57 264.125 1266.42 266.653C1265.21 269.313 1264.98 272.204 1263.68 274.868C1262.42 277.484 1260.43 279.651 1257.74 281.038C1256 281.94 1253.95 282.632 1252.53 284.045C1251.26 285.313 1251.25 286.908 1252.3 287.507L1252.31 287.513Z" fill="#333333"/>
<path d="M1324.21 247.309C1324.19 247.856 1323.88 248.485 1323.19 249.114C1317.49 254.356 1303.44 259.595 1298.15 252.619C1297.28 251.473 1296.29 248.065 1299.05 248.407C1301.95 248.772 1304.53 250.088 1307.48 250.382C1310.37 250.67 1313.25 250.115 1315.84 248.551C1317.52 247.539 1319.19 246.151 1321.13 245.687C1322.88 245.27 1324.24 246.093 1324.2 247.304L1324.21 247.309Z" fill="#333333"/>
</g>
<defs>
<clipPath id="clip0_463_3">
<rect width="130.772" height="130.772" fill="white" transform="translate(978 25.5066) rotate(-11.2474)"/>
</clipPath>
<clipPath id="clip1_463_3">
<rect width="129" height="129" fill="white" transform="translate(256 534.313) rotate(-9.50993)"/>
</clipPath>
<clipPath id="clip2_463_3">
<rect width="111" height="111" fill="white" transform="translate(269.966 83.0002) rotate(31.4813)"/>
</clipPath>
<clipPath id="clip3_463_3">
<rect width="158.03" height="158.03" fill="white" transform="translate(1022.4 415.845) rotate(7.84045)"/>
</clipPath>
<clipPath id="clip4_463_3">
<rect width="187.786" height="187.786" fill="white" transform="translate(26.0029 270) rotate(7.95933)"/>
</clipPath>
<clipPath id="clip5_463_3">
<rect width="194.588" height="194.588" fill="white" transform="translate(1162 240.968) rotate(-29.2122)"/>
</clipPath>
</defs>
</svg>
