<svg width="38" height="38" viewBox="0 0 38 38" fill="none" xmlns="http://www.w3.org/2000/svg">
<g clip-path="url(#clip0_218_63)">
<path d="M37.486 23.3822C39.9053 13.1715 33.5892 2.93277 23.3785 0.51342C13.1678 -1.90593 2.92913 4.4102 0.509776 14.6209C-1.90958 24.8316 4.40656 35.0703 14.6173 37.4896C24.828 39.909 35.0666 33.5929 37.486 23.3822Z" fill="#FAA916"/>
<path d="M27.6718 24.8932H10.3281C9.81804 24.8932 9.39795 24.4791 9.39795 23.963C9.39795 23.4469 9.81204 23.0328 10.3281 23.0328H27.6718C28.1879 23.0328 28.602 23.4469 28.602 23.963C28.602 24.4791 28.1879 24.8932 27.6718 24.8932Z" fill="#562912"/>
<path d="M28.944 15.7653C28.944 16.8755 28.0438 17.7697 26.9396 17.7697C25.8354 17.7697 24.9352 16.8695 24.9352 15.7653C24.9352 14.6611 25.8354 13.7609 26.9396 13.7609C28.0438 13.7609 28.944 14.6611 28.944 15.7653Z" fill="#562912"/>
<path d="M13.0707 15.7653C13.0707 16.8755 12.1705 17.7697 11.0663 17.7697C9.96208 17.7697 9.06189 16.8695 9.06189 15.7653C9.06189 14.6611 9.96208 13.7609 11.0663 13.7609C12.1705 13.7609 13.0707 14.6611 13.0707 15.7653Z" fill="#562912"/>
</g>
<defs>
<clipPath id="clip0_218_63">
<rect width="38" height="38" fill="white"/>
</clipPath>
</defs>
</svg>
