<svg width="473" height="489" viewBox="0 0 473 489" fill="none" xmlns="http://www.w3.org/2000/svg">
<g clip-path="url(#clip0_145_1117)">
<path d="M472.537 358.768C469.452 330.802 455.082 302.682 429.605 289.279C416.982 282.641 403.126 278.653 390.503 271.99C376.852 264.76 373.176 256.579 374.95 241.451C376.621 227.25 381.274 213.64 383.974 199.67C387.136 183.359 387.29 166.044 385.542 149.553C378.652 84.0771 333.689 33.9602 273.224 10.857C211.988 -12.5292 142.936 4.06497 89.6178 39.4658C63.8585 56.5745 41.4412 78.0826 27.5332 105.997C13.7795 133.551 6.63266 163.935 2.82788 194.37C-4.73024 254.804 2.08235 320.074 32.9576 373.587C34.5772 376.391 36.2996 379.144 38.0734 381.82C79.3861 469.988 196.511 490.852 288.16 488.871C343.149 487.688 401.352 476.059 441.791 435.641C462.023 415.42 475.725 387.866 472.512 358.768H472.537Z" fill="#8B5CF6"/>
<path d="M168.978 325.837C167.616 326.686 164.325 329.079 160.777 332.886C137.589 357.765 76.1982 435.719 76.738 437.34C77.2008 438.755 110.878 481.616 110.878 481.616C110.878 481.616 120.519 482.44 149.466 458.616C178.413 434.793 217.412 389.178 217.412 389.178L168.978 325.837Z" fill="#ED9996"/>
<path d="M168.978 325.837C167.616 326.686 164.325 329.079 160.777 332.886C147.949 346.676 123.372 376.726 104.117 401.09C122.318 416.835 150.7 444.132 166.279 457.072C193.221 432.374 217.438 389.178 217.438 389.178L169.004 325.837H168.978Z" fill="#F8FA90"/>
<path d="M159.852 334.79C157.178 332.063 239.752 271.655 312.66 285.342C408.319 303.3 425.646 475.982 425.646 475.982H233.197C233.197 475.982 211.113 386.734 159.878 334.79H159.852Z" fill="#F8FA90"/>
<path d="M249.187 265.326C252.94 265.532 279.136 283.979 279.136 283.979C279.136 283.979 259.676 339.833 246.77 342.406C233.865 344.978 199.853 314.363 199.853 314.363L249.161 265.326H249.187Z" fill="#ED9996"/>
<path d="M147.281 265.584C153.451 277.907 151.085 291.594 141.985 296.174C132.884 300.753 120.493 294.45 114.297 282.126C108.102 269.803 110.493 256.116 119.593 251.537C128.694 246.957 141.085 253.26 147.281 265.584Z" fill="#ED9996"/>
<path d="M265.177 214.772C277.414 249.015 267.697 304.329 218.8 326.969C192.398 339.19 157.307 322.107 132.73 279.657C97.6386 219.017 119.542 188.196 157.255 169.389C194.995 150.557 248.673 168.617 265.177 214.798V214.772Z" fill="#FFB1A5"/>
<path d="M233.762 175.152C229.906 172.657 225.818 170.521 221.654 168.72C208.414 171.653 183.709 177.673 161.934 183.256L160.212 175.718C160.212 175.718 157.512 173.917 153.553 171.293C138.771 179.217 126.843 189.199 120.364 202.397C120.364 202.449 120.313 202.5 120.287 202.552C119.747 203.632 119.259 204.739 118.822 205.871C118.796 205.922 118.771 205.999 118.745 206.076C111.649 224.06 114.297 247.703 132.756 279.631C146.098 302.683 162.551 318.248 179.004 325.709C161.626 300.624 173.246 260.232 175.945 249.195C191.01 243.278 201.91 209.112 201.91 209.112C222.888 220.175 246.822 222.413 246.822 222.413C246.822 222.413 238.184 190.588 233.788 175.152H233.762Z" fill="#ED9996"/>
<path d="M267.825 236.821C265.666 237.489 217.592 217.242 197.565 192.904C197.565 192.904 191.832 223.7 176.099 237.309C160.366 250.919 163.22 215.107 163.22 215.107C163.22 215.107 122.73 274.228 90.5175 264.22C58.3055 254.186 95.9676 220.741 95.9676 220.741C95.9676 220.741 43.7034 224.497 74.2701 195.142C104.863 165.787 183.477 102.138 207.386 150.505C207.386 150.505 237.824 132.908 252.503 162.031C267.851 192.467 267.825 236.846 267.825 236.846V236.821Z" fill="#282828"/>
<path d="M204.223 145.154C177.204 107.206 103.628 166.919 74.2956 195.091C43.7032 224.446 95.9931 220.689 95.9931 220.689C95.9931 220.689 61.3131 251.537 87.0724 262.857C86.3526 260.284 85.9156 257.634 85.9156 254.933C85.967 246.623 90.1317 238.776 95.7617 232.678C101.392 226.581 108.384 221.95 115.325 217.396C109.85 218.966 103.577 217.396 99.4893 213.434C95.4018 209.472 93.6536 203.246 95.0676 197.715C96.6101 191.72 101.34 187.167 105.968 183.076C120.39 170.315 136.02 158.584 153.81 151.226C169.672 144.665 187.462 141.809 204.223 145.154Z" fill="#424242"/>
<path d="M228.029 250.019C223.607 251.279 219.906 254.161 216.178 256.759C214.79 257.737 213.247 258.715 211.73 259.769C212.862 258.329 213.967 256.888 215.201 255.499C217.746 252.591 220.137 248.449 223.325 246.314C224.687 245.413 223.865 243.098 222.194 243.613C218.466 244.693 216.306 249.324 213.89 252.025C210.137 256.27 207.154 260.618 204.635 265.712C204.532 265.918 204.532 266.15 204.558 266.356C204.532 266.407 204.506 266.433 204.481 266.484C204.044 267.127 204.764 268.054 205.509 267.822C209.854 266.433 213.479 262.754 217.232 260.232C220.934 257.788 224.636 254.701 228.955 253.466C231.14 252.849 230.214 249.427 228.029 250.07V250.019Z" fill="#282828"/>
<path d="M171.24 279.554C165.713 276.158 160.443 272.787 154.53 270.034C152.679 269.185 151.522 271.887 153.425 272.633C156.818 273.971 160.16 275.334 163.297 277.212C161.626 276.852 159.955 276.569 158.232 276.286C153.913 275.617 149.517 274.228 145.173 273.971C143.759 273.893 143.424 275.797 144.478 276.492C147.795 278.653 152.165 278.936 156.021 279.399C160.88 279.965 165.765 280.3 170.623 280.84C170.623 280.84 170.649 280.84 170.675 280.84C170.726 280.84 170.803 280.84 170.855 280.84C171.575 280.84 171.806 279.888 171.215 279.528L171.24 279.554Z" fill="#282828"/>
<path d="M219.006 231.675C213.376 234.042 209.468 238.57 205.406 242.969C203.864 244.642 194.429 258.92 193.375 258.663C192.886 258.534 192.449 259.075 192.732 259.512C192.886 259.744 193.015 259.975 193.169 260.207C193.478 260.721 194.172 260.798 194.609 260.387C202.887 252.411 208.748 239.419 219.88 234.814C221.808 234.016 220.934 230.852 219.006 231.649V231.675Z" fill="#282828"/>
<path d="M170.084 265.584C161.471 263.474 153.502 259.744 145.044 256.888C143.296 256.296 142.499 259.126 144.273 259.666C149.98 261.416 155.584 263.628 161.163 265.738C163.245 266.536 168.49 269.083 170.341 266.664C170.623 266.304 170.572 265.712 170.058 265.584H170.084Z" fill="#282828"/>
<path d="M187.051 290.539C177.847 288.429 178.31 275.283 177.487 267.77C177.359 266.638 175.816 266.638 175.714 267.77C174.994 275.694 175.611 292.752 186.665 293.343C188.259 293.421 188.593 290.925 187.051 290.565V290.539Z" fill="#282828"/>
<path d="M191.113 308.137C191.113 308.137 191.138 308.343 191.19 308.445C192.295 312.15 197.899 313.874 200.239 311.713C204.481 307.828 212.964 303.223 218.517 305.435C221.936 306.799 225.201 302.091 225.201 299.955C225.201 283.619 186.614 295.993 191.113 308.111V308.137Z" fill="white"/>
<path d="M286.052 230.98C288.263 244.59 281.913 256.965 271.861 258.586C261.809 260.232 251.86 250.533 249.65 236.923C247.439 223.314 253.788 210.939 263.84 209.318C273.892 207.671 283.841 217.371 286.052 230.98Z" fill="#FFB1A5"/>
<path d="M175.405 221.641C173.528 221.153 170.469 222.053 170.469 222.053C170.469 222.053 171.677 217.294 171.086 215.184C170.212 212.122 169.492 211.556 166.767 209.91C165.765 209.292 163.194 209.472 163.194 209.472C163.194 209.472 162.165 206.72 160.52 204.867C157.589 201.626 148.797 205.433 144.298 211.479C141.908 214.721 131.162 229.54 131.882 232.035C130.236 226.272 136.74 209.215 137.949 203.169C139.105 197.458 143.27 192.209 134.632 192.004C128.051 191.849 116.971 220.046 115.583 229.977C112.215 253.929 110.21 278.499 104.914 302.091C106.122 304.021 104.785 304.612 106.251 306.387C118.179 311.379 135.352 318.376 146.818 311.353C157.23 304.972 163.528 291.285 163.939 279.477C164.402 266.253 166.613 256.168 173.194 244.23C175.508 240.037 179.133 232.113 178.953 226.71C178.876 224.266 177.693 222.233 175.405 221.616V221.641Z" fill="#FFB1A5"/>
<path d="M168.335 223.468C157.307 229.489 154.967 243.844 150.777 254.573C150.366 255.602 152.037 256.065 152.448 255.036C156.793 243.844 159.312 232.267 168.85 224.137C169.235 223.829 168.747 223.262 168.335 223.468Z" fill="#282828"/>
<path d="M160.7 209.987C147.538 218.065 140.005 237.593 137.46 252C137.229 253.286 139.208 253.852 139.44 252.54C142.268 236.666 149.98 222.233 161.369 210.836C161.806 210.399 161.24 209.653 160.7 209.987Z" fill="#282828"/>
<path d="M104.94 302.142C101.546 314.389 74.7586 425.762 70.414 447.579C63.4729 482.465 113.012 495.818 133.81 466.643C148.72 445.701 144.736 312.536 144.736 312.536L104.965 302.168L104.94 302.142Z" fill="#FFB1A5"/>
<path d="M333.972 292.392C324.897 288.893 301.657 285.78 298.186 307.674C292.839 341.557 347.057 427.229 347.057 427.229L217.412 445.958L222.733 481.642C222.733 481.642 432.433 507.447 421.327 448.145C406.622 369.779 378.96 309.757 333.972 292.392Z" fill="#FFB1A5"/>
<path d="M399.655 370.397L328.701 395.533C334.768 406.724 340.296 416.063 343.663 421.646C358.625 421.877 384.359 419.999 412.175 407.985C408.499 394.581 404.334 382 399.655 370.397Z" fill="#ED9996"/>
<path d="M333.972 292.392C324.897 288.893 301.657 285.78 298.186 307.674C294.047 333.89 322.737 396.201 337.211 420.745C356.029 416.809 391.377 407.264 412.201 398.594C396.133 343.872 369.397 306.078 333.972 292.392Z" fill="#F8FA90"/>
<path d="M245.356 438.857C245.356 438.857 241.32 415.06 229.058 413.053C208.234 409.631 203.787 413.49 203.478 420.488C203.478 420.488 182.346 417.272 179.724 426.148C177.822 432.606 182.526 435.513 182.526 435.513C182.526 435.513 174.582 436.053 176.176 443.746C177.102 448.222 182.192 449.894 182.192 449.894C182.192 449.894 178.49 452.905 178.876 459.414C179.261 465.794 184.326 466.592 184.326 466.592C184.326 466.592 179.93 473.229 187.051 479.893C192.655 485.141 242.863 482.826 242.863 482.826L245.356 438.857Z" fill="#FFB1A5"/>
<path d="M225.15 421.8C222.708 421.569 220.265 421.208 217.823 420.874C219.366 419.124 220.934 417.246 223.402 417.015C224.353 416.938 224.379 415.574 223.402 415.523C220.343 415.394 218.363 418.507 216.743 420.72C212.913 420.231 209.083 419.896 205.252 420.411C204.918 420.462 204.661 420.951 205.046 421.131C207.54 422.34 210.702 421.877 213.401 422.135C217.335 422.495 221.217 423.215 225.15 423.601C226.307 423.704 226.307 421.903 225.15 421.8Z" fill="#282828"/>
<path d="M193.272 436.593C190.316 435.925 187.308 436.439 184.351 435.564C183.889 435.436 183.452 436.079 183.863 436.413C186.28 438.394 190.084 438.06 193.041 438.24C193.966 438.291 194.172 436.825 193.272 436.619V436.593Z" fill="#282828"/>
<path d="M190.573 450.126C188.465 449.946 185.945 449.689 183.914 450.358C183.477 450.512 183.426 451.207 183.914 451.309C185.997 451.773 188.439 452.081 190.573 451.927C191.73 451.85 191.73 450.229 190.573 450.126Z" fill="#282828"/>
<path d="M191.344 466.437C189.236 466.489 187.179 466.206 185.071 466.489C184.557 466.566 184.583 467.415 185.071 467.518C187.179 467.904 189.21 468.341 191.344 468.341C192.552 468.341 192.552 466.437 191.344 466.463V466.437Z" fill="#282828"/>
<path d="M208.928 403.842C203.915 394.272 198.311 384.984 193.889 375.105C189.262 364.763 185.277 354.137 180.649 343.795C180.547 343.538 180.11 343.718 180.187 343.975C183.837 354.806 187.282 365.612 191.832 376.108C194.943 383.312 198.774 390.156 202.553 397.05C187.385 388.02 172.166 378.604 160.597 365.046C160.263 364.66 159.62 365.174 159.903 365.586C170.906 381.357 187.565 391.185 203.787 400.832C204.095 401.012 204.378 401.038 204.661 400.987C205.381 402.35 206.126 403.688 206.846 405.052C207.566 406.415 209.648 405.206 208.928 403.842Z" fill="#935221"/>
<path d="M296.901 163.369C280.756 170.804 297.801 190.974 307.004 178.882C309.523 175.564 303.919 172.373 301.425 175.615C297.235 176.31 295.872 174.689 297.312 170.804C298.675 169.595 300.243 168.849 301.991 168.566C304.51 168.128 307.312 168.669 309.421 170.135C314.151 173.428 314.408 180.272 311.683 184.877C305.667 195.013 288.314 193.213 281.887 184.568C269.753 168.257 296.926 152.409 310.732 154.596C313.482 155.033 314.408 151.534 311.863 150.479C287.26 140.163 255.999 178.805 283.764 194.782C296.207 201.934 316.105 198.255 319.601 182.639C322.557 169.44 309.729 157.503 296.901 163.395V163.369Z" fill="#FEFEFE"/>
<path d="M65.2209 109.727C57.7399 111.76 38.6646 121.819 50.7988 130.361C51.8528 131.107 53.3695 129.615 52.624 128.534C48.0223 122.025 60.6192 117.728 65.0924 116.339C72.1363 114.152 79.9772 115.31 84.6561 121.562C90.029 128.74 88.2038 143.97 77.8435 145.977C72.8561 146.929 68.1002 142.53 67.3547 137.822C66.4806 132.419 69.6684 129.666 74.4757 132.882C78.152 135.352 81.5968 129.409 77.9463 126.939C65.1438 118.346 56.0432 133.679 62.8558 144.922C73.0104 161.645 92.9854 148.859 94.3737 133.268C95.8133 117.162 80.4914 105.559 65.2466 109.702L65.2209 109.727Z" fill="#FEFEFE"/>
<path d="M143.887 88.0391C136.895 88.9652 130.365 91.1263 123.655 93.0816C121.007 82.6363 118.668 72.1395 117.665 61.3855C117.177 56.2143 109.053 56.1629 109.541 61.3855C110.75 74.2235 113.552 86.727 116.92 99.179C117.485 101.263 119.773 102.575 121.881 102.009C128.257 100.234 134.478 98.0985 140.879 96.4776C141.933 104.427 141.291 112.789 139.877 120.61C139.748 121.382 140.777 121.665 141.034 120.919C144.247 111.734 146.175 102.472 147.563 92.8501C147.872 90.7662 146.638 87.7046 143.913 88.0648L143.887 88.0391Z" fill="#FEFEFE"/>
<path d="M236.461 57.8352C235.999 52.4839 227.901 52.278 227.978 57.8352C228.029 62.8777 223.684 67.6373 221.628 72.0367C219.443 76.719 217.849 81.7359 216.281 86.7013C210.599 85.2605 205.098 83.4596 199.133 83.2281C197.668 83.1766 195.946 84.6688 196.151 86.2124C197.642 97.3267 195.046 108.415 197.103 119.658C197.36 121.073 199.802 120.764 199.648 119.324C198.696 109.907 199.159 99.1533 201.37 89.7114C206.923 90.9205 212.244 92.9273 217.772 94.4195C219.828 94.9597 221.422 93.7248 222.193 91.9239C225.458 84.1285 228.595 76.5389 232.785 69.2324C234.893 65.5534 236.898 62.1831 236.513 57.8609L236.461 57.8352Z" fill="#FEFEFE"/>
<path d="M299.703 106.588C292.71 109.521 288.571 114.332 282.787 118.963C281.116 121.047 278.982 122.385 276.334 122.977C275.383 121.922 274.329 120.97 273.249 120.07C271.219 119.169 269.805 117.42 267.517 116.751C257.131 113.689 251.321 126.45 245.279 132.419C244.122 133.551 245.691 135.789 247.079 134.734C251.038 131.724 254.868 125.678 259.496 123.852C268.468 120.275 268.879 129.126 275.023 131.004C278.263 131.981 280.705 130.361 283.301 128.585C290.217 123.877 294.793 117.111 302.556 113.329C306.233 111.528 303.585 104.993 299.729 106.614L299.703 106.588Z" fill="#FEFEFE"/>
<path d="M55.9147 218.554C49.642 219.635 43.4464 221.358 37.1993 222.722C32.7776 223.674 25.3223 223.545 22.3659 227.276C21.5432 228.305 21.4147 230.028 22.8029 230.723C27.4303 233.064 34.0887 229.9 38.8446 228.716C45.1431 227.173 51.7757 225.449 57.3286 221.95C59.2053 220.767 57.9199 218.168 55.889 218.528L55.9147 218.554Z" fill="#FEFEFE"/>
<path d="M54.9635 175.872C51.2102 172.811 47.0198 170.573 42.4438 169.003C39.2303 167.897 33.6517 164.707 30.3611 165.813C29.2556 166.173 28.2273 167.485 28.7157 168.694C30.1297 172.219 34.4229 172.605 37.7649 173.557C42.8294 174.998 47.9967 176.258 52.5727 178.96C54.4237 180.04 56.7117 177.313 54.9378 175.872H54.9635Z" fill="#FEFEFE"/>
</g>
<defs>
<clipPath id="clip0_145_1117">
<rect width="473" height="489" fill="white"/>
</clipPath>
</defs>
</svg>
