<svg width="167" height="167" viewBox="0 0 167 167" fill="none" xmlns="http://www.w3.org/2000/svg">
<path d="M122.92 0.469971H44.0899C20.0545 0.469971 0.569946 19.9545 0.569946 43.99V122.82C0.569946 146.855 20.0545 166.34 44.0899 166.34H122.92C146.955 166.34 166.44 146.855 166.44 122.82V43.99C166.44 19.9545 146.955 0.469971 122.92 0.469971Z" fill="#51B688"/>
<path d="M47.53 78.29C51.5009 78.29 54.72 72.8592 54.72 66.16C54.72 59.4608 51.5009 54.03 47.53 54.03C43.559 54.03 40.34 59.4608 40.34 66.16C40.34 72.8592 43.559 78.29 47.53 78.29Z" fill="#333333"/>
<path d="M119.47 78.29C123.441 78.29 126.66 72.8592 126.66 66.16C126.66 59.4608 123.441 54.03 119.47 54.03C115.499 54.03 112.28 59.4608 112.28 66.16C112.28 72.8592 115.499 78.29 119.47 78.29Z" fill="#333333"/>
<path d="M108.2 93.6699C114.71 93.6699 118.94 100.52 116.04 106.35C110.57 117.35 98.21 125.02 83.84 125.02C69.47 125.02 57.11 117.35 51.64 106.35C48.74 100.52 52.96 93.6699 59.48 93.6699H108.21H108.2Z" fill="#333333"/>
</svg>
