<svg width="167" height="167" viewBox="0 0 167 167" fill="none" xmlns="http://www.w3.org/2000/svg">
<path d="M122.42 0.469971H44.5899C20.2784 0.469971 0.569946 20.1784 0.569946 44.49V122.32C0.569946 146.632 20.2784 166.34 44.5899 166.34H122.42C146.732 166.34 166.44 146.632 166.44 122.32V44.49C166.44 20.1784 146.732 0.469971 122.42 0.469971Z" fill="#107BC0"/>
<path d="M35.9699 58.4899C36.2999 59.0799 36.9499 59.5799 37.9999 59.8499C46.6499 62.0999 63.6699 59.2299 65.0599 48.3099C65.2899 46.5199 64.3699 42.1599 61.7999 44.2399C59.0999 46.4199 57.2499 49.4499 54.4599 51.5899C51.7199 53.6799 48.5199 54.8399 45.0499 54.7199C42.7999 54.6399 40.3499 54.1399 38.1499 54.8299C36.1699 55.4499 35.2599 57.1899 35.9799 58.4899H35.9699Z" fill="#333333"/>
<path d="M130.55 58.4899C130.22 59.0799 129.57 59.5799 128.52 59.8499C119.87 62.0999 102.85 59.2299 101.46 48.3099C101.23 46.5199 102.15 42.1599 104.72 44.2399C107.42 46.4199 109.27 49.4499 112.06 51.5899C114.8 53.6799 118 54.8399 121.47 54.7199C123.72 54.6399 126.17 54.1399 128.37 54.8299C130.35 55.4499 131.26 57.1899 130.54 58.4899H130.55Z" fill="#333333"/>
<path d="M61.0799 71.5899C62.9599 71.8599 64.6499 72.8399 66.2799 73.8099C68.4099 75.0699 70.6299 76.4199 71.9299 78.5299C72.5299 79.4999 72.8699 80.8399 72.1499 81.7299C71.6699 82.3299 70.8499 82.5199 70.0899 82.5999C64.8699 83.0999 59.7399 79.3699 54.6299 80.5599C52.4299 81.0699 40.9199 86.8299 44.2799 80.1199C46.6299 75.4299 56.1699 70.8999 61.0699 71.5999L61.0799 71.5899Z" fill="#333333"/>
<path d="M105.44 71.5899C103.56 71.8599 101.87 72.8399 100.24 73.8099C98.1099 75.0699 95.8899 76.4199 94.5899 78.5299C93.9899 79.4999 93.6499 80.8399 94.3699 81.7299C94.8499 82.3299 95.6699 82.5199 96.4299 82.5999C101.65 83.0999 106.78 79.3699 111.89 80.5599C114.09 81.0699 125.6 86.8299 122.24 80.1199C119.89 75.4299 110.35 70.8999 105.45 71.5999L105.44 71.5899Z" fill="#333333"/>
<path d="M57.5999 121.95C57.1099 111.73 66.2599 104.31 73.7199 98.8998C77.0899 96.4498 80.5999 93.2499 84.9199 92.6299C89.7899 91.9299 93.7699 95.4698 96.7899 98.8398C99.8999 102.31 102.76 106.02 105.29 109.94C107.95 114.05 110.29 119.31 108.06 123.67C106.34 127.05 102.3 128.69 98.5099 128.77C94.7199 128.85 91.0299 127.68 87.3499 126.79C84.5399 126.11 81.5199 125.74 78.5899 126.1C77.0999 126.29 75.6399 126.66 74.2599 127.24C72.8399 127.83 71.5899 128.72 70.1399 129.25C67.6399 130.17 64.6899 130.22 62.1999 129.16C59.6599 128.08 58.0399 125.79 57.7099 123.06C57.6599 122.69 57.6299 122.31 57.6099 121.95H57.5999Z" fill="#333333"/>
<path d="M127.4 97.7C127.78 100.04 128.84 102.73 130.79 104.2C132.55 105.53 135.05 105.21 136.55 103.64C138.83 101.25 137.95 97.42 136.88 94.69C135.59 91.38 133.19 88.04 129.84 86.59C128.21 85.88 126.4 85.74 124.69 86.26C123.19 86.72 124.04 88.14 124.59 89.05C125.57 90.66 126.33 92.43 126.79 94.26C127.07 95.39 127.21 96.55 127.4 97.7Z" fill="white"/>
<path d="M39.5999 97.7C39.2199 100.04 38.1599 102.73 36.2099 104.2C34.4499 105.53 31.9499 105.21 30.4499 103.64C28.1699 101.25 29.0499 97.42 30.1199 94.69C31.4099 91.38 33.8099 88.04 37.1599 86.59C38.7899 85.88 40.5999 85.74 42.3099 86.26C43.8099 86.72 42.9599 88.14 42.4099 89.05C41.4299 90.66 40.6699 92.43 40.2099 94.26C39.9299 95.39 39.7899 96.55 39.5999 97.7Z" fill="white"/>
</svg>
