<svg width="167" height="167" viewBox="0 0 167 167" fill="none" xmlns="http://www.w3.org/2000/svg">
<path d="M122.92 0.469971H44.0899C20.0545 0.469971 0.569946 19.9545 0.569946 43.99V122.82C0.569946 146.855 20.0545 166.34 44.0899 166.34H122.92C146.955 166.34 166.44 146.855 166.44 122.82V43.99C166.44 19.9545 146.955 0.469971 122.92 0.469971Z" fill="#F47748"/>
<path d="M56.0999 105.51C61.1146 105.51 65.1799 98.6599 65.1799 90.2099C65.1799 81.76 61.1146 74.9099 56.0999 74.9099C51.0852 74.9099 47.0199 81.76 47.0199 90.2099C47.0199 98.6599 51.0852 105.51 56.0999 105.51Z" fill="white"/>
<path d="M116.1 105.51C121.115 105.51 125.18 98.6599 125.18 90.2099C125.18 81.76 121.115 74.9099 116.1 74.9099C111.085 74.9099 107.02 81.76 107.02 90.2099C107.02 98.6599 111.085 105.51 116.1 105.51Z" fill="white"/>
<path d="M56.0999 101.44C59.7782 101.44 62.7599 96.4121 62.7599 90.21C62.7599 84.0078 59.7782 78.98 56.0999 78.98C52.4217 78.98 49.4399 84.0078 49.4399 90.21C49.4399 96.4121 52.4217 101.44 56.0999 101.44Z" fill="#333333"/>
<path d="M116.17 101.44C119.848 101.44 122.83 96.4121 122.83 90.21C122.83 84.0078 119.848 78.98 116.17 78.98C112.492 78.98 109.51 84.0078 109.51 90.21C109.51 96.4121 112.492 101.44 116.17 101.44Z" fill="#333333"/>
<path d="M144.94 56.5398C144.94 63.9498 141.97 66.0598 137.89 66.0598C133.81 66.0598 130.15 63.9498 130.15 56.5398C130.15 49.1298 133.19 33.7998 137.27 33.7998C141.35 33.7998 144.94 49.1298 144.94 56.5398Z" fill="white"/>
<path d="M98.09 40.5799C98.09 46.3499 95.78 47.9799 92.6 47.9799C89.42 47.9799 86.58 46.3399 86.58 40.5799C86.58 34.8199 88.94 22.8899 92.12 22.8899C95.3 22.8899 98.09 34.8099 98.09 40.5799Z" fill="white"/>
<path d="M44.2399 56.89C44.2399 62.64 41.9399 64.28 38.7699 64.28C35.5999 64.28 32.7599 62.65 32.7599 56.89C32.7599 51.13 35.1199 39.24 38.2899 39.24C41.4599 39.24 44.2399 51.13 44.2399 56.89Z" fill="white"/>
<path d="M69.5699 48.7198C69.5699 52.6798 67.9899 53.7999 65.8099 53.7999C63.6299 53.7999 61.6799 52.6798 61.6799 48.7198C61.6799 44.7598 63.2999 36.5898 65.4799 36.5898C67.6599 36.5898 69.5699 44.7698 69.5699 48.7198Z" fill="white"/>
<path d="M113.54 55.9198C113.54 59.8798 111.96 60.9998 109.78 60.9998C107.6 60.9998 105.65 59.8798 105.65 55.9198C105.65 51.9598 107.27 43.7898 109.45 43.7898C111.63 43.7898 113.54 51.9698 113.54 55.9198Z" fill="white"/>
<path d="M15.8899 127.19C15.5199 127.19 15.1399 127.11 14.7899 126.93C13.5699 126.32 13.0799 124.84 13.6899 123.62L20.2699 110.47C20.8799 109.25 22.3599 108.76 23.5799 109.37C24.7999 109.98 25.2899 111.46 24.6799 112.68L18.0999 125.83C17.6699 126.69 16.7999 127.19 15.8899 127.19Z" fill="#B23425"/>
<path d="M26.5799 127.19C26.2099 127.19 25.8299 127.11 25.4799 126.93C24.2599 126.32 23.7699 124.84 24.3799 123.62L30.9499 110.47C31.5599 109.25 33.0399 108.76 34.2599 109.37C35.4799 109.98 35.9699 111.46 35.3599 112.68L28.7899 125.83C28.3599 126.69 27.4899 127.19 26.5799 127.19Z" fill="#B23425"/>
<path d="M37.2699 127.19C36.8999 127.19 36.5199 127.11 36.1699 126.93C34.9499 126.32 34.4599 124.84 35.0699 123.62L41.6499 110.47C42.2599 109.25 43.7399 108.76 44.9599 109.37C46.1799 109.98 46.6699 111.46 46.0599 112.68L39.4799 125.83C39.0499 126.69 38.1799 127.19 37.2699 127.19Z" fill="#B23425"/>
<path d="M123.16 127.19C122.79 127.19 122.41 127.11 122.06 126.93C120.84 126.32 120.35 124.84 120.96 123.62L127.54 110.47C128.15 109.25 129.63 108.76 130.85 109.37C132.07 109.98 132.56 111.46 131.95 112.68L125.37 125.83C124.94 126.69 124.07 127.19 123.16 127.19Z" fill="#B23425"/>
<path d="M133.84 127.19C133.47 127.19 133.09 127.11 132.74 126.93C131.52 126.32 131.03 124.84 131.64 123.62L138.22 110.47C138.83 109.25 140.31 108.76 141.53 109.37C142.75 109.98 143.24 111.46 142.63 112.68L136.05 125.83C135.62 126.69 134.75 127.19 133.84 127.19Z" fill="#B23425"/>
<path d="M144.53 127.19C144.16 127.19 143.78 127.11 143.43 126.93C142.21 126.32 141.72 124.84 142.33 123.62L148.91 110.47C149.52 109.25 151 108.76 152.22 109.37C153.44 109.98 153.93 111.46 153.32 112.68L146.74 125.83C146.31 126.69 145.44 127.19 144.53 127.19Z" fill="#B23425"/>
</svg>
