<svg width="574" height="439" viewBox="0 0 574 439" fill="none" xmlns="http://www.w3.org/2000/svg">
<g clip-path="url(#clip0_108_908)">
<path d="M93.0011 78.6228H480.999C532.331 78.6228 574 120.311 574 171.668V439H0V171.668C0 120.311 41.6685 78.6228 93.0011 78.6228Z" fill="#8B5CF6"/>
<path d="M250.388 225.231C247.34 223.42 226.362 198.791 216.286 218.433C206.209 238.075 140.389 384.325 165.043 394.119C189.696 403.913 201.063 404.11 216.286 375.894C224.049 361.507 289.331 248.407 250.388 225.213V225.231Z" fill="#ED9996"/>
<path d="M189.804 278.454C201.315 250.04 212.574 225.662 216.286 218.433C226.362 198.79 247.322 223.402 250.388 225.231C271.33 237.698 268.049 276.373 253.866 311.514C238.859 309.648 207.644 293.737 189.804 278.472V278.454Z" fill="#F8FA90"/>
<path d="M321.64 200.01C325.961 201.463 401.051 203.58 430.527 294.15C460.003 384.719 446.592 439 446.592 439H265.287C265.287 439 282.697 307.083 234.681 269.018C186.648 230.954 321.64 200.01 321.64 200.01Z" fill="#F8FA90"/>
<path d="M333.976 200.01C333.976 200.01 327.378 264.659 300.734 270.417C274.091 276.176 250.388 225.213 250.388 225.213L333.976 200.01Z" fill="#ED9996"/>
<path d="M206.353 172.78C207.196 185.462 214.744 195.275 223.225 194.719C231.705 194.145 237.873 183.418 237.031 170.735C236.188 158.053 228.639 148.241 220.159 148.797C211.678 149.371 205.51 160.098 206.353 172.78Z" fill="#ED9996"/>
<path d="M228.514 176.386C229.159 177.498 231.149 177.372 231.418 176.009C233.552 164.869 236.188 153.838 238.249 142.68C239.02 138.482 241.782 130.392 239.254 126.249C236.134 121.1 221.718 118.177 217.272 122.571C216.716 123.109 216.68 123.773 216.913 124.311C216.841 124.419 216.752 124.509 216.734 124.652C214.708 142.249 219.728 161.21 228.496 176.386H228.514Z" fill="#282828"/>
<path d="M221.718 156.977C221.449 188.099 221.718 234.649 272.925 241.089C307.888 245.483 339.498 216.244 347.979 175.094C356.639 133.047 332.093 94.4802 296.27 89.888C260.446 85.2779 222.095 114.983 221.718 156.995V156.977Z" fill="#FFB1A5"/>
<path d="M253.31 214.289C255.695 216.28 260.948 215.222 263.674 214.935C266.04 214.684 268.443 214.235 270.828 214.379C276.135 214.702 277.48 218.199 281.621 219.993C284.616 221.303 289.475 221.105 291.303 217.966C292.881 215.258 291.859 213.302 290.084 211.778C289.116 210.235 287.466 209.105 285.243 208.441C282.177 207.508 280.079 208.369 277.139 209.015C273.087 209.894 269.895 208.423 266.076 207.329C261.702 206.091 256.681 205.23 253.544 209.338C252.253 211.024 251.5 212.764 253.31 214.289Z" fill="white"/>
<path d="M335.518 164.313C327.88 156.313 321.121 147.469 315.383 137.998C312.389 140.635 307.602 140.994 304.249 138.823C303.675 138.465 303.155 138.016 302.51 137.819C300.573 137.191 298.727 138.823 297.059 139.989C292.63 143.11 286.445 143.469 281.693 140.886C279.631 139.756 277.695 138.088 275.346 137.944C271.348 137.675 268.085 141.891 264.086 141.657C261.038 141.478 258.725 138.787 255.785 137.944C250.98 136.563 246.354 140.312 241.549 141.693C235.865 143.326 229.303 141.335 225.556 136.778C224.569 135.594 223.763 134.177 223.637 132.653C223.547 131.558 223.816 130.482 224.121 129.424C226.093 122.912 230.181 117.19 235.058 112.436C239.182 108.436 243.951 105.028 249.348 103.09C255.677 100.812 262.562 100.669 269.286 100.633C279.56 100.579 289.941 100.776 299.874 103.378C309.807 105.979 319.364 111.252 325.316 119.629C329.566 125.603 331.735 132.796 333.564 139.9" fill="#ED9996"/>
<path d="M204.739 109.53C202.785 103.306 206.371 96.9198 211.301 93.2245C214.08 91.1437 219.639 90.8926 221.79 88.9553C224.749 86.2825 222.633 82.1567 224.426 78.4794C227.958 71.2683 236.152 70.7839 242.732 72.6854C248.971 74.4792 245.063 75.1608 248.936 71.2683C252.755 67.4116 255.57 64.0751 260.859 62.066C270.433 58.4425 275.149 62.066 282.464 67.5013C287.664 71.3759 284.777 69.6179 291.59 66.8375C295.75 65.1334 300.86 64.8643 305.217 65.6177C314.056 67.1604 315.813 72.0755 320.565 78.4256C324.545 83.7532 326.033 80.8652 332.201 81.5109C337.293 82.0491 341.704 84.381 344.483 88.7938C346.652 92.2379 347.208 95.8973 346.473 99.8796C345.272 106.409 344.465 104.041 350.597 107.844C358.307 112.634 361.857 118.75 359.687 127.468C358.844 130.823 357.392 133.37 357.607 137.065C357.715 139.056 358.54 141.101 358.647 143.182C358.88 147.523 358.02 152.115 357.32 156.385C356.496 161.354 355.689 169.82 352.157 174.825C350.776 175.022 348.535 175.076 347.997 175.094C346.849 175.094 342.6 178.718 341.489 178.574C336.325 172.35 331.215 161.874 328.848 154.447C326.679 147.703 325.065 143.236 323.057 136.886C320.367 128.312 318.915 132.993 311.654 133.262C305.629 133.496 309.914 132.563 305.073 131.253C297.364 129.173 297.722 132.473 290.353 133.675C287.036 134.213 283.558 134.159 280.402 132.868C279.237 132.383 278.197 131.612 277.103 131.02C272.137 128.329 275.31 127.594 269.788 130.141C266.471 131.684 264.732 134.123 260.769 134.088C256.843 134.052 255.892 131.505 252.539 130.536C245.565 128.527 242.678 136.097 236.546 137.783C231.669 139.128 226.47 137.729 221.718 136.707C215.873 135.451 208.863 131.576 208.773 124.473C208.737 121.28 211.05 119.773 210.243 116.652C209.723 114.607 205.582 112.149 204.757 109.494L204.739 109.53Z" fill="#282828"/>
<path d="M334.639 179.112C332.147 191.579 336.863 203.024 345.2 204.692C353.519 206.36 362.305 197.625 364.797 185.158C367.289 172.691 362.574 161.246 354.236 159.578C345.917 157.909 337.132 166.645 334.639 179.112Z" fill="#FFB1A5"/>
<path d="M221.7 136.725C215.855 135.469 208.845 131.594 208.755 124.491C208.719 121.298 211.032 119.791 210.225 116.67C209.706 114.625 205.564 112.167 204.739 109.512C202.785 103.288 206.371 96.9018 211.301 93.2066C214.08 91.1258 219.639 90.8746 221.79 88.9373C224.749 86.2645 222.633 82.1388 224.426 78.4614C227.958 71.2503 236.152 70.766 242.732 72.6674C248.971 74.4612 245.063 75.1429 248.936 71.2503C252.755 67.3936 255.57 64.0571 260.859 62.048C270.433 58.4245 275.149 62.048 282.464 67.4833C287.664 71.3579 284.777 69.6 291.59 66.8196C295.75 65.1155 300.86 64.8464 305.217 65.5998C309.43 66.3353 312.03 67.8421 314.11 69.905C313.339 69.7256 312.568 69.5283 311.815 69.4206C299.3 67.7344 299.963 73.3311 292.021 76.7573C287.592 78.6588 285.889 77.7977 281.55 76.9726C276.691 74.0666 271.276 72.8468 265.341 73.2953C260.859 75.7169 257.757 79.0355 256.018 83.2689C255.211 83.8608 254.978 85.2241 254.01 85.6546C245.439 89.4755 242.84 79.466 234.771 93.3322C233.158 96.1126 233.695 97.44 231.311 100.238C227.241 105.01 218.186 94.7134 222.92 112.974C223.404 114.84 225.735 115.396 226.039 117.71C226.524 121.441 223.368 121.71 222.292 124.383C219.854 130.339 219.836 133.639 222.471 136.85C222.22 136.796 221.951 136.742 221.7 136.689V136.725Z" fill="#424242"/>
<path d="M295.338 178.592C295.338 181.462 296.969 183.776 298.996 183.776C301.022 183.776 302.653 181.462 302.653 178.592C302.653 175.722 301.022 173.408 298.996 173.408C296.969 173.408 295.338 175.722 295.338 178.592Z" fill="#282828"/>
<path d="M234.771 173.408C234.771 176.278 236.403 178.592 238.429 178.592C240.455 178.592 242.087 176.278 242.087 173.408C242.087 170.538 240.455 168.224 238.429 168.224C236.403 168.224 234.771 170.538 234.771 173.408Z" fill="#282828"/>
<path d="M231.939 153.317C235.543 153.407 239.254 153.461 242.463 151.541C245.189 149.909 246.892 147.057 248.972 144.743C249.295 144.384 249.94 144.833 249.761 145.263C248.362 148.582 246.874 151.99 243.7 153.981C240.33 156.098 235.632 156.761 231.741 156.205C229.913 155.936 230.056 153.281 231.939 153.317Z" fill="#282828"/>
<path d="M294.889 150.627C300.376 156.582 307.135 160.421 315.472 159.649C316.763 159.524 317.05 161.641 315.777 161.91C309.107 163.345 294.584 159.237 293.616 151.165C293.545 150.519 294.477 150.196 294.889 150.645V150.627Z" fill="#282828"/>
<path d="M259.98 178.198C261.146 172.027 260.769 165.641 261.307 159.416C261.361 158.806 262.186 158.824 262.239 159.416C262.795 164.887 263.172 170.466 262.526 175.955C261.648 183.382 257.721 192.333 268.228 194.754C269.286 195.006 269.071 196.746 267.977 196.674C263.261 196.369 258.42 193.104 257.918 188.063C257.596 184.817 259.389 181.319 259.98 178.215V178.198Z" fill="#282828"/>
<path d="M301.326 188.261C308.032 186.18 306.83 180.314 307.852 174.7C307.96 174.126 308.749 174.233 308.91 174.7C310.667 180.045 308.444 189.839 301.559 189.947C300.573 189.947 300.412 188.548 301.326 188.261Z" fill="#ED9996"/>
<path d="M305.952 191.49C308.946 189.283 312.478 187.561 312.532 183.31C312.532 182.808 313.285 182.808 313.321 183.31C313.608 187.633 310.201 190.79 306.615 192.602C305.862 192.978 305.306 191.974 305.97 191.49H305.952Z" fill="#ED9996"/>
<path d="M230.719 167.614C230.845 167.148 231.58 167.237 231.562 167.722C231.454 171.417 230.773 175.471 232.584 178.861C234.126 181.749 236.6 183.095 239.326 184.691C240.097 185.14 239.595 186.449 238.716 186.162C235.489 185.086 232.602 182.826 231.024 179.794C228.944 175.812 229.679 171.758 230.737 167.614H230.719Z" fill="#ED9996"/>
<path d="M229.213 182.808C229.859 183.758 230.701 184.458 231.562 185.229C232.44 186.001 233.409 186.288 234.449 186.772C235.596 187.31 235.022 189.194 233.803 189.14C230.773 188.978 228.657 186.001 228.084 183.292C227.94 182.592 228.819 182.216 229.231 182.808H229.213Z" fill="#ED9996"/>
<path d="M277.211 219.922C277.211 219.922 277.337 219.904 277.319 219.975C276.745 221.59 276.566 223.348 276.62 225.052C276.673 226.935 277.48 228.083 278.108 229.752C278.197 230.003 277.893 230.146 277.713 230.057C276.171 229.393 275.831 227.043 275.759 225.554C275.669 223.563 276.225 221.626 277.229 219.922H277.211Z" fill="#ED9996"/>
<path d="M267.134 224.047C267.368 221.984 268.425 220.352 269.519 218.63C269.788 218.199 270.398 218.576 270.2 219.025C269.286 220.944 268.479 222.738 268.443 224.908C268.425 227.097 269.232 229.052 269.573 231.169C269.698 232.03 268.551 232.371 268.264 231.528C267.439 229.214 266.883 226.505 267.152 224.047H267.134Z" fill="#ED9996"/>
<path d="M260.178 225.429C260.375 223.94 261.343 222.792 262.347 221.733C262.939 221.105 263.764 221.895 263.459 222.576C263.029 223.545 262.724 224.496 262.634 225.554C262.527 226.666 263.065 227.509 263.226 228.55C263.387 229.572 262.114 230.684 261.272 229.698C260.285 228.55 259.999 226.899 260.196 225.429H260.178Z" fill="#ED9996"/>
<path d="M251.966 302.832C254.727 303.424 257.165 302.096 259.478 300.841C260.482 300.302 262.06 298.993 263.154 298.796C270.146 297.486 272.262 305.63 272.979 306.688C273.93 308.07 275.848 311.801 276.063 312.195C278.932 317.613 282.823 320.268 287.359 323.586L287.144 323.819C287.144 323.819 362.179 408.29 392.624 410.963C423.086 413.636 434.31 390.46 434.185 369.257C434.077 348.054 416.399 232.909 375.286 207.849C361.355 199.365 332.398 190.736 326.087 217.321C319.776 243.923 368.222 325.685 364.456 323.999C361.086 322.492 321.156 303.047 313.213 298.544C312.407 293.522 312.855 286.364 311.779 281.521C310.398 275.225 308.39 267.978 304.93 262.435C304.141 261.161 290.353 249.986 282.93 247.421C277.229 245.43 265.001 240.622 260.07 246.614C257.506 249.717 260.859 251.565 263.674 252.713C267.098 254.112 270.81 254.686 274.27 256.049C275.543 256.551 276.78 257.018 277.964 257.735C280.079 258.991 279.757 260.659 279.757 260.659C279.757 260.659 273.553 260.982 271.24 261.108C263.961 261.484 252.324 262.561 246.892 268.032C245.654 269.269 244.13 271.261 244.525 273.18C244.973 275.422 247.698 275.35 249.079 276.445C249.456 276.75 248.631 277.037 247.68 278.705C246.963 279.961 246.354 280.947 246.39 282.472C246.425 283.889 246.981 285.234 248.057 286.221C248.9 286.992 249.94 287.208 250.997 287.495C251.32 287.584 252.504 287.602 253.275 287.692C253.059 287.8 252.862 287.997 252.755 288.14C251.302 290.114 249.617 292.804 248.613 295.226C246.945 299.244 247.125 301.809 251.984 302.85L251.966 302.832Z" fill="#FFB1A5"/>
<path d="M380.378 329.093L364.456 324.017C365.729 324.591 360.996 315.55 354.434 302.329L380.36 329.111L380.378 329.093Z" fill="#ED9996"/>
<path d="M343.12 278.633L412.203 265C417.331 279.153 421.509 294.221 424.79 308.464C393.628 319.945 372.31 317.846 360.548 314.545C356.37 306.096 349.593 292.876 343.12 278.615V278.633Z" fill="#ED9996"/>
<path d="M250.621 275.117C257.076 271.601 268.981 266.274 276.171 270.687C276.655 270.991 276.332 271.727 275.794 271.583C271.455 270.579 267.295 270.92 262.974 271.87C258.797 272.767 255.139 275.422 250.997 275.978C250.513 276.05 250.119 275.386 250.639 275.117H250.621Z" fill="#282828"/>
<path d="M253.992 287.387C259.263 282.92 268.999 282.49 275.131 285.163C275.83 285.468 275.328 286.634 274.611 286.382C267.045 283.853 261.63 285.862 254.422 288.105C254.01 288.23 253.651 287.656 253.992 287.369V287.387Z" fill="#282828"/>
<path d="M326.105 217.321C332.416 190.718 361.39 199.347 375.304 207.849C397.214 221.213 417.779 258.453 427.264 295.136C408.599 304.249 370.947 312.698 355.259 311.37C343.353 287.548 321.389 237.088 326.087 217.339L326.105 217.321Z" fill="#F7F7AA"/>
<path d="M181.323 292.015C180.39 282.92 178.902 273.377 180.301 264.39C181.466 256.928 185.357 250.381 190.359 244.838C190.359 244.784 190.359 244.712 190.395 244.658C191.937 242.093 194.34 240.317 196.312 238.093C198.535 235.6 199.79 234.505 202.838 233.088C206.424 231.402 209.096 228.657 212.753 228.944C216.967 227.527 220.911 227.725 222.991 230.774C225.681 234.721 221.611 238.577 218.688 240.802C216.357 242.56 213.668 243.833 211.373 245.627C207.823 248.389 203.233 257.161 206.102 261.717C210.297 268.372 213.955 260.659 216.106 256.946C217.505 254.524 218.885 251.618 221.378 250.094C225.484 247.564 228.549 250.919 228.908 255.098C229.213 258.489 227.904 261.592 226.057 264.354C222.471 269.682 220.087 274.041 218.867 280.517C217.487 287.799 217.057 296.356 210.656 301.074C210.943 310.258 214.618 369.31 208.755 384.827C204.344 396.487 196.348 404.451 172.519 401.402C172.519 401.402 154.052 393.904 154.052 376.773C154.052 364.108 178.257 300.231 181.323 292.051V292.015Z" fill="#FFB1A5"/>
<path d="M183.761 265.52C186.666 262.274 188.745 258.22 191.22 254.65C193.622 251.188 200.167 240.138 205.635 241.447C213.578 243.367 197.334 261.054 196.635 264.713C195.021 273.108 209.042 278.579 203.555 287.495C203.017 288.374 204.362 289.127 204.918 288.302C207.141 285.019 206.334 281.449 204.739 278.041C203.663 275.727 202.139 273.718 200.651 271.673C196.832 266.471 198.93 262.094 202.247 257.646C204.29 254.901 210.405 248.067 209.221 243.528C209.508 243.169 209.759 242.775 209.992 242.38C210.189 242.488 210.422 242.506 210.656 242.362C213.972 240.317 221.449 234.918 218.114 230.272C214.654 225.429 207.715 228.891 203.502 232.155C193.3 236.102 188.584 247.026 183.797 255.959C183.636 256.264 184.084 256.533 184.263 256.228C188.064 250.237 191.094 243.152 196.401 238.308C198.589 236.317 201.35 234.165 204.201 233.178C206.908 232.245 209.885 231.725 210.656 236.712C210.907 238.398 209.616 240.64 208.522 242.165C208.145 241.645 207.643 241.142 206.926 240.748C198.32 235.815 186.684 260.175 183.223 265.144C183.008 265.449 183.492 265.825 183.743 265.538L183.761 265.52ZM210.871 240.461C212.502 236.012 211.247 231.043 206.37 231.42C209.938 229.303 214.008 227.438 216.698 230.702C219.477 234.057 213.955 238.416 210.871 240.461Z" fill="#282828"/>
<path d="M379.481 174.341C387.89 167.955 398.845 157.963 404.386 148.851C405.659 146.77 408.276 147.057 409.585 148.851C411.952 152.079 412.848 158.089 416.273 159.918C420.074 161.945 425.31 159.219 429.182 157.748C435.565 155.308 443.921 150.214 451.057 151.111C456.292 151.775 457.457 154.555 459.394 158.914C461.599 163.829 462.012 166.286 467.857 167.632C472.339 168.654 475.441 167.991 479.35 170.448C482.469 172.403 481.662 176.726 478.381 177.91C472.751 179.937 461.115 179.417 456.059 175.56C453.441 173.551 451.792 170.125 450.716 167.076C450.357 166.071 450.178 162.268 449.407 161.658C447.112 159.883 443.401 162.035 441.213 162.717C433.073 165.282 424.772 171.471 415.789 170.107C406.752 168.726 407.47 161.425 405.408 154.573C396.264 160.008 389.827 170.43 380.414 175.883C379.374 176.493 378.585 175.004 379.499 174.323L379.481 174.341Z" fill="#0E103D"/>
<path d="M371.072 111.808C376.433 102.176 381.382 91.3948 384.501 80.7755C385.093 78.7305 386.832 77.6184 388.876 77.4569C396.676 76.8291 407.147 82.4258 412.041 74.7303C414.623 70.6584 414.767 65.2949 418.98 62.2992C426.385 57.0254 437.842 62.5503 445.964 66.6043C448.707 62.1019 449.712 57.0254 454.284 53.4378C459.196 49.5631 466.207 56.4693 461.24 60.3977C456.274 64.3083 455.18 71.5553 450.967 76.3268C449.425 78.0668 446.915 77.9951 444.996 77.0982C440.496 74.9994 430.796 68.452 425.883 70.3534C423.319 71.34 422.925 74.3536 421.939 76.6138C419.769 81.5827 417.779 86.8565 412.454 89.1346C406.214 91.7895 401.248 86.8027 395.438 87.3946C385.918 88.3454 379.284 106.822 374.138 113.638C372.811 115.396 369.978 113.907 371.108 111.862L371.072 111.808Z" fill="#0E103D"/>
<path d="M326.033 33.9569C331.197 30.9971 341.596 31.7326 344.267 25.508C346.903 19.3732 344.088 10.0633 345.182 3.44412C346.06 -1.88351 355.133 -0.699592 354.667 4.73566C353.914 13.7765 357.231 26.1179 350.848 33.7237C346.885 38.4594 338.673 41.2577 331.824 41.2756C332.237 48.5765 332.649 56.541 330.049 63.1781C329.493 64.6132 327.593 64.6849 327.055 63.1781C324.222 55.2674 326.804 46.3342 324.348 38.1544C323.881 36.6117 324.652 34.782 326.051 33.9748L326.033 33.9569Z" fill="#0E103D"/>
<path d="M100.173 86.2824C111.504 90.0673 122.764 94.1034 133.899 98.4444C140.353 100.974 142.989 103.629 150.591 97.422C153.263 95.2335 154.984 91.323 157.781 88.9372C159.664 87.3407 162.479 87.0178 164.325 88.9372C170.977 95.8255 179.261 101.673 186.522 107.916C187.885 109.1 186.128 111.324 184.604 110.391C179.906 107.521 175.011 104.059 169.955 101.853C164.146 99.3234 163.501 98.5521 159.215 102.463C155.038 106.283 153.496 112.006 147.149 113.279C141.07 114.499 134.114 109.745 128.878 107.701C118.497 103.646 107.936 99.9871 97.358 96.5071C90.9033 94.3904 93.6824 84.1119 100.173 86.2824Z" fill="#0E103D"/>
<path d="M105.444 197.983C119.197 195.884 133.72 195.866 146.934 191.22C144.89 183.256 145.23 173.175 151.882 168.08C159.718 162.071 174.671 165.425 183.241 167.883C185.931 168.654 186.182 172.959 183.241 173.587C177.54 174.807 171.73 173.892 165.939 174.305C154.93 175.094 155.128 184.225 158.731 192.889C159.538 194.826 158.229 198.073 156.275 198.916C140.766 205.625 123.464 206.647 106.843 208.28C101.034 208.854 99.5994 198.862 105.444 197.983Z" fill="#0E103D"/>
</g>
<defs>
<clipPath id="clip0_108_908">
<rect width="574" height="439" fill="white"/>
</clipPath>
</defs>
</svg>
