<svg width="574" height="437" viewBox="0 0 574 437" fill="none" xmlns="http://www.w3.org/2000/svg">
<g clip-path="url(#clip0_108_970)">
<path d="M93.0011 76.6154H480.999C532.331 76.6154 574 118.304 574 169.662V437H0V169.662C0 118.304 41.6685 76.6154 93.0011 76.6154Z" fill="#8B5CF6"/>
<path d="M272.405 22.3334C272.728 22.6205 273.051 22.9075 273.356 23.1945C274.611 24.3426 275.794 25.5444 276.87 26.7463C277.677 27.6432 278.448 28.5581 279.165 29.455C284.221 32.5943 286.426 40.0208 288.273 45.1153C289.313 47.9855 290.048 51.2324 285.727 51.9499C283.038 52.3984 279.541 50.8736 276.977 50.2099C277.605 50.3713 278.286 50.5866 279.003 50.8019C284.382 57.9414 291.554 70.4086 294.584 88.8315C295.337 89.6925 296.126 90.5177 297.059 91.2353C300.286 93.7287 305.826 96.0607 310.595 95.7019C308.802 95.2176 307.78 94.9665 307.78 94.9665L303.8 54.856C303.8 54.856 311.08 54.856 322.321 55.5376C321.909 53.3491 321.425 51.1786 320.851 49.008C319.722 44.7745 319.112 41.0971 319.399 36.6663C319.56 34.119 319.847 31.5359 319.363 29.0066C318.987 27.0692 318.126 25.3471 316.978 23.8762C315.49 13.2207 306.077 4.03616 294.997 3.91059C294.746 3.91059 294.459 3.92853 294.19 3.94647C289.331 -0.035879 277.677 -2.67284 274.503 4.57432C272.674 8.75399 275.166 11.6062 278.555 13.8306C278.788 13.9741 279.003 14.1355 279.219 14.2791C280.671 14.3329 281.872 14.9069 283.073 15.7321C285.602 17.4542 286.928 19.4812 288.327 22.6563C290.407 27.41 292.773 32.1817 293.311 37.3839C293.419 38.4422 291.769 38.4243 291.662 37.3839C291.124 32.092 288.542 26.8898 286.283 22.1002C284.526 18.387 282.392 16.4317 279.201 14.2791C274.664 14.2432 269.931 15.2657 267.026 18.2614C267.815 18.7816 268.604 19.3377 269.357 19.8938C270.415 20.6831 271.419 21.5083 272.387 22.3514L272.405 22.3334ZM295.068 19.6785C291.877 16.5752 284.418 15.4271 285.261 9.68679C285.727 6.51168 288.632 4.89721 291.626 4.25142C292.594 4.10792 292.917 3.85678 293.903 3.91059C294.459 4.46669 292.881 5.41743 291.052 6.26054C285.243 9.16658 287.592 13.3283 290.676 14.6378C292.737 16.1805 294.979 16.6649 296.718 18.6381C297.596 18.1896 298.547 17.8309 299.551 17.6694C304.822 16.7725 310.38 18.7637 315.203 22.0105C315.436 22.172 316.692 23.2483 316.871 23.7147C316.871 24.1632 314.217 23.033 311.564 21.6518C307.924 19.7503 303.137 18.6022 299.067 19.6068C295.875 20.3961 291.572 24.1094 295.248 27.6791C296.503 28.8989 298.941 29.1321 300.519 29.8856C303.28 31.1951 304.804 33.0248 305.396 36.0385C306.149 39.9132 306.041 44.5593 304.463 48.2187C302.258 53.3132 295.194 57.188 296.879 63.4844C297.184 64.5966 295.463 65.063 295.158 63.9508C293.688 58.7307 297.328 55.0174 300.358 51.2144C303.639 47.0886 304.302 42.6757 303.71 37.5453C303.173 32.9172 299.802 31.787 296.144 30.1905C290.46 27.715 291.465 22.6025 295.086 19.6965L295.068 19.6785Z" fill="#FEB9B2"/>
<path d="M288.937 80.2389C290.729 83.1629 292.343 86.2662 294.584 88.8314C292.361 86.2483 290.747 83.1449 288.937 80.2389Z" fill="#FEB9B2"/>
<path d="M273.086 49.4205C273.176 49.4205 273.284 49.4564 273.373 49.4564C273.284 49.4564 273.194 49.4205 273.086 49.4205Z" fill="#EA9898"/>
<path d="M275.65 49.887C275.489 49.8511 275.328 49.8153 275.148 49.7794C274.933 49.7435 274.718 49.6897 274.503 49.6538C274.377 49.6359 274.252 49.6 274.126 49.5821C273.875 49.5462 273.606 49.4924 273.355 49.4565C273.266 49.4565 273.176 49.4206 273.068 49.4206C272.8 49.3847 272.531 49.3489 272.262 49.313C271.15 49.3847 270.002 49.4206 268.855 49.4386C274.826 55.2686 279.864 62.5337 283.414 70.9468C283.952 72.2384 284.454 73.512 284.938 74.7857C285.763 75.7364 286.552 76.723 287.305 77.7814C287.878 78.5707 288.398 79.3959 288.918 80.239C290.729 83.163 292.325 86.2663 294.566 88.8315C291.554 70.4087 284.382 57.9414 278.985 50.8019C278.268 50.5866 277.587 50.3714 276.959 50.2099C276.69 50.1382 276.385 50.0664 276.081 49.9947C275.937 49.9588 275.776 49.9229 275.632 49.887H275.65Z" fill="#EA9898"/>
<path d="M286.301 22.0644C288.56 26.8539 291.124 32.0561 291.679 37.348C291.787 38.3884 293.437 38.4063 293.329 37.348C292.791 32.1458 290.424 27.3562 288.345 22.6204C286.946 19.4453 285.619 17.4183 283.091 15.6962C281.89 14.871 280.689 14.297 279.236 14.2432C282.428 16.3778 284.561 18.3511 286.319 22.0644H286.301Z" fill="#302D24"/>
<path d="M296.126 30.1905C299.802 31.7871 303.172 32.9172 303.692 37.5453C304.284 42.6937 303.638 47.0886 300.339 51.2145C297.309 55.0174 293.67 58.7307 295.14 63.9508C295.445 65.063 297.166 64.5966 296.861 63.4844C295.176 57.188 302.24 53.3133 304.445 48.2187C306.023 44.5593 306.131 39.9132 305.378 36.0385C304.786 33.0248 303.244 31.213 300.501 29.8856C298.941 29.1322 296.485 28.899 295.229 27.6792C291.554 24.1094 295.857 20.3961 299.048 19.6068C303.119 18.6023 307.888 19.7503 311.545 21.6518C314.199 23.0331 316.853 24.1811 316.853 23.7147C316.673 23.2483 315.418 22.172 315.185 22.0106C310.362 18.7637 304.804 16.7725 299.533 17.6695C298.529 17.8489 297.578 18.1897 296.7 18.6381C294.961 16.647 292.737 16.1806 290.657 14.6379C287.574 13.3463 285.243 9.16662 291.034 6.26058C292.863 5.41747 294.441 4.46673 293.885 3.91063C292.917 3.85682 292.594 4.10796 291.608 4.25146C288.631 4.89725 285.709 6.51172 285.243 9.68683C284.4 15.4092 291.859 16.5752 295.05 19.6786C291.428 22.5846 290.424 27.6971 296.108 30.1726L296.126 30.1905Z" fill="#302D24"/>
<path d="M289.994 155.706C289.994 155.706 289.922 155.724 289.869 155.742C289.905 155.742 289.94 155.724 289.994 155.706Z" fill="#FEB9B2"/>
<path d="M291.733 155.15C291.733 155.15 291.59 155.204 291.536 155.222C291.608 155.204 291.68 155.186 291.733 155.15Z" fill="#FEB9B2"/>
<path d="M346.939 134.826C346.939 134.826 346.795 134.88 346.724 134.915C346.795 134.88 346.867 134.862 346.939 134.826Z" fill="#FEB9B2"/>
<path d="M320.027 145.41C320.027 145.41 319.865 145.463 319.793 145.499C319.865 145.463 319.937 145.445 320.027 145.41Z" fill="#FEB9B2"/>
<path d="M322.985 144.315C322.985 144.315 322.859 144.351 322.806 144.387C322.859 144.369 322.931 144.351 322.985 144.315Z" fill="#FEB9B2"/>
<path d="M332.308 140.799C332.201 140.835 332.111 140.871 332.003 140.925C332.111 140.889 332.201 140.853 332.308 140.799Z" fill="#FEB9B2"/>
<path d="M293.526 154.558C293.526 154.558 293.437 154.594 293.401 154.594C293.437 154.594 293.491 154.576 293.526 154.558Z" fill="#FEB9B2"/>
<path d="M344.196 136.01C344.196 136.01 344.088 136.064 344.034 136.082C344.088 136.064 344.142 136.028 344.196 136.01Z" fill="#FEB9B2"/>
<path d="M356.997 130.09C356.997 130.09 356.836 130.18 356.764 130.216C356.854 130.18 356.926 130.126 356.997 130.09Z" fill="#FEB9B2"/>
<path d="M300.179 152.334C300.179 152.334 300.125 152.352 300.089 152.37C300.125 152.37 300.143 152.352 300.179 152.334Z" fill="#FEB9B2"/>
<path d="M295.642 153.859C295.642 153.859 295.481 153.912 295.409 153.93C295.481 153.912 295.571 153.877 295.642 153.859Z" fill="#FEB9B2"/>
<path d="M297.919 153.105C297.919 153.105 297.776 153.159 297.704 153.177C297.776 153.159 297.848 153.123 297.919 153.105Z" fill="#FEB9B2"/>
<path d="M305.414 150.558C305.414 150.558 305.324 150.594 305.271 150.612C305.324 150.612 305.36 150.576 305.414 150.558Z" fill="#FEB9B2"/>
<path d="M308.175 149.607C308.067 149.643 307.96 149.679 307.87 149.715C307.978 149.679 308.085 149.643 308.175 149.607Z" fill="#FEB9B2"/>
<path d="M323.379 73.207C323.343 73.5658 322.859 73.5658 322.823 73.207C322.321 68.0945 321.765 62.9641 320.887 57.9055C320.08 58.5333 318.699 58.336 317.193 58.2463C315.849 58.1746 314.719 58.1387 313.715 58.049C314.325 59.4482 314.827 60.8833 315.113 62.3901C317.444 67.0362 318.879 72.346 319.273 77.4226C319.632 81.9251 320.062 88.7059 317.032 92.5268C315.4 94.5718 313.105 95.5046 310.595 95.684C322.913 98.9847 371.323 112.6 368.132 121.802C367.432 123.794 364.044 126.305 358.969 129.05L371.466 143.831L370.355 141.553L406.68 171.402C405.461 172.407 404.224 173.412 402.969 174.398C424.897 157.087 444.297 135.077 445.014 111.075C446.287 67.7537 360.906 57.7978 322.321 55.5197C323.415 61.3497 323.845 67.2514 323.397 73.207H323.379Z" fill="#FEB9B2"/>
<path d="M399.544 177.053C400.566 176.282 401.57 175.492 402.592 174.703C401.588 175.492 400.566 176.282 399.544 177.053Z" fill="#FEB9B2"/>
<path d="M307.762 94.9485C307.762 94.9485 308.802 95.2176 310.577 95.684C313.088 95.5046 315.383 94.5898 317.014 92.5268C320.044 88.7059 319.614 81.9072 319.255 77.4226C318.861 72.3281 317.427 67.0183 315.096 62.3901C314.827 60.8833 314.307 59.4482 313.697 58.049C314.719 58.1387 315.849 58.1746 317.176 58.2463C318.682 58.336 320.062 58.5333 320.869 57.9055C321.748 62.9821 322.303 68.0946 322.805 73.207C322.841 73.5658 323.325 73.5658 323.361 73.207C323.827 67.2515 323.361 61.3497 322.285 55.5197C311.044 54.856 303.764 54.838 303.764 54.838L307.745 94.9485H307.762Z" fill="#FEB9B2"/>
<path d="M370.355 141.553L371.467 143.831L399.544 177.035C400.566 176.264 401.588 175.474 402.592 174.685C402.718 174.595 402.844 174.488 402.969 174.398C404.206 173.412 405.461 172.425 406.68 171.402L370.355 141.553Z" fill="#302D24"/>
<path d="M359.669 378.198C362.251 383.956 366.769 387.292 372.919 383.992C374.443 383.167 375.877 382.162 377.312 381.193C371.144 369.031 367.145 361.335 367.145 361.335C363.416 362.932 359.561 364.385 355.67 365.766C356.872 369.964 357.876 374.215 359.669 378.198Z" fill="#ED506B"/>
<path d="M296.7 383.92C278.699 387.759 256.896 390.593 233.982 389.463C231.974 399.06 229.034 408.729 219.083 412.281C217.774 412.747 211.14 414.344 205.456 414.756C203 421.501 200.31 428.999 197.531 437.018H297.704C299.264 419.51 298.439 401.464 296.682 383.938L296.7 383.92Z" fill="#ED506B"/>
<path d="M301.362 414.075C301.505 418.021 301.595 421.986 301.577 425.95C313.931 422.308 313.823 413.59 312.944 402.217C312.407 395.149 310.972 387.92 310.058 380.745C306.669 381.642 303.101 382.521 299.318 383.364C300.609 393.535 300.985 403.868 301.362 414.075Z" fill="#ED506B"/>
<path d="M219.172 408.424C226.488 405.052 229.195 397.159 231.203 389.284C226.039 388.961 220.84 388.441 215.622 387.669C216.734 384.799 217.559 382.718 218.025 381.534C216.59 385.176 211.731 397.517 205.456 414.72C205.851 413.626 206.245 412.568 206.621 411.509C211.319 411.115 216.447 409.662 219.154 408.424H219.172Z" fill="#ED506B"/>
<path d="M218.079 381.426C218.15 381.247 218.204 381.104 218.258 380.978C218.204 381.104 218.15 381.265 218.079 381.426Z" fill="#ED506B"/>
<path d="M360.619 386.36C355.563 381.391 354.2 373.856 352.874 366.771C349.467 367.919 346.007 369.013 342.474 370.018C342.474 370.018 331.035 375.04 312.891 380.009C317.14 399.401 324.419 424.12 301.72 429.538C301.649 429.556 301.577 429.538 301.505 429.538C301.451 432.031 301.326 434.524 301.165 437.018H404.834C395.475 417.447 386.151 398.719 379.123 384.799C373.331 388.817 366.321 391.956 360.619 386.378V386.36Z" fill="#ED506B"/>
<path d="M301.72 429.52C324.419 424.12 317.14 399.383 312.89 379.991C311.958 380.243 311.008 380.494 310.057 380.745C310.972 387.92 312.406 395.149 312.944 402.217C313.805 413.59 313.912 422.308 301.577 425.95C301.595 421.985 301.505 418.003 301.361 414.075C300.967 403.868 300.608 393.535 299.317 383.364C298.457 383.561 297.578 383.741 296.7 383.92C298.457 401.428 299.264 419.492 297.722 437H301.182C301.361 434.507 301.469 432.013 301.523 429.52C301.595 429.52 301.666 429.52 301.738 429.52H301.72Z" fill="#A0325A"/>
<path d="M233.982 389.463C233.067 389.409 232.135 389.337 231.203 389.284C229.177 397.159 226.487 405.052 219.172 408.424C216.465 409.662 211.337 411.115 206.639 411.509C206.263 412.55 205.868 413.626 205.474 414.72C205.474 414.72 205.474 414.72 205.474 414.738C211.157 414.326 217.791 412.729 219.1 412.263C229.069 408.711 231.992 399.06 234 389.445L233.982 389.463Z" fill="#A0325A"/>
<path d="M379.123 384.781C379.123 384.781 379.087 384.727 379.087 384.691C379.087 384.727 379.123 384.745 379.123 384.781Z" fill="#A0325A"/>
<path d="M359.669 378.198C357.876 374.215 356.872 369.964 355.67 365.766C354.738 366.089 353.806 366.43 352.855 366.753C354.2 373.856 355.545 381.391 360.601 386.342C366.303 391.92 373.313 388.781 379.104 384.763C379.104 384.727 379.069 384.709 379.069 384.673C378.459 383.489 377.885 382.323 377.312 381.211C377.312 381.211 377.312 381.193 377.312 381.175C375.877 382.162 374.461 383.149 372.919 383.974C366.769 387.274 362.251 383.938 359.669 378.18V378.198Z" fill="#A0325A"/>
<path d="M218.024 381.534C218.024 381.534 218.06 381.462 218.078 381.427C218.078 381.462 218.042 381.498 218.024 381.534Z" fill="#302D24"/>
<path d="M218.258 380.978C218.258 380.978 218.294 380.888 218.312 380.834C218.312 380.87 218.276 380.924 218.258 380.978Z" fill="#302D24"/>
<path d="M312.891 379.991C331.035 375.022 342.474 370 342.474 370C332.792 372.726 322.662 374.879 312.173 376.529C312.406 377.659 312.64 378.807 312.908 379.973L312.891 379.991Z" fill="#302D24"/>
<path d="M235.739 380.96C235.13 383.669 234.592 386.557 234 389.463C256.914 390.593 278.717 387.759 296.718 383.92C296.539 382.162 296.359 380.422 296.162 378.664C277.013 380.745 256.771 381.373 235.757 380.942L235.739 380.96Z" fill="#302D24"/>
<path d="M298.583 378.431C298.851 380.063 299.102 381.714 299.3 383.364C303.083 382.521 306.651 381.642 310.04 380.745C309.878 379.471 309.735 378.198 309.627 376.942C305.987 377.48 302.312 378 298.583 378.431Z" fill="#302D24"/>
<path d="M231.203 389.284C231.938 386.413 232.584 383.561 233.337 380.906C228.424 380.781 223.475 380.637 218.473 380.404C218.473 380.404 218.419 380.565 218.312 380.817C218.312 380.853 218.276 380.906 218.258 380.96C218.204 381.086 218.15 381.247 218.078 381.409C218.078 381.444 218.043 381.48 218.025 381.516C217.558 382.7 216.734 384.781 215.622 387.651C220.84 388.423 226.039 388.943 231.203 389.266V389.284Z" fill="#302D24"/>
<path d="M298.582 378.431C297.775 378.52 296.951 378.592 296.126 378.682C296.323 380.422 296.502 382.18 296.682 383.938C297.56 383.759 298.439 383.561 299.3 383.382C299.084 381.731 298.833 380.081 298.582 378.449V378.431Z" fill="#302D24"/>
<path d="M309.645 376.942C309.771 378.216 309.896 379.471 310.058 380.745C311.026 380.494 311.958 380.243 312.891 379.991C312.64 378.825 312.389 377.677 312.156 376.547C311.313 376.673 310.47 376.816 309.627 376.942H309.645Z" fill="#302D24"/>
<path d="M233.337 380.906C232.584 383.561 231.938 386.413 231.203 389.284C232.135 389.337 233.05 389.409 233.982 389.463C234.592 386.557 235.13 383.687 235.721 380.96C234.933 380.96 234.126 380.924 233.337 380.906Z" fill="#302D24"/>
<path d="M236.421 378.108L295.194 370.574C294.997 368.977 294.8 367.381 294.584 365.802C294.495 365.049 295.66 364.959 295.857 365.623C296.288 367.183 296.664 368.762 297.023 370.34L309.305 368.762C309.305 368.134 309.305 367.506 309.323 366.896C309.376 365.946 310.757 365.946 310.811 366.896C310.829 367.434 310.882 367.991 310.936 368.565L330.82 366.017L352.21 363.273L354.308 363.004L367.182 361.353C367.182 361.353 366.464 287.034 355.187 228.357C351.923 231.174 350.095 232.788 350.095 232.788L285.01 157.339C285.01 157.339 281.747 193.951 266.238 196.624C250.728 199.297 219.316 178.775 219.316 178.775C220.356 177.394 221.109 175.726 221.665 173.878C216.519 175.654 211.606 177.358 207.07 178.919L207.823 193.61C211.409 203.979 212.18 213.863 212.162 225.092C212.162 234.743 212.933 244.753 210.943 254.278L211.229 259.732C211.229 259.732 208.683 259.588 204.309 259.283C219.352 317.332 219.603 363.309 218.527 380.422L235.668 378.215L236.456 378.108H236.421ZM242.983 315.825C249.545 320.866 257.613 323.288 265.072 326.696C274.467 331.001 283.737 334.804 293.796 337.316C304.392 339.953 315.329 341.746 326.248 342.195C334.747 342.536 345.003 344.294 353.107 341.316C355.474 340.455 356.496 344.24 354.147 345.101C345.54 348.222 335.213 346.428 326.248 346.034C315.562 345.567 304.912 343.827 294.549 341.244C283.594 338.535 273.535 334.445 263.441 329.494C255.946 325.817 248.254 322.785 242.104 316.991C241.513 316.435 242.319 315.341 242.983 315.843V315.825Z" fill="#F8FA90"/>
<path d="M285.512 157.159C285.512 157.159 285.601 157.123 285.655 157.123C286.032 156.998 286.57 156.836 287.269 156.603C287.269 156.603 287.287 156.603 287.305 156.603C287.43 156.567 287.574 156.514 287.717 156.478C285.207 156.783 282.643 157.141 280.061 157.59C282.876 158.092 285.01 157.357 285.01 157.357C285.01 157.357 285.099 157.321 285.261 157.285C285.332 157.267 285.422 157.231 285.53 157.195L285.512 157.159Z" fill="#F8FA90"/>
<path d="M209.114 219.298L209.688 230.492C209.616 226.761 209.419 223.029 209.114 219.298Z" fill="#F8FA90"/>
<path d="M285.638 157.105C285.638 157.105 285.548 157.141 285.494 157.141C285.548 157.141 285.584 157.105 285.638 157.105Z" fill="#F8FA90"/>
<path d="M284.992 157.321C284.992 157.321 285.099 157.285 285.243 157.249C285.081 157.303 284.992 157.321 284.992 157.321Z" fill="#F8FA90"/>
<path d="M352.856 366.771C352.622 365.587 352.407 364.421 352.174 363.273L330.784 366.017L342.456 370.018C345.989 369.013 349.449 367.937 352.856 366.771Z" fill="#F8FA90"/>
<path d="M354.81 362.914C355.115 363.865 355.384 364.815 355.67 365.766C359.561 364.385 363.416 362.932 367.145 361.335L354.272 362.986L354.81 362.914Z" fill="#F8FA90"/>
<path d="M310.793 366.896C310.757 365.946 309.358 365.946 309.305 366.896C309.269 367.524 309.305 368.152 309.287 368.762L310.918 368.547C310.864 367.973 310.829 367.417 310.793 366.878V366.896Z" fill="#F8FA90"/>
<path d="M295.857 365.623C295.678 364.941 294.495 365.049 294.584 365.802C294.8 367.381 294.997 368.977 295.194 370.574L297.023 370.34C296.664 368.762 296.288 367.183 295.857 365.623Z" fill="#F8FA90"/>
<path d="M236.421 378.108L235.614 378.216L236.421 378.108Z" fill="#F8FA90"/>
<path d="M352.174 363.255L354.272 362.986L352.174 363.255Z" fill="#F8FA90"/>
<path d="M355.671 365.766C355.402 364.815 355.115 363.865 354.81 362.914L354.272 362.986L352.174 363.255C352.407 364.403 352.64 365.569 352.856 366.753C353.806 366.43 354.72 366.089 355.671 365.766Z" fill="#F8FA90"/>
<path d="M235.613 378.216L218.473 380.404L235.093 378.287L235.613 378.216Z" fill="#F8FA90"/>
<path d="M234.107 378.413L235.112 378.287L218.491 380.422C223.493 380.655 228.442 380.799 233.354 380.924C233.587 380.063 233.839 379.22 234.107 378.431V378.413Z" fill="#F8FA90"/>
<path d="M312.155 376.547C322.644 374.879 332.775 372.744 342.457 370L330.784 365.999L310.9 368.547C311.116 370.986 311.582 373.677 312.155 376.529V376.547Z" fill="#F8FA90"/>
<path d="M309.287 368.762L297.005 370.341C297.614 373.013 298.152 375.722 298.583 378.431C302.312 378 305.988 377.498 309.627 376.942C309.358 374.197 309.233 371.471 309.269 368.762H309.287Z" fill="#F8FA90"/>
<path d="M236.421 378.108V378.144C236.17 379.059 235.954 379.991 235.739 380.96C256.771 381.391 276.995 380.763 296.144 378.682C295.839 375.955 295.517 373.265 295.194 370.574L236.421 378.108Z" fill="#F8FA90"/>
<path d="M295.194 370.574C295.535 373.264 295.839 375.955 296.144 378.682C296.951 378.592 297.794 378.52 298.6 378.431C298.17 375.722 297.632 373.013 297.023 370.34L295.194 370.574Z" fill="#F8FA90"/>
<path d="M309.645 376.942C310.488 376.816 311.331 376.673 312.173 376.547C311.6 373.695 311.134 371.004 310.918 368.565L309.287 368.78C309.251 371.489 309.376 374.215 309.645 376.96V376.942Z" fill="#F8FA90"/>
<path d="M236.421 378.108L235.614 378.216L235.094 378.287L236.421 378.108Z" fill="#F8FA90"/>
<path d="M236.402 378.162V378.126L235.094 378.287L234.089 378.413C233.821 379.22 233.57 380.063 233.336 380.906C234.125 380.924 234.932 380.942 235.721 380.96C235.936 380.009 236.151 379.059 236.402 378.144V378.162Z" fill="#F8FA90"/>
<path d="M267.636 140.71C267.69 140.997 267.743 141.266 267.815 141.535C267.761 141.266 267.69 140.979 267.636 140.71Z" fill="#FEB9B2"/>
<path d="M269.841 148.029C246.031 152.208 229.482 141.696 229.482 141.696C225.537 140.638 221.664 139.185 217.971 137.391C220.588 146.127 224.82 163.169 221.646 173.842C239.648 167.653 260.715 160.819 280.061 157.554C276.852 156.98 272.746 154.773 269.841 148.029Z" fill="#FEB9B2"/>
<path d="M269.214 146.468C269.214 146.468 269.268 146.611 269.286 146.665C269.268 146.593 269.232 146.522 269.214 146.468Z" fill="#FEB9B2"/>
<path d="M268.102 142.826C268.156 143.024 268.21 143.239 268.263 143.436C268.21 143.239 268.156 143.042 268.102 142.826Z" fill="#FEB9B2"/>
<path d="M280.043 157.554C260.697 160.819 239.648 167.653 221.629 173.842C221.073 175.69 220.32 177.358 219.28 178.739C219.28 178.739 250.693 199.261 266.202 196.588C281.711 193.915 284.974 157.303 284.974 157.303C284.974 157.303 282.84 158.038 280.025 157.536L280.043 157.554Z" fill="#FEB9B2"/>
<path d="M268.766 145.141C268.909 145.607 269.07 146.037 269.214 146.468C269.052 146.037 268.909 145.589 268.766 145.141Z" fill="#302D24"/>
<path d="M267.797 141.535C267.887 141.983 267.995 142.396 268.102 142.826C267.995 142.414 267.887 141.983 267.797 141.535Z" fill="#302D24"/>
<path d="M267.636 140.71C267.582 140.459 267.529 140.207 267.493 139.956C267.546 140.225 267.6 140.459 267.654 140.71H267.636Z" fill="#302D24"/>
<path d="M269.214 146.468C269.053 146.037 268.909 145.589 268.766 145.141C268.73 145.015 268.676 144.871 268.64 144.746C268.515 144.315 268.389 143.885 268.264 143.436C268.21 143.239 268.156 143.042 268.102 142.826C267.995 142.414 267.887 141.983 267.797 141.535C267.744 141.266 267.672 140.979 267.618 140.71C267.564 140.459 267.511 140.207 267.457 139.956C256.197 144.71 242.409 145.194 229.464 141.696C229.464 141.696 246.031 152.19 269.824 148.029C269.644 147.598 269.465 147.15 269.286 146.683C269.268 146.611 269.232 146.558 269.214 146.486V146.468Z" fill="#302D24"/>
<path d="M266.47 132.063C266.542 132.996 266.614 133.875 266.704 134.736C266.739 135.077 266.775 135.382 266.829 135.723C266.883 136.225 266.955 136.727 267.008 137.212C267.062 137.606 267.134 137.983 267.188 138.378C267.241 138.754 267.313 139.131 267.367 139.472C267.403 139.633 267.439 139.795 267.457 139.956C291.859 129.642 295.588 103.003 284.938 74.7857C282.32 71.772 279.344 69.2427 275.758 67.2874C275.435 67.108 275.095 66.9286 274.736 66.7492C274.557 66.6595 274.377 66.5699 274.198 66.4802C273.929 66.3367 273.642 66.1931 273.355 66.0496C273.051 65.8882 272.728 65.7267 272.405 65.5653C272.262 65.4935 272.136 65.4218 271.993 65.35C271.132 64.9016 270.254 64.4172 269.357 63.897C269.232 63.8253 269.124 63.7535 268.999 63.6818C268.676 63.4844 268.371 63.2871 268.048 63.0898C267.905 63.0001 267.761 62.9104 267.636 62.8028C267.385 62.6413 267.152 62.4619 266.901 62.2826C264.498 65.2245 261.755 67.9152 258.277 68.2561C257.416 68.3458 257.201 67.108 257.864 66.7134C260.572 65.063 262.705 62.7848 264.713 60.417C263.153 58.8384 262.114 57.0266 262.167 54.9636C262.275 51.5733 264.301 50.0306 266.919 49.4565C257.972 49.3489 249.15 47.8959 249.15 47.8959C249.15 47.8959 256.107 49.313 249.115 57.6365C242.122 65.96 201.78 60.9192 201.78 60.9192C208.683 83.8626 212.215 111.183 206.424 118.95C210.1 123.704 211.695 129.139 211.014 133.463C213.237 134.934 215.568 136.243 217.953 137.391C216.931 133.983 216.142 131.848 216.142 131.848L266.453 132.045L266.47 132.063ZM265.395 76.6154C266.937 74.2655 268.066 71.4133 270.218 69.5835C271.168 68.4355 272.369 67.4847 273.947 66.8748C274.306 66.7313 274.879 66.8748 275.113 67.1798C275.364 67.4847 275.579 67.7717 275.794 68.0946C276.296 68.8301 275.794 69.5297 275.148 69.7629C275.113 69.7988 275.095 69.8526 275.041 69.8885C273.857 70.8751 272.602 71.9335 271.509 73.0995C272.029 72.8483 272.567 72.6151 273.104 72.3819C274.485 71.7361 275.937 71.2518 277.39 70.9827C279.003 70.6957 279.703 73.0995 278.071 73.4582C276.672 73.7632 275.364 74.2296 274.091 74.7498C271.993 75.7364 270.038 77.0998 268.389 78.6604C267.761 79.2703 266.937 79.073 266.506 78.5169C265.646 78.5169 264.785 77.4765 265.359 76.5975L265.395 76.6154ZM255.641 71.0904C256.968 73.4582 257.631 76.2028 259.227 78.4093C260.464 80.1314 262.167 81.0821 264.337 81.2256C265.144 81.2794 266.022 80.9924 266.811 81.2256C271.311 82.4993 267.977 89.4056 266.919 91.917C266.345 93.2982 264.462 92.491 265.036 91.1277C265.592 89.8182 268.676 84.329 266.112 83.163C265.592 82.9298 264.534 83.2706 263.907 83.2168C262.347 83.0733 260.876 82.5531 259.621 81.6203C256.502 79.3062 255.533 75.0368 254.673 71.485C254.547 70.9289 255.318 70.5701 255.605 71.0904H255.641ZM252.557 98.4825C256.663 98.3031 259.98 98.2672 264.032 97.1371C265.646 96.6886 267.152 96.5272 268.748 97.1371C272.423 98.5542 275.579 103.254 276.063 107.326C277.264 110.537 278.107 113.892 275.113 116.672C271.562 119.991 265.915 117.103 261.719 118.287C256.735 119.686 253.418 127.041 247.68 125.946C244.13 125.265 241.566 121.695 240.67 118.43C238.375 110.142 243.126 98.913 252.557 98.4825ZM248.828 86.8763C248.774 87.235 248.541 87.5579 248.164 87.6476C243.001 88.9033 237.962 89.3159 232.906 91.1097C231.561 91.5941 230.414 89.6208 231.508 88.688C233.301 87.1453 235.416 86.7866 237.711 86.4457C237.98 86.4098 238.249 86.356 238.518 86.3202C238.679 86.2843 238.841 86.2484 239.002 86.2125C237.514 86.1408 236.008 86.1049 234.502 86.087C232.673 86.087 232.673 83.2347 234.502 83.2527C239.11 83.2527 243.646 83.4859 248.128 84.6519C249.132 84.921 249.401 86.1587 248.864 86.8763H248.828ZM222.041 73.0277C225.878 72.6151 229.804 72.9739 233.677 72.8842C237.675 72.7766 241.638 72.077 245.618 72.0232C246.838 72.0232 246.855 73.5838 245.887 73.9785C239.128 76.7769 229.195 76.3463 222.059 75.5391C220.445 75.3597 220.445 73.2071 222.059 73.0277H222.041Z" fill="#FEB9B2"/>
<path d="M274.754 66.7492C274.593 66.6595 274.396 66.5698 274.216 66.4801C274.396 66.5698 274.575 66.6595 274.754 66.7492Z" fill="#FEB9B2"/>
<path d="M272.011 65.332C271.15 64.8836 270.271 64.3992 269.375 63.879C270.254 64.3992 271.15 64.8836 272.011 65.332Z" fill="#FEB9B2"/>
<path d="M269.034 63.6638C268.712 63.4664 268.407 63.2691 268.084 63.0718C268.389 63.2691 268.712 63.4664 269.034 63.6638Z" fill="#FEB9B2"/>
<path d="M262.203 54.9456C262.131 57.0265 263.189 58.8203 264.749 60.3989C264.839 60.2913 264.911 60.2016 265 60.094L262.526 53.1159C263.189 50.9453 264.946 49.869 267.062 49.4385C267.026 49.4385 266.99 49.4385 266.954 49.4385C264.337 50.0125 262.311 51.5552 262.203 54.9456Z" fill="#FEB9B2"/>
<path d="M266.937 62.2645C267.17 62.4439 267.421 62.6054 267.672 62.7847C267.421 62.6233 267.188 62.4439 266.937 62.2645Z" fill="#FEB9B2"/>
<path d="M268.084 63.0718C267.941 62.9821 267.797 62.8924 267.672 62.7848C267.815 62.8745 267.959 62.9642 268.084 63.0718Z" fill="#FEB9B2"/>
<path d="M275.776 67.2873C275.453 67.1079 275.112 66.9285 274.754 66.7491C275.112 66.9465 275.471 67.1259 275.776 67.2873Z" fill="#FEB9B2"/>
<path d="M267.062 49.4385C264.946 49.8869 263.189 50.9453 262.526 53.1159L265 60.0939C266.488 58.318 267.941 56.4704 269.518 54.7841C270.72 53.5105 272.62 55.4299 271.437 56.7036C270.003 58.2463 268.55 60.3092 266.937 62.2645C267.17 62.4439 267.421 62.6233 267.672 62.7847C267.815 62.8744 267.959 62.9641 268.084 63.0717C268.389 63.2691 268.712 63.4664 269.034 63.6637C269.16 63.7355 269.267 63.8072 269.393 63.879C270.271 64.3992 271.168 64.8835 272.029 65.332C272.172 65.4037 272.298 65.4755 272.441 65.5473C272.764 65.7087 273.086 65.8881 273.391 66.0316C273.678 66.1751 273.965 66.3186 274.234 66.4621C274.413 66.5518 274.593 66.6415 274.772 66.7312C275.13 66.9106 275.489 67.1079 275.794 67.2694C279.362 69.2246 282.356 71.754 284.974 74.7676C284.49 73.494 283.988 72.2024 283.45 70.9288C279.9 62.5156 274.861 55.2505 268.891 49.4205C268.281 49.4205 267.69 49.4205 267.08 49.4205L267.062 49.4385Z" fill="#FEB9B2"/>
<path d="M266.721 134.736C266.632 133.875 266.542 132.996 266.488 132.063C266.56 132.996 266.632 133.875 266.721 134.736Z" fill="#FEB9B2"/>
<path d="M267.026 137.212C266.955 136.727 266.901 136.225 266.847 135.723C266.901 136.225 266.973 136.727 267.026 137.212Z" fill="#FEB9B2"/>
<path d="M267.385 139.472C267.313 139.113 267.259 138.736 267.206 138.378C267.259 138.754 267.331 139.131 267.385 139.472Z" fill="#FEB9B2"/>
<path d="M266.471 132.063L216.16 131.866C216.16 131.866 216.931 134.001 217.971 137.409C221.665 139.203 225.537 140.638 229.482 141.714L249.509 132.009L266.489 132.081L266.471 132.063Z" fill="#FEB9B2"/>
<path d="M267.474 139.956C267.439 139.795 267.403 139.633 267.385 139.472C267.421 139.633 267.439 139.795 267.474 139.956Z" fill="#FEB9B2"/>
<path d="M267.206 138.36C267.152 137.983 267.08 137.588 267.026 137.194C267.08 137.588 267.152 137.965 267.206 138.36Z" fill="#FEB9B2"/>
<path d="M266.829 135.705C266.793 135.382 266.739 135.059 266.704 134.718C266.739 135.059 266.775 135.364 266.829 135.705Z" fill="#FEB9B2"/>
<path d="M267.474 139.956C267.439 139.795 267.421 139.633 267.385 139.472C267.313 139.113 267.259 138.736 267.205 138.378C267.152 138.001 267.08 137.606 267.026 137.212C266.954 136.727 266.901 136.225 266.847 135.723C266.811 135.4 266.757 135.077 266.721 134.736C266.632 133.875 266.542 132.996 266.488 132.063L249.509 131.992L229.481 141.696C242.427 145.194 256.215 144.71 267.474 139.956Z" fill="#FEB9B2"/>
<path d="M200.31 17.6694C193.533 22.8537 186.97 29.8317 183.582 36.9175C186.97 29.8497 193.533 22.8716 200.31 17.6694Z" fill="#302D24"/>
<path d="M192.439 49.869C194.304 52.1651 192.188 54.3357 190.377 55.8246C186.791 58.8024 179.207 65.8522 176.5 69.4041C179.494 67.8434 184.496 65.5473 189.301 64.2378C193.82 51.9499 202.533 41.9223 214.6 36.8098C214.959 36.6663 215.317 36.5228 215.676 36.3972C216.752 33.2759 217.397 30.0649 217.003 26.8001C216.859 25.5444 216.536 24.2708 215.73 23.3021C214.779 22.1899 213.309 21.6517 211.875 21.4006C205.761 20.3064 199.629 23.1945 194.573 26.7822C190.503 29.6703 186.809 33.0965 183.582 36.8995C181.556 41.133 180.659 45.4023 181.556 49.3488C185.321 47.824 190.216 47.1065 192.439 49.869Z" fill="#302D24"/>
<path d="M281.747 33.0428C280.993 31.8768 280.133 30.6749 279.183 29.4551C280.133 30.657 280.993 31.8588 281.747 33.0428Z" fill="#302D24"/>
<path d="M267.044 18.2256C265.986 17.526 264.91 16.8802 263.799 16.2703C264.91 16.8802 265.986 17.5439 267.044 18.2256Z" fill="#302D24"/>
<path d="M191.094 110.071C191.094 110.071 191.058 109.999 191.041 109.963C189.875 107.201 188.907 104.402 188.136 101.622C187.724 103.541 187.006 105.891 185.411 108.833C186.002 109.551 186.558 110.196 187.078 110.77C188.297 110.268 189.66 110.053 191.094 110.071Z" fill="#302D24"/>
<path d="M218.813 9.22034C218.903 9.22034 218.993 9.23828 219.1 9.25621C219.011 9.25621 218.921 9.23828 218.813 9.22034Z" fill="#302D24"/>
<path d="M202.139 16.324C202.803 15.8576 203.466 15.3912 204.111 14.9607C203.448 15.3912 202.803 15.8397 202.139 16.324Z" fill="#302D24"/>
<path d="M204.721 14.5482C205.026 14.3508 205.312 14.1715 205.617 13.9921C205.312 14.1715 205.026 14.3688 204.721 14.5482Z" fill="#302D24"/>
<path d="M247.017 11.7677C249.33 11.7497 251.589 12.0009 253.794 12.4673C251.589 11.9829 249.33 11.7318 247.017 11.7677Z" fill="#302D24"/>
<path d="M208.594 12.2699C208.791 12.1623 208.97 12.0726 209.168 11.9829C208.97 12.0726 208.791 12.1802 208.594 12.2699Z" fill="#302D24"/>
<path d="M213.614 10.0456C213.739 10.0097 213.865 9.97386 213.99 9.92004C213.865 9.95592 213.739 9.9918 213.614 10.0456Z" fill="#302D24"/>
<path d="M211.785 10.7631C211.929 10.6914 212.09 10.6375 212.233 10.5658C212.09 10.6196 211.929 10.6914 211.785 10.7631Z" fill="#302D24"/>
<path d="M216.447 9.32799C216.447 9.32799 216.572 9.31005 216.644 9.29211C216.572 9.29211 216.518 9.31005 216.447 9.32799Z" fill="#302D24"/>
<path d="M200.687 17.3824C201.063 17.0954 201.44 16.8084 201.834 16.5393C201.457 16.8084 201.081 17.0954 200.687 17.3824Z" fill="#302D24"/>
<path d="M268.622 49.2053C269.375 49.1515 270.146 49.1515 270.935 49.2053C270.971 49.2053 270.989 49.2053 271.025 49.2053C271.347 49.2233 271.688 49.2592 272.011 49.2771C272.065 49.2771 272.136 49.2771 272.19 49.295C272.226 49.295 272.244 49.295 272.28 49.295C277.228 48.9901 281.639 48.0573 283.898 45.9764C278.465 38.5857 269.321 34.3881 260.518 31.2489C254.888 29.2398 249.097 27.4459 243.144 27.2127C235.004 26.8898 226.864 29.76 220.481 34.8187C237.138 30.4237 255.229 36.1999 268.658 49.1874L268.622 49.2053Z" fill="#302D24"/>
<path d="M285.028 44.4875C285.1 44.3261 285.189 44.1826 285.243 44.0211C285.189 44.1826 285.117 44.344 285.028 44.4875Z" fill="#302D24"/>
<path d="M284.436 45.4203C284.275 45.6176 284.078 45.8149 283.88 46.0123C284.078 45.8329 284.275 45.6356 284.436 45.4203Z" fill="#302D24"/>
<path d="M210.171 11.4806C210.369 11.3909 210.566 11.2833 210.781 11.1936C210.584 11.2833 210.387 11.373 210.171 11.4806Z" fill="#302D24"/>
<path d="M284.508 45.3306C284.651 45.1512 284.777 44.9539 284.902 44.7566C284.795 44.9539 284.651 45.1512 284.508 45.3306Z" fill="#302D24"/>
<path d="M183.582 84.4546C184.227 84.1496 184.98 83.8267 185.805 83.5038C185.805 83.163 185.805 82.8042 185.805 82.4634C184.945 83.145 184.174 83.8088 183.564 84.4546H183.582Z" fill="#302D24"/>
<path d="M270.935 49.2053C270.164 49.1515 269.375 49.1515 268.622 49.2053C269.375 49.1515 270.146 49.1515 270.917 49.2053H270.935Z" fill="#302D24"/>
<path d="M269.375 19.8758C268.622 19.3018 267.833 18.7636 267.044 18.2434C267.833 18.7636 268.622 19.3197 269.375 19.8758Z" fill="#302D24"/>
<path d="M276.888 26.7463C275.794 25.5444 274.629 24.3605 273.374 23.1945C274.629 24.3425 275.812 25.5444 276.888 26.7463Z" fill="#302D24"/>
<path d="M271.024 49.2053C271.347 49.2233 271.688 49.2591 272.011 49.2771C271.688 49.2412 271.365 49.2233 271.024 49.2053Z" fill="#302D24"/>
<path d="M276.888 26.7463C277.695 27.6433 278.466 28.5581 279.183 29.4551C278.466 28.5581 277.712 27.6433 276.888 26.7463Z" fill="#302D24"/>
<path d="M269.375 19.8759C270.433 20.6651 271.437 21.4903 272.405 22.3334C271.437 21.4903 270.415 20.6651 269.375 19.8759Z" fill="#302D24"/>
<path d="M272.011 49.2771C272.011 49.2771 272.136 49.2771 272.19 49.295C272.136 49.295 272.065 49.295 272.011 49.2771Z" fill="#302D24"/>
<path d="M268.64 49.2054C268.64 49.2054 268.802 49.3489 268.873 49.4206C270.021 49.4206 271.168 49.3668 272.28 49.2951C272.262 49.2951 272.226 49.2951 272.208 49.2951C272.154 49.2951 272.083 49.2951 272.029 49.2771C271.706 49.2412 271.383 49.2233 271.043 49.2054C271.007 49.2054 270.989 49.2054 270.953 49.2054C270.182 49.1695 269.411 49.1695 268.658 49.2054H268.64Z" fill="#302D24"/>
<path d="M191.094 110.071C195.756 110.142 201.207 112.887 205.456 117.766C205.797 118.161 206.119 118.574 206.442 118.968C212.233 111.201 208.701 83.8626 201.798 60.9372C201.798 60.9372 242.14 65.9779 249.132 57.6544C256.125 49.3309 249.168 47.9138 249.168 47.9138C249.168 47.9138 257.99 49.3489 266.937 49.4744C267.475 49.3489 268.048 49.2951 268.622 49.2413C255.193 36.2538 237.12 30.4776 220.445 34.8725C217.056 37.5633 214.152 40.846 212.018 44.6311C213.363 41.9762 214.69 39.2495 215.676 36.4332C215.317 36.5767 214.959 36.7022 214.6 36.8457C202.515 41.9403 193.802 51.9858 189.301 64.2737C193.909 63.0001 198.338 62.6234 200.669 64.6504C203.304 66.9466 202.748 69.6911 200.4 71.9335C197.19 74.983 190.216 79.0371 185.841 82.5172C185.841 82.858 185.841 83.2168 185.841 83.5576C190.825 81.6203 198.499 79.5215 202.067 80.0596C204.613 80.4543 205.617 80.6875 206.352 83.4859C208.038 90.0334 191.973 91.6299 189.552 95.8096C188.71 97.2447 188.727 99.0744 188.19 101.676C188.961 104.474 189.929 107.254 191.094 110.017C191.094 110.053 191.13 110.089 191.148 110.125L191.094 110.071Z" fill="#302D24"/>
<path d="M268.64 49.2053C268.066 49.2412 267.492 49.313 266.955 49.4385C266.99 49.4385 267.026 49.4385 267.062 49.4385C267.564 49.3309 268.102 49.2591 268.64 49.2233V49.2053Z" fill="#302D24"/>
<path d="M267.062 49.4385C267.672 49.4385 268.263 49.4385 268.873 49.4385C268.801 49.3668 268.712 49.295 268.64 49.2233C268.102 49.2591 267.564 49.3309 267.062 49.4385Z" fill="#302D24"/>
<path d="M195.236 117.838C194.465 117.228 193.658 116.564 192.816 115.775C192.816 115.775 190.825 114.914 187.096 110.77C186.253 111.111 185.464 111.577 184.783 112.169C179.799 116.493 181 126.018 187.437 133.427C193.873 140.835 203.143 143.347 208.11 139.005C209.705 137.606 210.674 135.669 211.014 133.445C204.811 129.372 199.36 124.152 195.236 117.82V117.838Z" fill="#FEB9B2"/>
<path d="M206.424 118.968C204.201 121.964 200.579 122.036 195.236 117.838C199.378 124.17 204.81 129.39 211.014 133.462C211.695 129.139 210.1 123.722 206.424 118.95V118.968Z" fill="#FEB9B2"/>
<path d="M192.816 115.757C193.658 116.547 194.465 117.21 195.236 117.82C193.658 115.398 192.26 112.797 191.094 110.053C189.66 110.035 188.315 110.25 187.078 110.752C190.807 114.878 192.798 115.757 192.798 115.757H192.816Z" fill="#FEB9B2"/>
<path d="M206.424 118.968C206.119 118.556 205.796 118.161 205.438 117.766C201.189 112.887 195.738 110.16 191.076 110.071C192.242 112.815 193.64 115.416 195.218 117.838C200.561 122.036 204.183 121.964 206.406 118.968H206.424Z" fill="#FEB9B2"/>
<path d="M332.003 140.925C330.085 141.66 328.148 142.396 326.23 143.113C328.166 142.396 330.085 141.66 332.003 140.925Z" fill="#F8FA90"/>
<path d="M316.638 146.629C314.773 147.293 312.926 147.957 311.133 148.585C312.926 147.957 314.773 147.311 316.638 146.629Z" fill="#F8FA90"/>
<path d="M319.793 145.481C318.861 145.822 317.911 146.163 316.996 146.486C317.928 146.145 318.861 145.822 319.793 145.481Z" fill="#F8FA90"/>
<path d="M356.764 130.216C356.083 130.556 355.402 130.915 354.685 131.256C355.402 130.897 356.101 130.556 356.764 130.216Z" fill="#F8FA90"/>
<path d="M358.952 129.068C358.324 129.408 357.661 129.749 356.998 130.108C357.679 129.767 358.324 129.408 358.952 129.068Z" fill="#F8FA90"/>
<path d="M335.141 139.705C334.209 140.082 333.258 140.441 332.308 140.817C333.258 140.459 334.191 140.082 335.141 139.705Z" fill="#F8FA90"/>
<path d="M346.724 134.916C345.899 135.274 345.056 135.633 344.196 136.01C345.056 135.651 345.899 135.292 346.724 134.916Z" fill="#F8FA90"/>
<path d="M341.004 137.337C339.175 138.091 337.31 138.844 335.428 139.579C337.328 138.826 339.193 138.073 341.004 137.337Z" fill="#F8FA90"/>
<path d="M310.757 148.71C309.878 149.015 309.035 149.32 308.175 149.607C309.017 149.32 309.878 149.015 310.757 148.71Z" fill="#F8FA90"/>
<path d="M325.836 143.257C324.885 143.616 323.935 143.957 322.985 144.315C323.935 143.974 324.885 143.616 325.836 143.257Z" fill="#F8FA90"/>
<path d="M293.401 154.594C292.827 154.791 292.271 154.971 291.733 155.132C292.271 154.953 292.809 154.774 293.401 154.594Z" fill="#F8FA90"/>
<path d="M300.089 152.37C299.336 152.621 298.619 152.872 297.901 153.105C298.601 152.872 299.336 152.621 300.089 152.37Z" fill="#F8FA90"/>
<path d="M289.869 155.76C289.384 155.921 288.918 156.065 288.506 156.208C288.936 156.065 289.384 155.921 289.869 155.76Z" fill="#F8FA90"/>
<path d="M287.699 156.46C287.95 156.388 288.219 156.298 288.488 156.208C288.201 156.298 287.95 156.388 287.699 156.46Z" fill="#F8FA90"/>
<path d="M356.011 220.321C356.011 220.321 356.011 220.321 356.011 220.339C356.298 221.164 356.567 221.971 356.872 222.778C357.464 224.375 355.653 225.236 354.434 224.626C354.685 225.864 354.918 227.102 355.169 228.339C364.134 220.59 383.964 203.674 406.681 185.466L399.563 177.035C385.828 187.457 371.467 196.032 360.297 202.095C359.544 208.32 358.163 214.598 356.029 220.321H356.011Z" fill="#F8FA90"/>
<path d="M356.656 204.033C355.007 204.894 353.465 205.701 352.013 206.436C352.784 209.432 353.573 212.41 354.433 215.316C355.168 211.531 355.993 207.8 356.656 204.033Z" fill="#F8FA90"/>
<path d="M297.704 153.177C297.005 153.41 296.305 153.643 295.642 153.859C296.305 153.643 296.987 153.41 297.704 153.177Z" fill="#F8FA90"/>
<path d="M307.87 149.715C307.045 150.002 306.22 150.289 305.414 150.558C306.22 150.289 307.027 150.002 307.87 149.715Z" fill="#F8FA90"/>
<path d="M302.527 151.545C301.72 151.814 300.949 152.083 300.178 152.334C300.931 152.083 301.72 151.814 302.527 151.545Z" fill="#F8FA90"/>
<path d="M305.27 150.612C304.428 150.899 303.621 151.168 302.814 151.455C303.621 151.186 304.428 150.899 305.27 150.612Z" fill="#F8FA90"/>
<path d="M390.831 183.367L371.467 143.831L358.97 129.05C358.342 129.391 357.679 129.731 357.015 130.09C356.944 130.126 356.854 130.18 356.782 130.216C356.101 130.557 355.42 130.915 354.702 131.256C354.613 131.292 354.523 131.346 354.434 131.4C352.963 132.117 351.403 132.853 349.772 133.588C349.664 133.642 349.575 133.678 349.467 133.732C348.66 134.09 347.835 134.467 346.993 134.826C346.921 134.862 346.849 134.88 346.778 134.916C345.953 135.274 345.11 135.633 344.249 136.01C344.196 136.028 344.142 136.064 344.088 136.082C343.21 136.458 342.331 136.817 341.435 137.194C341.309 137.248 341.184 137.301 341.058 137.355C339.229 138.109 337.364 138.862 335.482 139.598C335.392 139.633 335.285 139.669 335.195 139.705C334.263 140.082 333.312 140.441 332.362 140.817C332.255 140.853 332.165 140.889 332.057 140.943C330.139 141.678 328.202 142.414 326.284 143.131C326.158 143.185 326.015 143.221 325.89 143.275C324.939 143.634 323.989 143.975 323.039 144.333C322.985 144.351 322.913 144.369 322.859 144.405C321.927 144.746 320.995 145.087 320.062 145.428C319.991 145.463 319.919 145.481 319.829 145.517C318.897 145.858 317.947 146.199 317.032 146.522C316.907 146.558 316.799 146.611 316.674 146.647C314.809 147.311 312.962 147.975 311.169 148.603C311.044 148.639 310.918 148.692 310.793 148.728C309.914 149.033 309.071 149.338 308.211 149.625C308.103 149.661 307.996 149.697 307.906 149.733C307.081 150.02 306.257 150.307 305.45 150.576C305.396 150.576 305.36 150.612 305.306 150.63C304.464 150.917 303.657 151.186 302.85 151.473C302.742 151.509 302.653 151.545 302.545 151.58C301.738 151.85 300.967 152.119 300.196 152.37C300.16 152.37 300.143 152.388 300.107 152.406C299.354 152.657 298.636 152.908 297.919 153.141C297.848 153.159 297.776 153.195 297.704 153.213C296.987 153.446 296.306 153.679 295.642 153.895C295.57 153.912 295.481 153.948 295.409 153.966C294.764 154.182 294.118 154.397 293.527 154.594C293.491 154.594 293.437 154.63 293.401 154.63C292.809 154.827 292.271 155.007 291.734 155.168C291.662 155.186 291.59 155.222 291.536 155.24C290.998 155.419 290.478 155.581 289.994 155.742C289.958 155.742 289.923 155.76 289.869 155.778C289.385 155.939 288.919 156.083 288.506 156.227C288.219 156.316 287.968 156.406 287.717 156.478C306.848 154.217 323.541 156.244 332.792 167.061C334.585 169.16 336.289 171.636 337.884 174.38C334.944 168.066 331.358 162.128 326.194 157.267C325.943 157.034 326.284 156.603 326.553 156.801C342.941 168.102 347.226 187.888 352.013 206.472C353.465 205.737 355.007 204.93 356.657 204.069C357.392 199.996 357.948 195.889 358.091 191.655C358.378 182.793 357.697 174.039 358.522 165.178C358.557 164.711 359.257 164.711 359.257 165.178C359.006 175.223 361.426 185.143 360.906 195.189C360.781 197.467 360.583 199.799 360.297 202.131C371.467 196.068 385.846 187.511 399.562 177.071C396.676 179.26 393.771 181.376 390.867 183.385L390.831 183.367Z" fill="#F8FA90"/>
<path d="M399.545 177.035L371.467 143.831L390.831 183.367C393.735 181.34 396.64 179.224 399.527 177.035H399.545Z" fill="#F8FA90"/>
<path d="M353.573 223.693C351.601 218.581 350.435 213.217 349.252 207.818C343.568 210.634 340.108 212.159 340.108 212.159L284.974 157.303L350.059 232.752C350.059 232.752 351.888 231.138 355.151 228.321C354.918 227.084 354.667 225.846 354.416 224.608C354.057 224.429 353.734 224.142 353.555 223.675L353.573 223.693Z" fill="#F8FA90"/>
<path d="M285.512 157.159C285.404 157.195 285.314 157.213 285.243 157.249C285.314 157.231 285.404 157.195 285.512 157.159Z" fill="#F8FA90"/>
<path d="M287.287 156.585C287.431 156.549 287.556 156.496 287.7 156.46C287.574 156.496 287.413 156.549 287.287 156.585Z" fill="#F8FA90"/>
<path d="M287.251 156.603C286.552 156.818 286.032 156.998 285.637 157.123C286.014 156.998 286.552 156.836 287.251 156.603Z" fill="#F8FA90"/>
<path d="M349.27 207.818C348.068 202.31 346.885 196.803 344.823 191.529C342.6 185.825 340.484 179.941 337.884 174.344C336.271 171.6 334.585 169.124 332.792 167.025C323.558 156.208 306.848 154.181 287.717 156.442C287.574 156.496 287.448 156.531 287.305 156.567C287.305 156.567 287.287 156.567 287.269 156.567C286.587 156.783 286.032 156.962 285.655 157.087C285.601 157.087 285.565 157.123 285.512 157.123C285.404 157.159 285.314 157.177 285.243 157.213C285.099 157.267 284.992 157.285 284.992 157.285L340.125 212.141C340.125 212.141 343.604 210.616 349.27 207.8V207.818Z" fill="#F8FA90"/>
<path d="M144.925 179.457C145.23 179.493 145.535 179.529 145.84 179.582C145.535 179.546 145.23 179.511 144.925 179.457Z" fill="#FEB9B2"/>
<path d="M153.263 180.39C153.747 180.443 154.231 180.479 154.715 180.515C154.231 180.479 153.747 180.426 153.263 180.39Z" fill="#FEB9B2"/>
<path d="M201.852 179.654C203.573 179.421 205.312 179.17 207.034 178.901C205.295 179.188 203.573 179.439 201.852 179.654Z" fill="#FEB9B2"/>
<path d="M141.017 178.901C141.232 178.937 141.447 178.973 141.644 178.99C141.429 178.955 141.214 178.919 141.017 178.901Z" fill="#FEB9B2"/>
<path d="M166.854 181.251C167.553 181.269 168.27 181.287 168.969 181.305C168.252 181.305 167.553 181.269 166.854 181.251Z" fill="#FEB9B2"/>
<path d="M157.673 180.748C158.229 180.784 158.803 180.82 159.359 180.874C158.785 180.838 158.229 180.802 157.673 180.748Z" fill="#FEB9B2"/>
<path d="M176.5 181.376C177.324 181.376 178.149 181.358 178.974 181.34C178.149 181.34 177.324 181.376 176.5 181.376Z" fill="#FEB9B2"/>
<path d="M191.561 180.731C192.583 180.641 193.622 180.551 194.644 180.443C193.622 180.533 192.583 180.641 191.561 180.731Z" fill="#FEB9B2"/>
<path d="M186.468 181.071C187.419 181.017 188.369 180.946 189.319 180.892C188.369 180.964 187.419 181.017 186.468 181.071Z" fill="#FEB9B2"/>
<path d="M162.209 181.053C162.837 181.089 163.482 181.125 164.128 181.143C163.482 181.107 162.855 181.089 162.209 181.053Z" fill="#FEB9B2"/>
<path d="M112.401 236.537L131.245 190.023L133.755 177.681C132.841 177.519 131.927 177.34 131.048 177.161C111.433 173.232 152.743 133.821 161.493 126.036C161.797 126.305 171.91 126.072 179.458 117.228C182.237 113.963 184.12 111.201 185.411 108.797C182.237 104.958 178.113 99.0923 173.129 90.1589C159.861 66.3904 182.847 52.7392 182.847 52.7392C182.237 51.627 181.825 50.4969 181.556 49.3129C180.695 49.6717 179.888 50.0664 179.189 50.461C174.904 52.9724 169.686 57.6723 166.298 61.26C165.527 58.1925 165.079 52.1472 167.23 49.4565C168.413 47.9676 170.081 46.9092 171.139 45.3127C172.322 43.5367 173.021 40.9357 171.408 39.1597C168.019 35.3927 159.771 40.5948 156.956 42.8013C149.372 48.7389 152.062 57.7082 153.442 65.8164C155.199 76.2745 150.789 86.1048 150.179 96.3477C133.684 104.259 44.9857 150.127 69.5135 211.029C75.251 225.272 96.8203 233.613 121.384 238.492C118.336 237.865 115.306 237.219 112.365 236.501L112.401 236.537Z" fill="#FEB9B2"/>
<path d="M173.129 90.1948C178.113 99.1282 182.255 104.994 185.411 108.833C187.024 105.891 187.742 103.541 188.136 101.622C186.469 95.5405 185.716 89.4414 185.805 83.5217C184.98 83.8446 184.227 84.1675 183.582 84.4724C184.192 83.8446 184.962 83.1808 185.823 82.4812C186.02 76.0951 187.204 69.9243 189.284 64.2557C184.478 65.5832 179.494 67.8614 176.482 69.422C179.189 65.8702 186.773 58.8203 190.359 55.8426C192.17 54.3357 194.268 52.1831 192.421 49.887C190.198 47.1424 185.303 47.842 181.538 49.3668C181.807 50.5328 182.237 51.6808 182.829 52.793C182.829 52.793 159.843 66.4442 173.111 90.2127L173.129 90.1948Z" fill="#FEB9B2"/>
<path d="M206.317 83.45C205.599 80.6336 204.595 80.4004 202.031 80.0237C198.463 79.4856 190.789 81.5844 185.805 83.5217C185.715 89.4594 186.468 95.5585 188.136 101.622C188.692 99.0206 188.674 97.2088 189.499 95.7558C191.919 91.5941 207.984 89.9796 206.299 83.432L206.317 83.45Z" fill="#FEB9B2"/>
<path d="M200.669 64.6145C198.338 62.5874 193.909 62.9821 189.301 64.2378C187.221 69.9243 186.038 76.0772 185.841 82.4633C190.216 78.9832 197.19 74.947 200.4 71.8796C202.748 69.6372 203.304 66.8926 200.669 64.5965V64.6145Z" fill="#FEB9B2"/>
<path d="M112.401 236.537C115.341 237.255 118.354 237.9 121.42 238.492L131.263 190.023L112.419 236.537H112.401Z" fill="#302D24"/>
<path d="M137.61 178.38C138.722 178.56 139.852 178.739 141.017 178.919C139.869 178.739 138.722 178.578 137.61 178.38Z" fill="#F8FA90"/>
<path d="M178.974 181.34C179.798 181.34 180.623 181.305 181.448 181.287C180.623 181.305 179.798 181.322 178.974 181.34Z" fill="#F8FA90"/>
<path d="M133.755 177.699C134.903 177.914 136.086 178.111 137.27 178.309C136.068 178.111 134.903 177.896 133.755 177.699Z" fill="#F8FA90"/>
<path d="M159.359 180.874C160.309 180.946 161.242 181 162.21 181.053C161.259 181 160.309 180.946 159.359 180.874Z" fill="#F8FA90"/>
<path d="M164.11 181.143C165.025 181.179 165.939 181.233 166.854 181.251C165.939 181.215 165.025 181.179 164.11 181.143Z" fill="#F8FA90"/>
<path d="M168.987 181.323C169.865 181.34 170.744 181.358 171.64 181.376C170.744 181.376 169.865 181.34 168.987 181.323Z" fill="#F8FA90"/>
<path d="M154.715 180.515C155.683 180.605 156.669 180.677 157.673 180.748C156.687 180.677 155.701 180.587 154.715 180.515Z" fill="#F8FA90"/>
<path d="M150.215 180.085C151.219 180.192 152.241 180.3 153.281 180.39C152.259 180.3 151.237 180.192 150.215 180.085Z" fill="#F8FA90"/>
<path d="M189.319 180.892C190.072 180.838 190.807 180.802 191.561 180.73C190.807 180.784 190.072 180.838 189.319 180.892Z" fill="#F8FA90"/>
<path d="M130.618 240.179C130.618 240.179 130.618 240.179 130.6 240.179C128.538 239.838 126.476 239.497 124.432 239.102C123.428 238.923 122.424 238.726 121.42 238.528L119.394 248.538C150.95 255.086 188.943 258.207 204.273 259.283C203.071 254.673 201.78 249.991 200.4 245.237C186.038 245.201 157.53 244.52 130.635 240.179H130.618Z" fill="#F8FA90"/>
<path d="M209.687 230.51L209.114 219.316C208.934 217.11 208.719 214.885 208.468 212.679L209.58 239.228C209.705 236.322 209.741 233.434 209.687 230.528V230.51Z" fill="#F8FA90"/>
<path d="M210.907 254.278C210.745 255.032 210.602 255.785 210.422 256.539C209.956 258.332 207.339 257.561 207.679 255.785C208.361 252.269 208.845 248.717 209.167 245.183C207.894 245.219 204.81 245.255 200.382 245.255C201.762 250.009 203.071 254.691 204.255 259.301C208.647 259.606 211.175 259.75 211.175 259.75L210.889 254.296L210.907 254.278Z" fill="#F8FA90"/>
<path d="M207.805 193.592L207.052 178.901L207.661 193.198C207.715 193.323 207.769 193.467 207.805 193.592Z" fill="#F8FA90"/>
<path d="M207.052 178.901C205.312 179.188 203.591 179.439 201.87 179.654C201.314 179.726 200.776 179.78 200.22 179.852C199.055 179.995 197.872 180.139 196.706 180.264C196.025 180.336 195.344 180.39 194.662 180.461C193.64 180.551 192.6 180.659 191.578 180.748C190.825 180.802 190.09 180.856 189.337 180.91C188.387 180.982 187.437 181.035 186.486 181.089C185.697 181.125 184.908 181.161 184.12 181.197C183.241 181.233 182.345 181.269 181.466 181.305C180.641 181.322 179.816 181.34 178.992 181.358C178.167 181.358 177.342 181.394 176.517 181.394C175.657 181.394 174.814 181.394 173.953 181.394C173.182 181.394 172.411 181.394 171.658 181.394C170.762 181.394 169.883 181.358 169.005 181.34C168.288 181.34 167.588 181.305 166.889 181.287C165.975 181.251 165.06 181.215 164.146 181.179C163.5 181.143 162.873 181.125 162.227 181.089C161.277 181.035 160.327 180.982 159.377 180.91C158.803 180.874 158.247 180.838 157.691 180.784C156.705 180.713 155.719 180.623 154.733 180.551C154.249 180.515 153.765 180.461 153.281 180.426C152.259 180.336 151.237 180.228 150.215 180.121C149.82 180.085 149.426 180.031 149.031 179.995C147.955 179.869 146.898 179.744 145.858 179.618C145.553 179.582 145.248 179.547 144.943 179.493C143.832 179.349 142.738 179.206 141.662 179.044C141.447 179.008 141.232 178.973 141.035 178.955C139.887 178.775 138.74 178.614 137.628 178.416C137.52 178.398 137.413 178.381 137.305 178.363C136.104 178.165 134.939 177.95 133.791 177.753L131.281 190.094L136.875 241.165C134.795 240.878 132.715 240.555 130.653 240.233C157.548 244.574 186.056 245.255 200.418 245.291C194.913 226.456 187.867 206.562 178.812 186.13C182.793 187.045 193.264 183.708 207.087 178.955L207.052 178.901Z" fill="#F8FA90"/>
<path d="M121.419 238.51C122.423 238.726 123.428 238.923 124.432 239.102C123.428 238.923 122.423 238.708 121.419 238.51Z" fill="#F8FA90"/>
<path d="M130.599 240.179C128.538 239.838 126.476 239.497 124.432 239.102C126.476 239.479 128.538 239.838 130.599 240.179Z" fill="#F8FA90"/>
<path d="M178.759 186.076C187.813 206.508 194.878 226.402 200.364 245.237C204.793 245.237 207.877 245.201 209.15 245.166C209.329 243.174 209.49 241.201 209.58 239.21L208.468 212.661C207.626 205.073 206.442 197.521 205.223 190.076C205.097 189.305 206.084 189.036 206.388 189.754C206.855 190.902 207.267 192.032 207.661 193.18L207.052 178.883C193.228 183.637 182.757 186.973 178.777 186.058L178.759 186.076Z" fill="#F8FA90"/>
<path d="M131.263 190.041L121.419 238.51C122.423 238.708 123.41 238.923 124.432 239.102C126.476 239.479 128.537 239.838 130.599 240.179C130.599 240.179 130.599 240.179 130.617 240.179C132.679 240.519 134.759 240.824 136.839 241.111L131.245 190.041H131.263Z" fill="#F8FA90"/>
<path d="M285.243 44.0031C285.332 43.7341 285.404 43.447 285.44 43.1421C285.404 43.447 285.332 43.7161 285.243 44.0031Z" fill="#514A47"/>
<path d="M284.902 44.7566C284.956 44.6669 284.992 44.5772 285.046 44.4696C285.01 44.5593 284.956 44.6669 284.902 44.7566Z" fill="#514A47"/>
<path d="M204.111 14.9607C204.309 14.8172 204.524 14.6916 204.721 14.5481C204.524 14.6737 204.309 14.8172 204.111 14.9607Z" fill="#514A47"/>
<path d="M205.635 13.992C205.886 13.8306 206.137 13.6871 206.388 13.5256C206.137 13.6691 205.886 13.8306 205.635 13.992Z" fill="#514A47"/>
<path d="M244.22 11.9291C245.152 11.8215 246.084 11.7856 247.017 11.7677C246.084 11.7677 245.17 11.8215 244.22 11.9291Z" fill="#514A47"/>
<path d="M201.816 16.5394C201.924 16.4676 202.032 16.3958 202.139 16.3062C202.032 16.3779 201.924 16.4497 201.816 16.5394Z" fill="#514A47"/>
<path d="M216.644 9.2922C217.038 9.23839 217.415 9.20251 217.774 9.18457C217.415 9.18457 217.038 9.23839 216.644 9.2922Z" fill="#514A47"/>
<path d="M218.042 9.18457C218.311 9.18457 218.562 9.18457 218.813 9.22045C218.562 9.20251 218.311 9.18457 218.042 9.18457Z" fill="#514A47"/>
<path d="M215.389 9.54327C215.748 9.45357 216.106 9.38182 216.429 9.328C216.088 9.38182 215.748 9.45357 215.389 9.54327Z" fill="#514A47"/>
<path d="M239.971 12.7005C240.921 12.4494 241.871 12.252 242.822 12.1085C241.871 12.252 240.939 12.4494 239.971 12.7005Z" fill="#514A47"/>
<path d="M212.251 10.5658C212.718 10.3864 213.184 10.207 213.614 10.0635C213.166 10.207 212.718 10.3864 212.251 10.5658Z" fill="#514A47"/>
<path d="M209.167 11.9829C209.508 11.8035 209.831 11.642 210.172 11.4806C209.849 11.642 209.508 11.8035 209.167 11.9829Z" fill="#514A47"/>
<path d="M213.99 9.93789C214.331 9.83026 214.672 9.72263 214.994 9.65088C214.672 9.74057 214.331 9.83026 213.99 9.93789Z" fill="#514A47"/>
<path d="M200.31 17.6695C200.436 17.5798 200.561 17.4901 200.669 17.3824C200.543 17.4721 200.418 17.5618 200.31 17.6695Z" fill="#514A47"/>
<path d="M284.436 45.4203C284.436 45.4203 284.472 45.3664 284.508 45.3306C284.49 45.3664 284.472 45.3844 284.436 45.4203Z" fill="#514A47"/>
<path d="M226.936 19.4454C227.904 18.674 228.872 17.9565 229.84 17.3107C228.872 17.9565 227.904 18.6561 226.936 19.4454Z" fill="#514A47"/>
<path d="M194.591 26.8002C199.647 23.2125 205.779 20.3064 211.893 21.4186C213.327 21.6698 214.797 22.2079 215.748 23.3201C216.554 24.2888 216.877 25.5624 217.021 26.8181C217.415 30.0829 216.77 33.2939 215.694 36.4152C217.272 35.8053 218.849 35.2851 220.463 34.8546C226.846 29.7959 234.986 26.9258 243.126 27.2487C249.097 27.4819 254.888 29.2757 260.5 31.2848C269.303 34.4241 278.465 38.6217 283.88 46.0123C284.077 45.8329 284.275 45.6356 284.436 45.4204C284.454 45.3845 284.472 45.3665 284.508 45.3307C284.651 45.1513 284.777 44.954 284.902 44.7566C284.956 44.6669 284.992 44.5773 285.046 44.4696C285.117 44.3082 285.189 44.1647 285.261 44.0032C285.35 43.7341 285.422 43.4471 285.458 43.1422C285.763 40.864 284.4 37.1328 281.765 33.0249C281.011 31.8589 280.151 30.657 279.201 29.4372C278.609 29.0604 277.981 28.7376 277.3 28.5043C273.678 27.2128 268.73 29.7421 265.771 26.4414C263.889 24.3606 264.642 21.3828 266.13 19.3019C266.417 18.9072 266.739 18.5664 267.062 18.2256C266.004 17.526 264.929 16.8802 263.817 16.2703C260.697 14.5661 257.326 13.2207 253.812 12.4673C251.607 11.983 249.348 11.7318 247.035 11.7677C246.102 11.7677 245.188 11.8215 244.238 11.9292C243.772 11.983 243.305 12.0368 242.821 12.1086C241.871 12.2521 240.939 12.4494 239.971 12.7005C238.536 13.0772 237.102 13.5616 235.649 14.1715C235.165 14.3688 234.681 14.602 234.197 14.8352C232.745 15.5348 231.293 16.36 229.84 17.3287C228.872 17.9744 227.904 18.674 226.936 19.4633C225.483 20.6293 224.031 21.9389 222.579 23.3919C222.579 23.3919 229.589 13.0055 219.961 9.48953C219.692 9.3819 219.387 9.32808 219.082 9.27427C218.993 9.27427 218.903 9.25633 218.796 9.23839C218.545 9.22045 218.294 9.20251 218.025 9.20251C217.935 9.20251 217.845 9.20251 217.738 9.20251C217.379 9.20251 217.003 9.25633 216.608 9.31015C216.536 9.31015 216.483 9.32808 216.411 9.34602C216.07 9.39984 215.73 9.47159 215.371 9.56128C215.228 9.59716 215.102 9.63304 214.959 9.66892C214.636 9.75861 214.295 9.8483 213.955 9.95593C213.829 9.99181 213.704 10.0277 213.578 10.0815C213.13 10.225 212.682 10.4044 212.215 10.5838C212.072 10.6376 211.911 10.7093 211.767 10.7811C211.427 10.9246 211.086 11.0681 210.745 11.2296C210.548 11.3193 210.351 11.409 210.136 11.5166C209.813 11.678 209.472 11.8395 209.132 12.0189C208.934 12.1086 208.755 12.2162 208.558 12.3059C208.092 12.557 207.625 12.8261 207.141 13.0952C206.872 13.2387 206.603 13.4001 206.334 13.5616C206.083 13.7051 205.832 13.8665 205.581 14.028C205.277 14.2074 204.99 14.4047 204.685 14.5841C204.488 14.7096 204.273 14.8531 204.075 14.9967C203.412 15.4272 202.766 15.8756 202.103 16.36C201.996 16.4317 201.888 16.5035 201.78 16.5932C201.404 16.8623 201.027 17.1493 200.633 17.4363C200.507 17.526 200.382 17.6157 200.274 17.7233C193.497 22.9075 186.935 29.8856 183.546 36.9713C186.791 33.1684 190.467 29.7421 194.537 26.854L194.591 26.8002Z" fill="#514A47"/>
<path d="M273.373 23.1944C273.051 22.9074 272.746 22.6204 272.423 22.3334C271.455 21.4903 270.433 20.6651 269.393 19.8758C268.64 19.3018 267.851 18.7636 267.062 18.2434C266.739 18.5842 266.417 18.9251 266.13 19.3197C264.642 21.4006 263.906 24.3784 265.771 26.4592C268.73 29.742 273.66 27.2306 277.3 28.5222C277.981 28.7554 278.609 29.0783 279.2 29.455C278.483 28.5581 277.73 27.6432 276.906 26.7463C275.812 25.5444 274.646 24.3604 273.391 23.1944H273.373Z" fill="#514A47"/>
<path d="M220.445 34.8365C218.831 35.2671 217.254 35.7873 215.676 36.3972C214.708 39.2135 213.363 41.9581 212.018 44.5951C214.152 40.8101 217.056 37.5273 220.445 34.8365Z" fill="#514A47"/>
<path d="M259.657 81.6203C260.912 82.5531 262.382 83.0733 263.942 83.2168C264.552 83.2706 265.628 82.9118 266.148 83.163C268.712 84.329 265.628 89.8182 265.072 91.1277C264.498 92.491 266.363 93.2982 266.954 91.917C268.012 89.4056 271.347 82.4992 266.847 81.2256C266.058 81.0103 265.179 81.2794 264.373 81.2256C262.203 81.0821 260.5 80.1314 259.263 78.4093C257.667 76.2028 257.003 73.4582 255.677 71.0904C255.39 70.5701 254.601 70.9289 254.744 71.485C255.587 75.0368 256.573 79.3241 259.693 81.6203H259.657Z" fill="#302D24"/>
<path d="M266.435 61.8878C266.04 61.5829 265.664 61.2779 265.305 60.955C265.108 60.7756 264.929 60.5963 264.749 60.4169C262.741 62.8027 260.607 65.0629 257.9 66.7133C257.255 67.1079 257.452 68.3457 258.312 68.256C261.791 67.9152 264.534 65.2065 266.937 62.2825C266.883 62.2466 266.847 62.2107 266.793 62.1748C266.668 62.0852 266.542 61.9955 266.435 61.9058V61.8878Z" fill="#302D24"/>
<path d="M266.793 62.157C266.793 62.157 266.883 62.2287 266.937 62.2646C266.883 62.2287 266.829 62.1929 266.793 62.157Z" fill="#302D24"/>
<path d="M265.001 60.1119C264.911 60.2196 264.839 60.3093 264.75 60.4169C264.929 60.5963 265.108 60.7757 265.305 60.9551L265.001 60.1119Z" fill="#302D24"/>
<path d="M266.793 62.1569C266.668 62.0672 266.542 61.9775 266.435 61.8878C266.56 61.9775 266.686 62.0672 266.793 62.1569Z" fill="#302D24"/>
<path d="M265.287 60.9371L265.305 60.955L265.287 60.9371Z" fill="#302D24"/>
<path d="M265.305 60.955C265.664 61.2779 266.04 61.5829 266.435 61.8878C266.56 61.9775 266.686 62.0672 266.793 62.1569C266.847 62.1928 266.901 62.2287 266.937 62.2645C268.533 60.3093 270.003 58.2643 271.437 56.7036C272.621 55.43 270.72 53.4926 269.519 54.7842C267.941 56.4884 266.489 58.3181 265 60.094L265.305 60.9371V60.955Z" fill="#302D24"/>
<path d="M222.059 75.5211C229.195 76.3283 239.146 76.7589 245.887 73.9605C246.855 73.5658 246.838 71.9872 245.618 72.0052C241.638 72.059 237.675 72.7586 233.677 72.8662C229.804 72.9738 225.896 72.6151 222.041 73.0097C220.427 73.1712 220.427 75.3417 222.041 75.5211H222.059Z" fill="#302D24"/>
<path d="M234.484 86.0869C235.99 86.0869 237.496 86.1407 238.984 86.2124C238.823 86.2483 238.661 86.2842 238.5 86.32C238.231 86.3559 237.962 86.4097 237.693 86.4456C235.398 86.7864 233.301 87.1452 231.49 88.6879C230.414 89.6207 231.561 91.576 232.888 91.1096C237.944 89.3158 243 88.8853 248.146 87.6475C248.541 87.5578 248.756 87.2349 248.81 86.8761C249.33 86.1407 249.079 84.9029 248.075 84.6518C243.61 83.4858 239.056 83.2705 234.448 83.2526C232.619 83.2526 232.619 86.0869 234.448 86.0869H234.484Z" fill="#302D24"/>
<path d="M266.56 78.5348C266.99 79.073 267.797 79.2703 268.443 78.6784C270.074 77.1177 272.029 75.7544 274.144 74.7678C275.417 74.2475 276.726 73.7811 278.125 73.4762C279.756 73.1174 279.057 70.7137 277.443 71.0007C275.973 71.2697 274.539 71.7541 273.158 72.3999C272.62 72.6151 272.082 72.8483 271.562 73.1174C272.656 71.9514 273.893 70.893 275.095 69.9064C275.148 69.8705 275.166 69.8167 275.202 69.7809C275.866 69.5477 276.332 68.866 275.848 68.1126C275.633 67.7897 275.417 67.5027 275.166 67.1977C274.933 66.8927 274.36 66.7492 274.001 66.8928C272.423 67.5027 271.222 68.4534 270.272 69.6015C268.12 71.4312 266.99 74.2834 265.448 76.6334C264.875 77.5123 265.735 78.5348 266.596 78.5528L266.56 78.5348Z" fill="#302D24"/>
<path d="M240.67 118.43C241.584 121.713 244.148 125.283 247.68 125.946C253.436 127.041 256.735 119.686 261.719 118.287C265.915 117.103 271.563 120.009 275.113 116.672C278.089 113.892 277.264 110.537 276.063 107.326C275.579 103.254 272.423 98.5542 268.748 97.1371C267.152 96.5272 265.646 96.6707 264.032 97.1371C259.98 98.2672 256.681 98.3031 252.557 98.4825C243.126 98.913 238.357 110.142 240.67 118.43Z" fill="#FEFEFE"/>
<path d="M354.433 224.626C355.652 225.236 357.463 224.393 356.872 222.778C356.567 221.971 356.298 221.164 356.011 220.339C356.011 220.339 356.011 220.339 356.011 220.321C358.145 214.598 359.507 208.32 360.278 202.095C359.023 202.777 357.822 203.423 356.657 204.033C355.975 207.8 355.168 211.549 354.433 215.316C353.573 212.41 352.802 209.432 352.013 206.436C351.475 206.705 350.937 206.974 350.417 207.244C351.869 212.787 353.214 218.599 354.433 224.626Z" fill="#1C4D6B"/>
<path d="M360.888 195.171C361.408 185.125 358.987 175.205 359.238 165.16C359.238 164.693 358.557 164.693 358.503 165.16C357.679 174.021 358.342 182.775 358.073 191.637C357.948 195.871 357.374 199.979 356.639 204.051C357.804 203.441 359.005 202.795 360.26 202.113C360.547 199.781 360.745 197.467 360.87 195.171H360.888Z" fill="#1C4D6B"/>
<path d="M352.013 206.454C347.226 187.87 342.923 168.066 326.553 156.783C326.266 156.585 325.943 157.016 326.194 157.249C331.358 162.092 334.944 168.048 337.884 174.362C342.851 182.865 346.993 194.256 350.417 207.261C350.937 207.01 351.457 206.741 352.013 206.454Z" fill="#1C4D6B"/>
<path d="M349.27 207.818C350.435 213.199 351.6 218.581 353.591 223.693C353.77 224.16 354.075 224.447 354.451 224.626C353.232 218.617 351.905 212.787 350.435 207.244C350.04 207.441 349.664 207.638 349.287 207.818H349.27Z" fill="#1C4D6B"/>
<path d="M349.27 207.818C349.646 207.638 350.023 207.441 350.417 207.244C346.993 194.238 342.851 182.847 337.884 174.344C340.484 179.941 342.6 185.825 344.823 191.529C346.885 196.803 348.086 202.31 349.27 207.818Z" fill="#1C4D6B"/>
<path d="M209.687 230.51L210.906 254.278C212.914 244.753 212.108 234.743 212.126 225.092C212.144 213.863 211.373 203.979 207.787 193.61L209.095 219.316C209.4 223.047 209.598 226.779 209.669 230.51H209.687Z" fill="#1C4D6B"/>
<path d="M209.58 239.21L209.831 245.148C209.831 245.148 209.598 245.148 209.15 245.148C208.827 248.7 208.343 252.233 207.661 255.749C207.321 257.525 209.938 258.297 210.405 256.503C210.602 255.749 210.745 254.996 210.889 254.243L209.669 230.474C209.723 233.38 209.705 236.286 209.562 239.174L209.58 239.21Z" fill="#1C4D6B"/>
<path d="M208.468 212.679C208.719 214.885 208.934 217.092 209.113 219.316L207.805 193.61C207.751 193.485 207.697 193.341 207.661 193.216L208.486 212.697L208.468 212.679Z" fill="#1C4D6B"/>
<path d="M209.58 239.21C209.49 241.201 209.347 243.174 209.149 245.166C209.58 245.166 209.831 245.166 209.831 245.166L209.58 239.228V239.21Z" fill="#1C4D6B"/>
<path d="M206.371 189.772C206.084 189.054 205.08 189.323 205.205 190.094C206.442 197.539 207.608 205.091 208.45 212.679L207.626 193.198C207.231 192.068 206.819 190.92 206.353 189.772H206.371Z" fill="#1C4D6B"/>
<path d="M263.44 329.477C273.535 334.428 283.593 338.518 294.548 341.226C304.93 343.792 315.562 345.55 326.248 346.016C335.213 346.411 345.54 348.204 354.147 345.083C356.495 344.222 355.473 340.437 353.107 341.298C345.002 344.258 334.747 342.518 326.248 342.177C315.329 341.747 304.392 339.953 293.795 337.298C283.755 334.786 274.467 330.983 265.072 326.678C257.613 323.27 249.545 320.848 242.983 315.807C242.319 315.305 241.512 316.399 242.104 316.956C248.254 322.75 255.946 325.799 263.44 329.459V329.477Z" fill="#1C4D6B"/>
</g>
<defs>
<clipPath id="clip0_108_970">
<rect width="574" height="437" fill="white"/>
</clipPath>
</defs>
</svg>
