<?xml version="1.0" encoding="UTF-8"?><svg id="Layer_1" xmlns="http://www.w3.org/2000/svg" viewBox="0 0 126 31"><path d="m22.26,9.19c-.31-.45-1.07-1.55-2.32-2.44-3.57-2.52-8.74-1.66-12.07,0C1.95,9.72.6,15.92.41,16.88c-.33,1.66-1.3,6.49,1.8,10.1,1.77,2.07,4.72,3.55,7.65,3.6.05,0,.21,0,.39,0,4.82-.09,7.78-3.47,8.27-4.04v4.04h5.67v-3.3c.02-1,.05-1.99.07-2.99.02-.81.05-2,.05-3.45.01-2.15.02-3.22-.02-3.94-.13-2.3-.29-5.14-2.05-7.73Zm-4.97,11.83c-2.38,4.12-6.78,6.03-9.83,4.27-3.05-1.76-3.6-6.53-1.22-10.65,2.38-4.12,6.78-6.03,9.83-4.27s3.6,6.53,1.22,10.65Zm19.08-4.68v14.47h-6.71V5.81h6.33l.11,6.24h-.4c.66-2.09,1.65-3.7,2.99-4.84,1.33-1.14,3.06-1.71,5.18-1.71,1.73,0,3.24.38,4.53,1.13,1.29.75,2.29,1.83,3,3.24.71,1.41,1.06,3.09,1.06,5.04v15.9h-6.71v-14.74c0-1.55-.4-2.77-1.2-3.65-.8-.88-1.9-1.32-3.32-1.32-.94,0-1.78.21-2.52.61-.74.41-1.31,1-1.72,1.78-.41.78-.61,1.72-.61,2.84Zm32.98,14.96c-2.5,0-4.67-.54-6.51-1.62-1.83-1.08-3.25-2.59-4.24-4.52-.99-1.93-1.49-4.18-1.49-6.74s.5-4.86,1.49-6.79c.99-1.93,2.4-3.44,4.24-4.52,1.83-1.08,4-1.62,6.51-1.62s4.69.54,6.52,1.62c1.83,1.08,3.23,2.59,4.23,4.52.99,1.93,1.49,4.19,1.49,6.79s-.5,4.81-1.49,6.74c-.99,1.93-2.4,3.44-4.23,4.52-1.83,1.08-4,1.62-6.52,1.62Zm0-5.28c1.19,0,2.19-.33,3-.99s1.41-1.57,1.81-2.73c.4-1.16.6-2.46.6-3.9s-.2-2.79-.6-3.94c-.4-1.15-1.01-2.05-1.81-2.71-.81-.66-1.8-.98-3-.98s-2.19.33-2.99.98c-.8.66-1.4,1.56-1.8,2.71-.4,1.15-.6,2.46-.6,3.94s.2,2.75.6,3.9c.4,1.16,1,2.07,1.8,2.73.8.66,1.79.99,2.99.99Zm29.32-20.22v5.12h-14.83v-5.12h14.83ZM87.29-.14h6.71v23.64c0,.79.18,1.38.53,1.76.35.38.94.57,1.76.57.25,0,.61-.03,1.07-.1.46-.07.81-.13,1.05-.19l.96,5.03c-.75.22-1.49.38-2.23.47-.74.09-1.44.13-2.11.13-2.5,0-4.42-.61-5.75-1.83-1.33-1.22-1.99-2.97-1.99-5.26V-.14Zm26.48,31.44c-2.5,0-4.67-.54-6.51-1.62-1.83-1.08-3.25-2.59-4.24-4.52-.99-1.93-1.49-4.18-1.49-6.74s.5-4.86,1.49-6.79c.99-1.93,2.4-3.44,4.24-4.52,1.83-1.08,4-1.62,6.51-1.62s4.69.54,6.52,1.62c1.83,1.08,3.23,2.59,4.23,4.52.99,1.93,1.49,4.19,1.49,6.79s-.5,4.81-1.49,6.74c-.99,1.93-2.4,3.44-4.23,4.52-1.83,1.08-4,1.62-6.52,1.62Zm0-5.28c1.19,0,2.19-.33,3-.99s1.41-1.57,1.81-2.73c.4-1.16.6-2.46.6-3.9s-.2-2.79-.6-3.94c-.4-1.15-1.01-2.05-1.81-2.71-.81-.66-1.8-.98-3-.98s-2.19.33-2.99.98c-.8.66-1.4,1.56-1.8,2.71-.4,1.15-.6,2.46-.6,3.94s.2,2.75.6,3.9c.4,1.16,1,2.07,1.8,2.73.8.66,1.79.99,2.99.99ZM2.64,8.89" style="fill:#fff;"/></svg>